<svg width="1440" height="520" viewBox="0 0 1440 520" fill="none" xmlns="http://www.w3.org/2000/svg">
<line x1="-2.91357" y1="519.02" x2="185.693" y2="0.828984" stroke="#0C0C0C"/>
<line x1="185.457" y1="519.02" x2="374.064" y2="0.828984" stroke="#0C0C0C"/>
<line x1="373.828" y1="519.02" x2="562.434" y2="0.828984" stroke="#0C0C0C"/>
<line x1="-1379" y1="0.5" x2="809" y2="0.5" stroke="#0C0C0C"/>
<line x1="-1379" y1="519.037" x2="809" y2="519.037" stroke="#0C0C0C"/>
<line x1="-1379" y1="348.262" x2="809" y2="348.262" stroke="#0C0C0C"/>
<line x1="-1379" y1="172.311" x2="809" y2="172.311" stroke="#0C0C0C"/>
<line x1="559.49" y1="519.02" x2="748.097" y2="0.828984" stroke="#0C0C0C"/>
<line x1="936.232" y1="519.02" x2="1124.84" y2="0.828984" stroke="#0C0C0C"/>
<line x1="1124.6" y1="519.02" x2="1313.21" y2="0.828984" stroke="#0C0C0C"/>
<line x1="1312.97" y1="519.02" x2="1501.58" y2="0.828984" stroke="#0C0C0C"/>
<line x1="747.861" y1="519.02" x2="936.468" y2="0.828984" stroke="#0C0C0C"/>
<line x1="502" y1="0.5" x2="2690" y2="0.5" stroke="#0C0C0C"/>
<line x1="502" y1="519.037" x2="2690" y2="519.037" stroke="#0C0C0C"/>
<line x1="502" y1="348.262" x2="2690" y2="348.262" stroke="#0C0C0C"/>
<line x1="502" y1="172.311" x2="2690" y2="172.311" stroke="#0C0C0C"/>
</svg>
