<svg width="1324" height="700" viewBox="0 0 1324 700" fill="none" xmlns="http://www.w3.org/2000/svg">
<rect width="1324" height="700" fill="black"/>
<path d="M268.906 270.886V257.182H327.918V270.886H306.747V327H290.111V270.886H268.906ZM336.159 327V257.182H365C370.227 257.182 374.739 258.205 378.534 260.25C382.352 262.273 385.295 265.102 387.364 268.739C389.432 272.352 390.466 276.557 390.466 281.352C390.466 286.17 389.409 290.386 387.295 294C385.205 297.591 382.216 300.375 378.33 302.352C374.443 304.33 369.83 305.318 364.489 305.318H346.693V292.023H361.352C363.898 292.023 366.023 291.58 367.727 290.693C369.455 289.807 370.761 288.568 371.648 286.977C372.534 285.364 372.977 283.489 372.977 281.352C372.977 279.193 372.534 277.33 371.648 275.761C370.761 274.17 369.455 272.943 367.727 272.08C366 271.216 363.875 270.784 361.352 270.784H353.034V327H336.159ZM398.784 327V257.182H447.466V270.886H415.659V285.205H444.977V298.943H415.659V313.295H447.466V327H398.784ZM458.034 327V257.182H474.909V285.205H502.42V257.182H519.261V327H502.42V298.943H474.909V327H458.034ZM544.949 327H526.812L550.369 257.182H572.835L596.392 327H578.256L561.858 274.773H561.312L544.949 327ZM542.528 299.523H580.438V312.341H542.528V299.523ZM661.045 257.182V327H644.75V257.182H661.045ZM601.42 327L623.102 290.045L602.034 257.182H622.83L637.693 285.205H668.545L682.864 257.182H703.557L683.239 289.841L704.375 327H684.091L670.693 300.75H635.409L621.568 327H601.42ZM712.472 327V257.182H761.153V270.886H729.347V285.205H758.665V298.943H729.347V313.295H761.153V327H712.472ZM771.722 327V257.182H800.562C805.79 257.182 810.301 258.205 814.097 260.25C817.915 262.273 820.858 265.102 822.926 268.739C824.994 272.352 826.028 276.557 826.028 281.352C826.028 286.17 824.972 290.386 822.858 294C820.767 297.591 817.778 300.375 813.892 302.352C810.006 304.33 805.392 305.318 800.051 305.318H782.256V292.023H796.915C799.46 292.023 801.585 291.58 803.29 290.693C805.017 289.807 806.324 288.568 807.21 286.977C808.097 285.364 808.54 283.489 808.54 281.352C808.54 279.193 808.097 277.33 807.21 275.761C806.324 274.17 805.017 272.943 803.29 272.08C801.563 271.216 799.438 270.784 796.915 270.784H788.597V327H771.722ZM834.347 327V257.182H851.222V285.205H878.733V257.182H895.574V327H878.733V298.943H851.222V327H834.347ZM917.034 281.795H932.58C938.284 281.795 943.239 282.716 947.443 284.557C951.648 286.398 954.898 288.989 957.193 292.33C959.511 295.67 960.67 299.602 960.67 304.125C960.67 308.648 959.511 312.625 957.193 316.057C954.898 319.489 951.648 322.17 947.443 324.102C943.239 326.034 938.284 327 932.58 327H906.5V257.182H923.341V313.636H932.58C935.034 313.636 937.102 313.216 938.784 312.375C940.489 311.511 941.773 310.352 942.636 308.898C943.523 307.42 943.955 305.784 943.932 303.989C943.955 301.398 942.989 299.239 941.034 297.511C939.08 295.761 936.261 294.886 932.58 294.886H917.034V281.795ZM982.795 257.182V327H965.955V257.182H982.795ZM993.347 257.182H1010.19V297.409H1010.77L1038.24 257.182H1052.77V327H1035.89V286.705H1035.45L1007.63 327H993.347V257.182ZM1029.93 238.636H1040.9C1040.88 242.909 1039.27 246.341 1036.06 248.932C1032.88 251.523 1028.56 252.818 1023.11 252.818C1017.65 252.818 1013.32 251.523 1010.12 248.932C1006.94 246.341 1005.36 242.909 1005.38 238.636H1016.26C1016.23 240.136 1016.74 241.5 1017.79 242.727C1018.84 243.955 1020.61 244.568 1023.11 244.568C1025.54 244.568 1027.28 243.966 1028.32 242.761C1029.37 241.557 1029.9 240.182 1029.93 238.636ZM589.361 443.955C584.043 443.955 579.327 443.045 575.213 441.227C571.122 439.386 567.895 436.852 565.531 433.625C563.168 430.398 561.963 426.682 561.918 422.477H578.895C578.963 424 579.452 425.352 580.361 426.534C581.27 427.693 582.509 428.602 584.077 429.261C585.645 429.92 587.429 430.25 589.429 430.25C591.429 430.25 593.19 429.898 594.713 429.193C596.259 428.466 597.463 427.477 598.327 426.227C599.19 424.955 599.611 423.5 599.588 421.864C599.611 420.227 599.145 418.773 598.19 417.5C597.236 416.227 595.884 415.239 594.134 414.534C592.406 413.83 590.361 413.477 587.997 413.477H581.213V401.477H587.997C590.065 401.477 591.884 401.136 593.452 400.455C595.043 399.773 596.281 398.818 597.168 397.591C598.054 396.341 598.486 394.909 598.463 393.295C598.486 391.727 598.111 390.352 597.338 389.17C596.588 387.966 595.531 387.034 594.168 386.375C592.827 385.716 591.27 385.386 589.497 385.386C587.634 385.386 585.94 385.716 584.418 386.375C582.918 387.034 581.724 387.966 580.838 389.17C579.952 390.375 579.486 391.773 579.44 393.364H563.315C563.361 389.205 564.52 385.545 566.793 382.386C569.065 379.205 572.156 376.716 576.065 374.92C579.997 373.125 584.474 372.227 589.497 372.227C594.497 372.227 598.895 373.102 602.69 374.852C606.486 376.602 609.44 378.989 611.554 382.011C613.668 385.011 614.724 388.409 614.724 392.205C614.747 396.136 613.463 399.375 610.872 401.92C608.304 404.466 604.997 406.034 600.952 406.625V407.17C606.361 407.807 610.44 409.557 613.19 412.42C615.963 415.284 617.338 418.864 617.315 423.159C617.315 427.205 616.122 430.795 613.736 433.932C611.372 437.045 608.077 439.5 603.849 441.295C599.645 443.068 594.815 443.955 589.361 443.955ZM642.074 443H623.938L647.494 373.182H669.96L693.517 443H675.381L658.983 390.773H658.438L642.074 443ZM639.653 415.523H677.562V428.341H639.653V415.523ZM698 443V429.773L699.909 429.568C702.364 429.273 704.364 428.284 705.909 426.602C707.455 424.898 708.625 422.193 709.42 418.489C710.239 414.761 710.761 409.727 710.989 403.386L712.114 373.182H761.102V443H744.773V386.477H727.693L726.602 409.591C726.216 417.568 725.205 424.011 723.568 428.92C721.932 433.807 719.398 437.375 715.966 439.625C712.557 441.875 707.977 443 702.227 443H698Z" fill="white"/>
<rect x="28" y="146" width="100" height="400" rx="50" fill="white"/>
<rect x="138" y="96" width="100" height="500" rx="50" fill="white"/>
<rect width="100" height="400" rx="50" transform="matrix(-1 0 0 1 1298 146)" fill="white"/>
<rect width="100" height="500" rx="50" transform="matrix(-1 0 0 1 1188 96)" fill="white"/>
<path d="M984.862 138.084C996.591 160.701 978.02 179.737 964.569 186.712C949.327 194.616 938.36 188.318 917.547 196.465C889.452 211.035 898.961 235.72 898.961 235.72C892.877 228.589 890.035 199.344 900.656 174.204C908.6 155.399 920.224 133.877 934.386 127.557C947.326 120.269 975.384 119.807 984.862 138.084Z" fill="white"/>
<path d="M876.463 157.191C889.278 159.405 891.001 174.467 889.514 183.07C887.83 192.819 883.144 198.023 879.782 210.439C876.678 228.409 888.279 230.107 888.279 230.107C883.478 230.516 870.835 221.935 864.13 208.495C859.114 198.442 854.179 185.762 856.156 177.051C857.353 168.579 866.108 155.402 876.463 157.191Z" fill="white"/>
<path d="M329.342 194.037C328.031 208.466 343.745 214.661 353.433 215.541C364.41 216.539 363.901 212.549 378.233 212.509C398.468 214.347 410.992 233.424 410.992 233.424C412.816 228.375 400.644 206.639 388.112 195.549C378.738 187.253 366.514 178.288 356.569 177.904C347.106 176.752 330.401 182.376 329.342 194.037Z" fill="white"/>
<path d="M430.107 171.988C422.558 173.863 422.182 182.923 423.441 187.991C424.868 193.734 426.801 192.773 429.344 200.035C431.974 210.621 424.503 220.33 424.503 220.33C427.385 220.367 436.266 210.368 439.685 202.06C442.242 195.846 444.637 188.068 443.081 182.957C442 177.954 436.207 170.473 430.107 171.988Z" fill="white"/>
<path d="M340.131 120.774C328.123 136.47 341.749 155.048 352.287 163.11C364.228 172.245 366.542 167.271 383.108 177.649C405.119 194.488 411.773 217.027 411.773 217.027C417.55 212.527 413.236 187.177 406.843 165.265C402.061 148.875 394.477 129.639 383.281 121.963C373.2 113.75 349.835 108.09 340.131 120.774Z" fill="white"/>
</svg>
