<svg width="1324" height="700" viewBox="0 0 1324 700" fill="none" xmlns="http://www.w3.org/2000/svg">
<g clip-path="url(#clip0_156_81)">
<rect width="1324" height="700" fill="black"/>
<path d="M92.456 187V117.182H121.57C126.797 117.182 131.172 117.92 134.695 119.398C138.24 120.875 140.899 122.943 142.672 125.602C144.467 128.261 145.365 131.341 145.365 134.841C145.365 137.5 144.808 139.875 143.695 141.966C142.581 144.034 141.047 145.75 139.092 147.114C137.138 148.477 134.876 149.432 132.308 149.977V150.659C135.126 150.795 137.729 151.557 140.115 152.943C142.524 154.33 144.456 156.261 145.911 158.739C147.365 161.193 148.092 164.102 148.092 167.466C148.092 171.216 147.138 174.568 145.229 177.523C143.32 180.455 140.558 182.773 136.945 184.477C133.331 186.159 128.945 187 123.786 187H92.456ZM109.331 173.398H119.763C123.422 173.398 126.115 172.705 127.842 171.318C129.592 169.932 130.467 168 130.467 165.523C130.467 163.727 130.047 162.182 129.206 160.886C128.365 159.568 127.172 158.557 125.626 157.852C124.081 157.125 122.229 156.761 120.07 156.761H109.331V173.398ZM109.331 145.886H118.672C120.513 145.886 122.149 145.58 123.581 144.966C125.013 144.352 126.126 143.466 126.922 142.307C127.74 141.148 128.149 139.75 128.149 138.114C128.149 135.773 127.32 133.932 125.661 132.591C124.001 131.25 121.763 130.58 118.945 130.58H109.331V145.886ZM167.081 141.795H182.626C188.331 141.795 193.286 142.716 197.49 144.557C201.695 146.398 204.945 148.989 207.24 152.33C209.558 155.67 210.717 159.602 210.717 164.125C210.717 168.648 209.558 172.625 207.24 176.057C204.945 179.489 201.695 182.17 197.49 184.102C193.286 186.034 188.331 187 182.626 187H156.547V117.182H173.388V173.636H182.626C185.081 173.636 187.149 173.216 188.831 172.375C190.536 171.511 191.82 170.352 192.683 168.898C193.57 167.42 194.001 165.784 193.979 163.989C194.001 161.398 193.036 159.239 191.081 157.511C189.126 155.761 186.308 154.886 182.626 154.886H167.081V141.795ZM232.842 117.182V187H216.001V117.182H232.842ZM306.768 142.477H289.723C289.496 140.727 289.03 139.148 288.325 137.739C287.621 136.33 286.689 135.125 285.53 134.125C284.371 133.125 282.996 132.364 281.405 131.841C279.837 131.295 278.098 131.023 276.189 131.023C272.803 131.023 269.882 131.852 267.428 133.511C264.996 135.17 263.121 137.568 261.803 140.705C260.507 143.841 259.859 147.636 259.859 152.091C259.859 156.727 260.518 160.614 261.837 163.75C263.178 166.864 265.053 169.216 267.462 170.807C269.893 172.375 272.768 173.159 276.087 173.159C277.95 173.159 279.643 172.92 281.166 172.443C282.712 171.966 284.064 171.273 285.223 170.364C286.405 169.432 287.371 168.307 288.121 166.989C288.893 165.648 289.428 164.136 289.723 162.455L306.768 162.557C306.473 165.648 305.575 168.693 304.075 171.693C302.598 174.693 300.564 177.432 297.973 179.909C295.382 182.364 292.223 184.318 288.496 185.773C284.791 187.227 280.541 187.955 275.746 187.955C269.428 187.955 263.768 186.568 258.768 183.795C253.791 181 249.859 176.932 246.973 171.591C244.087 166.25 242.643 159.75 242.643 152.091C242.643 144.409 244.109 137.898 247.041 132.557C249.973 127.216 253.939 123.159 258.939 120.386C263.939 117.614 269.541 116.227 275.746 116.227C279.973 116.227 283.882 116.818 287.473 118C291.064 119.159 294.223 120.864 296.95 123.114C299.678 125.341 301.893 128.08 303.598 131.33C305.303 134.58 306.359 138.295 306.768 142.477ZM382.322 152.091C382.322 159.773 380.845 166.284 377.891 171.625C374.936 176.966 370.936 181.023 365.891 183.795C360.868 186.568 355.232 187.955 348.982 187.955C342.709 187.955 337.061 186.557 332.038 183.761C327.016 180.966 323.027 176.909 320.072 171.591C317.141 166.25 315.675 159.75 315.675 152.091C315.675 144.409 317.141 137.898 320.072 132.557C323.027 127.216 327.016 123.159 332.038 120.386C337.061 117.614 342.709 116.227 348.982 116.227C355.232 116.227 360.868 117.614 365.891 120.386C370.936 123.159 374.936 127.216 377.891 132.557C380.845 137.898 382.322 144.409 382.322 152.091ZM365.072 152.091C365.072 147.545 364.425 143.705 363.129 140.568C361.857 137.432 360.016 135.057 357.607 133.443C355.22 131.83 352.345 131.023 348.982 131.023C345.641 131.023 342.766 131.83 340.357 133.443C337.947 135.057 336.095 137.432 334.8 140.568C333.527 143.705 332.891 147.545 332.891 152.091C332.891 156.636 333.527 160.477 334.8 163.614C336.095 166.75 337.947 169.125 340.357 170.739C342.766 172.352 345.641 173.159 348.982 173.159C352.345 173.159 355.22 172.352 357.607 170.739C360.016 169.125 361.857 166.75 363.129 163.614C364.425 160.477 365.072 156.636 365.072 152.091ZM434.822 187L412.868 158.023H409.05V187H392.175V117.182H409.05V144.284H411.743L433.357 117.182H454.459L427.561 150.148L455.857 187H434.822ZM523.791 152.091C523.791 159.773 522.314 166.284 519.359 171.625C516.405 176.966 512.405 181.023 507.359 183.795C502.337 186.568 496.7 187.955 490.45 187.955C484.178 187.955 478.53 186.557 473.507 183.761C468.484 180.966 464.496 176.909 461.541 171.591C458.609 166.25 457.143 159.75 457.143 152.091C457.143 144.409 458.609 137.898 461.541 132.557C464.496 127.216 468.484 123.159 473.507 120.386C478.53 117.614 484.178 116.227 490.45 116.227C496.7 116.227 502.337 117.614 507.359 120.386C512.405 123.159 516.405 127.216 519.359 132.557C522.314 137.898 523.791 144.409 523.791 152.091ZM506.541 152.091C506.541 147.545 505.893 143.705 504.598 140.568C503.325 137.432 501.484 135.057 499.075 133.443C496.689 131.83 493.814 131.023 490.45 131.023C487.109 131.023 484.234 131.83 481.825 133.443C479.416 135.057 477.564 137.432 476.268 140.568C474.996 143.705 474.359 147.545 474.359 152.091C474.359 156.636 474.996 160.477 476.268 163.614C477.564 166.75 479.416 169.125 481.825 170.739C484.234 172.352 487.109 173.159 490.45 173.159C493.814 173.159 496.689 172.352 499.075 170.739C501.484 169.125 503.325 166.75 504.598 163.614C505.893 160.477 506.541 156.636 506.541 152.091ZM597.018 142.477H579.973C579.746 140.727 579.28 139.148 578.575 137.739C577.871 136.33 576.939 135.125 575.78 134.125C574.621 133.125 573.246 132.364 571.655 131.841C570.087 131.295 568.348 131.023 566.439 131.023C563.053 131.023 560.132 131.852 557.678 133.511C555.246 135.17 553.371 137.568 552.053 140.705C550.757 143.841 550.109 147.636 550.109 152.091C550.109 156.727 550.768 160.614 552.087 163.75C553.428 166.864 555.303 169.216 557.712 170.807C560.143 172.375 563.018 173.159 566.337 173.159C568.2 173.159 569.893 172.92 571.416 172.443C572.962 171.966 574.314 171.273 575.473 170.364C576.655 169.432 577.621 168.307 578.371 166.989C579.143 165.648 579.678 164.136 579.973 162.455L597.018 162.557C596.723 165.648 595.825 168.693 594.325 171.693C592.848 174.693 590.814 177.432 588.223 179.909C585.632 182.364 582.473 184.318 578.746 185.773C575.041 187.227 570.791 187.955 565.996 187.955C559.678 187.955 554.018 186.568 549.018 183.795C544.041 181 540.109 176.932 537.223 171.591C534.337 166.25 532.893 159.75 532.893 152.091C532.893 144.409 534.359 137.898 537.291 132.557C540.223 127.216 544.189 123.159 549.189 120.386C554.189 117.614 559.791 116.227 565.996 116.227C570.223 116.227 574.132 116.818 577.723 118C581.314 119.159 584.473 120.864 587.2 123.114C589.928 125.341 592.143 128.08 593.848 131.33C595.553 134.58 596.609 138.295 597.018 142.477ZM649.322 187L627.368 158.023H623.55V187H606.675V117.182H623.55V144.284H626.243L647.857 117.182H668.959L642.061 150.148L670.357 187H649.322ZM738.291 152.091C738.291 159.773 736.814 166.284 733.859 171.625C730.905 176.966 726.905 181.023 721.859 183.795C716.837 186.568 711.2 187.955 704.95 187.955C698.678 187.955 693.03 186.557 688.007 183.761C682.984 180.966 678.996 176.909 676.041 171.591C673.109 166.25 671.643 159.75 671.643 152.091C671.643 144.409 673.109 137.898 676.041 132.557C678.996 127.216 682.984 123.159 688.007 120.386C693.03 117.614 698.678 116.227 704.95 116.227C711.2 116.227 716.837 117.614 721.859 120.386C726.905 123.159 730.905 127.216 733.859 132.557C736.814 137.898 738.291 144.409 738.291 152.091ZM721.041 152.091C721.041 147.545 720.393 143.705 719.098 140.568C717.825 137.432 715.984 135.057 713.575 133.443C711.189 131.83 708.314 131.023 704.95 131.023C701.609 131.023 698.734 131.83 696.325 133.443C693.916 135.057 692.064 137.432 690.768 140.568C689.496 143.705 688.859 147.545 688.859 152.091C688.859 156.636 689.496 160.477 690.768 163.614C692.064 166.75 693.916 169.125 696.325 170.739C698.734 172.352 701.609 173.159 704.95 173.159C708.314 173.159 711.189 172.352 713.575 170.739C715.984 169.125 717.825 166.75 719.098 163.614C720.393 160.477 721.041 156.636 721.041 152.091ZM748.143 187V117.182H776.984C782.212 117.182 786.723 118.205 790.518 120.25C794.337 122.273 797.28 125.102 799.348 128.739C801.416 132.352 802.45 136.557 802.45 141.352C802.45 146.17 801.393 150.386 799.28 154C797.189 157.591 794.2 160.375 790.314 162.352C786.428 164.33 781.814 165.318 776.473 165.318H758.678V152.023H773.337C775.882 152.023 778.007 151.58 779.712 150.693C781.439 149.807 782.746 148.568 783.632 146.977C784.518 145.364 784.962 143.489 784.962 141.352C784.962 139.193 784.518 137.33 783.632 135.761C782.746 134.17 781.439 132.943 779.712 132.08C777.984 131.216 775.859 130.784 773.337 130.784H765.018V187H748.143ZM876.666 152.091C876.666 159.773 875.189 166.284 872.234 171.625C869.28 176.966 865.28 181.023 860.234 183.795C855.212 186.568 849.575 187.955 843.325 187.955C837.053 187.955 831.405 186.557 826.382 183.761C821.359 180.966 817.371 176.909 814.416 171.591C811.484 166.25 810.018 159.75 810.018 152.091C810.018 144.409 811.484 137.898 814.416 132.557C817.371 127.216 821.359 123.159 826.382 120.386C831.405 117.614 837.053 116.227 843.325 116.227C849.575 116.227 855.212 117.614 860.234 120.386C865.28 123.159 869.28 127.216 872.234 132.557C875.189 137.898 876.666 144.409 876.666 152.091ZM859.416 152.091C859.416 147.545 858.768 143.705 857.473 140.568C856.2 137.432 854.359 135.057 851.95 133.443C849.564 131.83 846.689 131.023 843.325 131.023C839.984 131.023 837.109 131.83 834.7 133.443C832.291 135.057 830.439 137.432 829.143 140.568C827.871 143.705 827.234 147.545 827.234 152.091C827.234 156.636 827.871 160.477 829.143 163.614C830.439 166.75 832.291 169.125 834.7 170.739C837.109 172.352 839.984 173.159 843.325 173.159C846.689 173.159 849.564 172.352 851.95 170.739C854.359 169.125 856.2 166.75 857.473 163.614C858.768 160.477 859.416 156.636 859.416 152.091ZM949.893 142.477H932.848C932.621 140.727 932.155 139.148 931.45 137.739C930.746 136.33 929.814 135.125 928.655 134.125C927.496 133.125 926.121 132.364 924.53 131.841C922.962 131.295 921.223 131.023 919.314 131.023C915.928 131.023 913.007 131.852 910.553 133.511C908.121 135.17 906.246 137.568 904.928 140.705C903.632 143.841 902.984 147.636 902.984 152.091C902.984 156.727 903.643 160.614 904.962 163.75C906.303 166.864 908.178 169.216 910.587 170.807C913.018 172.375 915.893 173.159 919.212 173.159C921.075 173.159 922.768 172.92 924.291 172.443C925.837 171.966 927.189 171.273 928.348 170.364C929.53 169.432 930.496 168.307 931.246 166.989C932.018 165.648 932.553 164.136 932.848 162.455L949.893 162.557C949.598 165.648 948.7 168.693 947.2 171.693C945.723 174.693 943.689 177.432 941.098 179.909C938.507 182.364 935.348 184.318 931.621 185.773C927.916 187.227 923.666 187.955 918.871 187.955C912.553 187.955 906.893 186.568 901.893 183.795C896.916 181 892.984 176.932 890.098 171.591C887.212 166.25 885.768 159.75 885.768 152.091C885.768 144.409 887.234 137.898 890.166 132.557C893.098 127.216 897.064 123.159 902.064 120.386C907.064 117.614 912.666 116.227 918.871 116.227C923.098 116.227 927.007 116.818 930.598 118C934.189 119.159 937.348 120.864 940.075 123.114C942.803 125.341 945.018 128.08 946.723 131.33C948.428 134.58 949.484 138.295 949.893 142.477ZM957.266 130.886V117.182H1016.28V130.886H995.107V187H978.47V130.886H957.266ZM1024.52 187V117.182H1041.39V145.205H1068.9V117.182H1085.75V187H1068.9V158.943H1041.39V187H1024.52ZM1162.23 152.091C1162.23 159.773 1160.75 166.284 1157.8 171.625C1154.84 176.966 1150.84 181.023 1145.8 183.795C1140.77 186.568 1135.14 187.955 1128.89 187.955C1122.62 187.955 1116.97 186.557 1111.94 183.761C1106.92 180.966 1102.93 176.909 1099.98 171.591C1097.05 166.25 1095.58 159.75 1095.58 152.091C1095.58 144.409 1097.05 137.898 1099.98 132.557C1102.93 127.216 1106.92 123.159 1111.94 120.386C1116.97 117.614 1122.62 116.227 1128.89 116.227C1135.14 116.227 1140.77 117.614 1145.8 120.386C1150.84 123.159 1154.84 127.216 1157.8 132.557C1160.75 137.898 1162.23 144.409 1162.23 152.091ZM1144.98 152.091C1144.98 147.545 1144.33 143.705 1143.04 140.568C1141.76 137.432 1139.92 135.057 1137.51 133.443C1135.13 131.83 1132.25 131.023 1128.89 131.023C1125.55 131.023 1122.67 131.83 1120.26 133.443C1117.85 135.057 1116 137.432 1114.71 140.568C1113.43 143.705 1112.8 147.545 1112.8 152.091C1112.8 156.636 1113.43 160.477 1114.71 163.614C1116 166.75 1117.85 169.125 1120.26 170.739C1122.67 172.352 1125.55 173.159 1128.89 173.159C1132.25 173.159 1135.13 172.352 1137.51 170.739C1139.92 169.125 1141.76 166.75 1143.04 163.614C1144.33 160.477 1144.98 156.636 1144.98 152.091ZM1172.08 117.182H1188.92V157.409H1189.5L1216.98 117.182H1231.5V187H1214.63V146.705H1214.18L1186.37 187H1172.08V117.182ZM1208.66 98.6364H1219.64C1219.62 102.909 1218 106.341 1214.8 108.932C1211.62 111.523 1207.3 112.818 1201.84 112.818C1196.39 112.818 1192.06 111.523 1188.85 108.932C1185.67 106.341 1184.09 102.909 1184.12 98.6364H1194.99C1194.97 100.136 1195.48 101.5 1196.52 102.727C1197.57 103.955 1199.34 104.568 1201.84 104.568C1204.27 104.568 1206.01 103.966 1207.06 102.761C1208.1 101.557 1208.64 100.182 1208.66 98.6364ZM404.925 233.182H421.766V273.409H422.345L449.822 233.182H464.345V303H447.47V262.705H447.027L419.209 303H404.925V233.182ZM474.956 303V233.182H491.831V261.205H519.342V233.182H536.183V303H519.342V274.943H491.831V303H474.956ZM544.484 246.886V233.182H603.496V246.886H582.325V303H565.689V246.886H544.484ZM611.737 303V233.182H660.419V246.886H628.612V261.205H657.93V274.943H628.612V289.295H660.419V303H611.737ZM670.987 303V233.182H699.828C705.055 233.182 709.567 234.205 713.362 236.25C717.18 238.273 720.124 241.102 722.192 244.739C724.26 248.352 725.294 252.557 725.294 257.352C725.294 262.17 724.237 266.386 722.124 270C720.033 273.591 717.044 276.375 713.158 278.352C709.271 280.33 704.658 281.318 699.317 281.318H681.521V268.023H696.18C698.726 268.023 700.851 267.58 702.555 266.693C704.283 265.807 705.589 264.568 706.476 262.977C707.362 261.364 707.805 259.489 707.805 257.352C707.805 255.193 707.362 253.33 706.476 251.761C705.589 250.17 704.283 248.943 702.555 248.08C700.828 247.216 698.703 246.784 696.18 246.784H687.862V303H670.987ZM733.612 303V233.182H750.487V261.205H777.999V233.182H794.839V303H777.999V274.943H750.487V303H733.612ZM805.425 303V233.182H854.107V246.886H822.3V261.205H851.618V274.943H822.3V289.295H854.107V303H805.425ZM862.391 246.886V233.182H921.402V246.886H900.232V303H883.595V246.886H862.391Z" fill="white"/>
<path d="M-3 442.126C274 322.34 390.569 488.179 607.5 486.84" stroke="white" stroke-width="18" stroke-linecap="round"/>
<path d="M-3 472.126C274 352.34 390.569 518.179 607.5 516.84" stroke="white" stroke-width="18" stroke-linecap="round"/>
<path d="M-3 502.126C274 382.34 390.569 548.179 607.5 546.84" stroke="white" stroke-width="18" stroke-linecap="round"/>
<path d="M669.991 486.455C668.158 486.455 666.484 486.008 664.969 485.114C663.454 484.205 662.241 482.992 661.332 481.477C660.438 479.962 659.991 478.288 659.991 476.455C659.991 474.606 660.438 472.932 661.332 471.432C662.241 469.917 663.454 468.712 664.969 467.818C666.484 466.909 668.158 466.455 669.991 466.455C671.84 466.455 673.514 466.909 675.014 467.818C676.529 468.712 677.734 469.917 678.628 471.432C679.537 472.932 679.991 474.606 679.991 476.455C679.991 478.288 679.537 479.962 678.628 481.477C677.734 482.992 676.529 484.205 675.014 485.114C673.514 486.008 671.84 486.455 669.991 486.455ZM742.955 448.455V495H731.727V458.955H731.455L721.045 465.318V455.591L732.523 448.455H742.955ZM798.881 448.455V457.591H778.335V495H767.085V448.455H798.881ZM834.466 447.364L837.466 454.705C836.511 455.447 835.466 456.008 834.33 456.386C833.208 456.765 831.837 457.023 830.216 457.159C828.595 457.295 826.549 457.371 824.08 457.386C821.292 457.402 819.034 457.788 817.307 458.545C815.58 459.288 814.269 460.508 813.375 462.205C812.496 463.886 811.913 466.129 811.625 468.932H811.92C812.92 466.826 814.345 465.167 816.193 463.955C818.042 462.742 820.428 462.136 823.352 462.136C826.398 462.136 829.049 462.795 831.307 464.114C833.564 465.417 835.307 467.28 836.534 469.705C837.761 472.114 838.375 474.977 838.375 478.295C838.375 481.811 837.67 484.871 836.261 487.477C834.852 490.083 832.837 492.098 830.216 493.523C827.595 494.947 824.458 495.659 820.807 495.659C817.155 495.659 814.011 494.917 811.375 493.432C808.754 491.947 806.731 489.765 805.307 486.886C803.898 483.992 803.193 480.439 803.193 476.227V473.682C803.193 465.045 804.936 458.689 808.42 454.614C811.905 450.538 816.996 448.485 823.693 448.455C825.375 448.439 826.898 448.439 828.261 448.455C829.64 448.455 830.845 448.386 831.875 448.25C832.905 448.098 833.769 447.803 834.466 447.364ZM820.875 487.273C822.148 487.273 823.246 486.932 824.17 486.25C825.095 485.568 825.807 484.591 826.307 483.318C826.807 482.045 827.057 480.515 827.057 478.727C827.057 476.939 826.799 475.417 826.284 474.159C825.784 472.902 825.072 471.947 824.148 471.295C823.223 470.629 822.125 470.295 820.852 470.295C819.883 470.295 819.004 470.485 818.216 470.864C817.428 471.227 816.761 471.773 816.216 472.5C815.67 473.212 815.254 474.091 814.966 475.136C814.678 476.182 814.534 477.379 814.534 478.727C814.534 481.394 815.095 483.485 816.216 485C817.337 486.515 818.89 487.273 820.875 487.273ZM854.733 480.614L865.892 460.091H876.574V495H866.051V474.409L854.915 495H844.21V460.091H854.733V480.614ZM880.562 468.591V460.091H913.29V468.591H902.131V495H891.585V468.591H880.562ZM940.131 446.273L925.131 502H915.653L930.653 446.273H940.131ZM960.568 495.659C956.886 495.659 953.727 494.902 951.091 493.386C948.47 491.871 946.455 489.765 945.045 487.068C943.636 484.356 942.932 481.22 942.932 477.659C942.932 474.083 943.636 470.947 945.045 468.25C946.47 465.538 948.492 463.424 951.114 461.909C953.75 460.394 956.894 459.636 960.545 459.636C963.773 459.636 966.583 460.22 968.977 461.386C971.386 462.553 973.265 464.205 974.614 466.341C975.977 468.462 976.697 470.955 976.773 473.818H966.386C966.174 472.03 965.568 470.629 964.568 469.614C963.583 468.598 962.295 468.091 960.705 468.091C959.417 468.091 958.288 468.455 957.318 469.182C956.348 469.894 955.591 470.955 955.045 472.364C954.515 473.758 954.25 475.485 954.25 477.545C954.25 479.606 954.515 481.348 955.045 482.773C955.591 484.182 956.348 485.25 957.318 485.977C958.288 486.689 959.417 487.045 960.705 487.045C961.735 487.045 962.644 486.826 963.432 486.386C964.235 485.947 964.894 485.303 965.409 484.455C965.924 483.591 966.25 482.545 966.386 481.318H976.773C976.667 484.197 975.947 486.712 974.614 488.864C973.295 491.015 971.439 492.689 969.045 493.886C966.667 495.068 963.841 495.659 960.568 495.659ZM669.991 563.455C668.158 563.455 666.484 563.008 664.969 562.114C663.454 561.205 662.241 559.992 661.332 558.477C660.438 556.962 659.991 555.288 659.991 553.455C659.991 551.606 660.438 549.932 661.332 548.432C662.241 546.917 663.454 545.712 664.969 544.818C666.484 543.909 668.158 543.455 669.991 543.455C671.84 543.455 673.514 543.909 675.014 544.818C676.529 545.712 677.734 546.917 678.628 548.432C679.537 549.932 679.991 551.606 679.991 553.455C679.991 555.288 679.537 556.962 678.628 558.477C677.734 559.992 676.529 561.205 675.014 562.114C673.514 563.008 671.84 563.455 669.991 563.455ZM779.205 548.727C779.205 553.848 778.22 558.189 776.25 561.75C774.28 565.311 771.614 568.015 768.25 569.864C764.902 571.712 761.144 572.636 756.977 572.636C752.795 572.636 749.03 571.705 745.682 569.841C742.333 567.977 739.674 565.273 737.705 561.727C735.75 558.167 734.773 553.833 734.773 548.727C734.773 543.606 735.75 539.265 737.705 535.705C739.674 532.144 742.333 529.439 745.682 527.591C749.03 525.742 752.795 524.818 756.977 524.818C761.144 524.818 764.902 525.742 768.25 527.591C771.614 529.439 774.28 532.144 776.25 535.705C778.22 539.265 779.205 543.606 779.205 548.727ZM767.705 548.727C767.705 545.697 767.273 543.136 766.409 541.045C765.561 538.955 764.333 537.371 762.727 536.295C761.136 535.22 759.22 534.682 756.977 534.682C754.75 534.682 752.833 535.22 751.227 536.295C749.621 537.371 748.386 538.955 747.523 541.045C746.674 543.136 746.25 545.697 746.25 548.727C746.25 551.758 746.674 554.318 747.523 556.409C748.386 558.5 749.621 560.083 751.227 561.159C752.833 562.235 754.75 562.773 756.977 562.773C759.22 562.773 761.136 562.235 762.727 561.159C764.333 560.083 765.561 558.5 766.409 556.409C767.273 554.318 767.705 551.758 767.705 548.727ZM785.773 572V537.091H817.295V572H806.773V545.591H796.159V572H785.773ZM821.25 545.591V537.091H853.977V545.591H842.818V572H832.273V545.591H821.25ZM874.506 572.659C870.839 572.659 867.688 571.909 865.051 570.409C862.43 568.894 860.407 566.788 858.983 564.091C857.574 561.379 856.869 558.235 856.869 554.659C856.869 551.068 857.574 547.924 858.983 545.227C860.407 542.515 862.43 540.409 865.051 538.909C867.688 537.394 870.839 536.636 874.506 536.636C878.172 536.636 881.316 537.394 883.938 538.909C886.574 540.409 888.597 542.515 890.006 545.227C891.43 547.924 892.142 551.068 892.142 554.659C892.142 558.235 891.43 561.379 890.006 564.091C888.597 566.788 886.574 568.894 883.938 570.409C881.316 571.909 878.172 572.659 874.506 572.659ZM874.574 564.273C875.907 564.273 877.036 563.864 877.96 563.045C878.884 562.227 879.589 561.091 880.074 559.636C880.574 558.182 880.824 556.5 880.824 554.591C880.824 552.652 880.574 550.955 880.074 549.5C879.589 548.045 878.884 546.909 877.96 546.091C877.036 545.273 875.907 544.864 874.574 544.864C873.195 544.864 872.028 545.273 871.074 546.091C870.134 546.909 869.415 548.045 868.915 549.5C868.43 550.955 868.188 552.652 868.188 554.591C868.188 556.5 868.43 558.182 868.915 559.636C869.415 561.091 870.134 562.227 871.074 563.045C872.028 563.864 873.195 564.273 874.574 564.273ZM897.835 572V537.091H912.903C917.403 537.091 920.949 537.902 923.54 539.523C926.146 541.129 927.449 543.485 927.449 546.591C927.449 548.394 926.714 549.947 925.244 551.25C923.79 552.538 921.722 553.409 919.04 553.864C921.403 553.985 923.366 554.455 924.926 555.273C926.487 556.091 927.653 557.129 928.426 558.386C929.199 559.644 929.585 560.985 929.585 562.409C929.585 564.47 929.032 566.212 927.926 567.636C926.82 569.061 925.199 570.144 923.062 570.886C920.941 571.629 918.335 572 915.244 572H897.835ZM908.176 563.955H915.244C916.426 563.955 917.35 563.674 918.017 563.114C918.699 562.553 919.04 561.78 919.04 560.795C919.04 559.735 918.699 558.902 918.017 558.295C917.35 557.689 916.426 557.386 915.244 557.386H908.176V563.955ZM908.176 551.364H913.199C914.002 551.364 914.691 551.242 915.267 551C915.843 550.758 916.282 550.409 916.585 549.955C916.903 549.5 917.062 548.955 917.062 548.318C917.062 547.394 916.691 546.667 915.949 546.136C915.222 545.606 914.206 545.341 912.903 545.341H908.176V551.364ZM951.381 572.659C947.714 572.659 944.563 571.909 941.926 570.409C939.305 568.894 937.282 566.788 935.858 564.091C934.449 561.379 933.744 558.235 933.744 554.659C933.744 551.068 934.449 547.924 935.858 545.227C937.282 542.515 939.305 540.409 941.926 538.909C944.563 537.394 947.714 536.636 951.381 536.636C955.047 536.636 958.191 537.394 960.812 538.909C963.449 540.409 965.472 542.515 966.881 545.227C968.305 547.924 969.017 551.068 969.017 554.659C969.017 558.235 968.305 561.379 966.881 564.091C965.472 566.788 963.449 568.894 960.812 570.409C958.191 571.909 955.047 572.659 951.381 572.659ZM951.449 564.273C952.782 564.273 953.911 563.864 954.835 563.045C955.759 562.227 956.464 561.091 956.949 559.636C957.449 558.182 957.699 556.5 957.699 554.591C957.699 552.652 957.449 550.955 956.949 549.5C956.464 548.045 955.759 546.909 954.835 546.091C953.911 545.273 952.782 544.864 951.449 544.864C950.07 544.864 948.903 545.273 947.949 546.091C947.009 546.909 946.29 548.045 945.79 549.5C945.305 550.955 945.062 552.652 945.062 554.591C945.062 556.5 945.305 558.182 945.79 559.636C946.29 561.091 947.009 562.227 947.949 563.045C948.903 563.864 950.07 564.273 951.449 564.273ZM973.006 572L972.938 563.432H974.051C974.809 563.432 975.468 563.235 976.028 562.841C976.589 562.447 977.059 561.818 977.438 560.955C977.816 560.076 978.119 558.947 978.347 557.568C978.574 556.189 978.718 554.515 978.778 552.545L979.347 537.091H1006.98V572H996.46V545.591H989.233L988.688 555.636C988.551 558.591 988.165 561.114 987.528 563.205C986.907 565.28 986.059 566.962 984.983 568.25C983.922 569.538 982.665 570.485 981.21 571.091C979.756 571.697 978.112 572 976.278 572H973.006ZM1030.07 572.659C1026.4 572.659 1023.25 571.909 1020.61 570.409C1017.99 568.894 1015.97 566.788 1014.55 564.091C1013.14 561.379 1012.43 558.235 1012.43 554.659C1012.43 551.068 1013.14 547.924 1014.55 545.227C1015.97 542.515 1017.99 540.409 1020.61 538.909C1023.25 537.394 1026.4 536.636 1030.07 536.636C1033.73 536.636 1036.88 537.394 1039.5 538.909C1042.14 540.409 1044.16 542.515 1045.57 545.227C1046.99 547.924 1047.7 551.068 1047.7 554.659C1047.7 558.235 1046.99 561.379 1045.57 564.091C1044.16 566.788 1042.14 568.894 1039.5 570.409C1036.88 571.909 1033.73 572.659 1030.07 572.659ZM1030.14 564.273C1031.47 564.273 1032.6 563.864 1033.52 563.045C1034.45 562.227 1035.15 561.091 1035.64 559.636C1036.14 558.182 1036.39 556.5 1036.39 554.591C1036.39 552.652 1036.14 550.955 1035.64 549.5C1035.15 548.045 1034.45 546.909 1033.52 546.091C1032.6 545.273 1031.47 544.864 1030.14 544.864C1028.76 544.864 1027.59 545.273 1026.64 546.091C1025.7 546.909 1024.98 548.045 1024.48 549.5C1023.99 550.955 1023.75 552.652 1023.75 554.591C1023.75 556.5 1023.99 558.182 1024.48 559.636C1024.98 561.091 1025.7 562.227 1026.64 563.045C1027.59 563.864 1028.76 564.273 1030.14 564.273ZM1053.4 572V537.091H1064.51V550.091H1066.97L1075.44 537.091H1088.31L1076.56 554.568L1088.42 572H1075.4L1067.74 560.409H1064.51V572H1053.4ZM1116.51 550.205V558.682H1098.6V550.205H1116.51ZM1102.42 537.091V572H1091.9V537.091H1102.42ZM1123.22 537.091V572H1112.76V537.091H1123.22ZM1146.26 572.659C1142.59 572.659 1139.44 571.909 1136.8 570.409C1134.18 568.894 1132.16 566.788 1130.73 564.091C1129.32 561.379 1128.62 558.235 1128.62 554.659C1128.62 551.068 1129.32 547.924 1130.73 545.227C1132.16 542.515 1134.18 540.409 1136.8 538.909C1139.44 537.394 1142.59 536.636 1146.26 536.636C1149.92 536.636 1153.07 537.394 1155.69 538.909C1158.32 540.409 1160.35 542.515 1161.76 545.227C1163.18 547.924 1163.89 551.068 1163.89 554.659C1163.89 558.235 1163.18 561.379 1161.76 564.091C1160.35 566.788 1158.32 568.894 1155.69 570.409C1153.07 571.909 1149.92 572.659 1146.26 572.659ZM1146.32 564.273C1147.66 564.273 1148.79 563.864 1149.71 563.045C1150.63 562.227 1151.34 561.091 1151.82 559.636C1152.32 558.182 1152.57 556.5 1152.57 554.591C1152.57 552.652 1152.32 550.955 1151.82 549.5C1151.34 548.045 1150.63 546.909 1149.71 546.091C1148.79 545.273 1147.66 544.864 1146.32 544.864C1144.95 544.864 1143.78 545.273 1142.82 546.091C1141.88 546.909 1141.16 548.045 1140.66 549.5C1140.18 550.955 1139.94 552.652 1139.94 554.591C1139.94 556.5 1140.18 558.182 1140.66 559.636C1141.16 561.091 1141.88 562.227 1142.82 563.045C1143.78 563.864 1144.95 564.273 1146.32 564.273Z" fill="white"/>
<path d="M1842.5 442.483C1565.5 322.696 1448.93 488.536 1232 487.196" stroke="white" stroke-width="18" stroke-linecap="round"/>
<path d="M1842.5 472.483C1565.5 352.696 1448.93 518.536 1232 517.196" stroke="white" stroke-width="18" stroke-linecap="round"/>
<path d="M1842.5 502.483C1565.5 382.696 1448.93 548.536 1232 547.196" stroke="white" stroke-width="18" stroke-linecap="round"/>
</g>
<defs>
<clipPath id="clip0_156_81">
<rect width="1324" height="700" fill="white"/>
</clipPath>
</defs>
</svg>
