<svg width="1324" height="700" viewBox="0 0 1324 700" fill="none" xmlns="http://www.w3.org/2000/svg">
<g clip-path="url(#clip0_157_64)">
<rect width="1324" height="700" fill="black"/>
<path d="M454.227 288.455V335H441.773V298.455H426.045V335H413.591V288.455H454.227ZM507.403 311.727C507.403 316.909 506.396 321.28 504.381 324.841C502.366 328.386 499.646 331.076 496.222 332.909C492.797 334.727 488.979 335.636 484.767 335.636C480.525 335.636 476.691 334.72 473.267 332.886C469.858 331.038 467.146 328.341 465.131 324.795C463.131 321.235 462.131 316.879 462.131 311.727C462.131 306.545 463.131 302.182 465.131 298.636C467.146 295.076 469.858 292.386 473.267 290.568C476.691 288.735 480.525 287.818 484.767 287.818C488.979 287.818 492.797 288.735 496.222 290.568C499.646 292.386 502.366 295.076 504.381 298.636C506.396 302.182 507.403 306.545 507.403 311.727ZM494.403 311.727C494.403 308.939 494.032 306.591 493.29 304.682C492.562 302.758 491.479 301.303 490.04 300.318C488.616 299.318 486.858 298.818 484.767 298.818C482.676 298.818 480.911 299.318 479.472 300.318C478.047 301.303 476.964 302.758 476.222 304.682C475.494 306.591 475.131 308.939 475.131 311.727C475.131 314.515 475.494 316.871 476.222 318.795C476.964 320.705 478.047 322.159 479.472 323.159C480.911 324.144 482.676 324.636 484.767 324.636C486.858 324.636 488.616 324.144 490.04 323.159C491.479 322.159 492.562 320.705 493.29 318.795C494.032 316.871 494.403 314.515 494.403 311.727ZM513.25 335V288.455H533.432C536.977 288.455 539.955 288.932 542.364 289.886C544.788 290.841 546.614 292.189 547.841 293.932C549.083 295.674 549.705 297.727 549.705 300.091C549.705 301.803 549.326 303.364 548.568 304.773C547.826 306.182 546.78 307.364 545.432 308.318C544.083 309.258 542.508 309.909 540.705 310.273V310.727C542.705 310.803 544.523 311.311 546.159 312.25C547.795 313.174 549.098 314.455 550.068 316.091C551.038 317.712 551.523 319.621 551.523 321.818C551.523 324.364 550.856 326.629 549.523 328.614C548.205 330.598 546.326 332.159 543.886 333.295C541.447 334.432 538.538 335 535.159 335H513.25ZM525.886 324.909H531.795C533.917 324.909 535.508 324.515 536.568 323.727C537.629 322.924 538.159 321.742 538.159 320.182C538.159 319.091 537.909 318.167 537.409 317.409C536.909 316.652 536.197 316.076 535.273 315.682C534.364 315.288 533.265 315.091 531.977 315.091H525.886V324.909ZM525.886 307.273H531.068C532.174 307.273 533.152 307.098 534 306.75C534.848 306.402 535.508 305.902 535.977 305.25C536.462 304.583 536.705 303.773 536.705 302.818C536.705 301.379 536.189 300.28 535.159 299.523C534.129 298.75 532.826 298.364 531.25 298.364H525.886V307.273ZM564 304.091H573.636C577.561 304.091 580.985 304.72 583.909 305.977C586.848 307.235 589.129 309.008 590.75 311.295C592.386 313.583 593.197 316.273 593.182 319.364C593.197 322.455 592.386 325.174 590.75 327.523C589.129 329.871 586.848 331.705 583.909 333.023C580.985 334.341 577.561 335 573.636 335H556.273V288.455H568.909V325.091H573.636C575.167 325.091 576.447 324.841 577.477 324.341C578.523 323.841 579.311 323.152 579.841 322.273C580.386 321.394 580.652 320.394 580.636 319.273C580.652 317.682 580.061 316.364 578.864 315.318C577.667 314.258 575.924 313.727 573.636 313.727H564V304.091ZM609.091 288.455V335H596.455V288.455H609.091ZM618.153 288.455H630.426V325.273H641.79V288.455H653.972V325.273H665.062V288.455H677.244V335H618.153V288.455ZM686.312 335V288.455H719.858V298.636H698.949V306.636H718.131V316.818H698.949V324.818H719.767V335H686.312ZM726.125 335V288.455H738.761V306.636H755.489V288.455H768.125V335H755.489V316.818H738.761V335H726.125ZM774.125 335V288.455H786.761V306.636H803.489V288.455H816.125V335H803.489V316.818H786.761V335H774.125ZM834.216 335H820.58L835.943 288.455H853.216L868.58 335H854.943L844.761 301.273H844.398L834.216 335ZM831.67 316.636H857.307V326.091H831.67V316.636ZM911.517 335H898.881V298.545H894.426C892.956 298.545 891.691 298.75 890.631 299.159C889.57 299.553 888.752 300.174 888.176 301.023C887.616 301.856 887.335 302.939 887.335 304.273C887.335 305.591 887.616 306.659 888.176 307.477C888.752 308.295 889.57 308.894 890.631 309.273C891.691 309.636 892.956 309.818 894.426 309.818H903.881V319.636H891.881C888.35 319.636 885.252 319.053 882.585 317.886C879.919 316.72 877.843 314.992 876.358 312.705C874.888 310.417 874.153 307.606 874.153 304.273C874.153 300.97 874.873 298.136 876.312 295.773C877.752 293.409 879.767 291.598 882.358 290.341C884.964 289.083 887.987 288.455 891.426 288.455H911.517V335ZM884.244 313.636H897.699L886.335 335H872.608L884.244 313.636ZM366.403 365.455H378.676V402.273H390.04V365.455H402.222V402.273H413.312V365.455H425.494V412H366.403V365.455ZM441.29 412.636V402.818H443.562C444.896 402.818 445.949 402.712 446.722 402.5C447.509 402.273 448.116 401.879 448.54 401.318C448.979 400.742 449.35 399.939 449.653 398.909L450.108 397.545L432.653 365.455H445.562L455.29 384.364L462.744 365.455H475.472L459.472 401.818C458.593 403.727 457.547 405.508 456.335 407.159C455.123 408.795 453.616 410.121 451.812 411.136C450.009 412.136 447.775 412.636 445.108 412.636H441.29ZM479.562 365.455H495.29L506.108 391.818H506.653L517.472 365.455H533.199V412H520.835V385.091H520.472L510.108 411.636H502.653L492.29 384.909H491.926V412H479.562V365.455ZM584.278 388.727C584.278 393.909 583.271 398.28 581.256 401.841C579.241 405.386 576.521 408.076 573.097 409.909C569.672 411.727 565.854 412.636 561.642 412.636C557.4 412.636 553.566 411.72 550.142 409.886C546.733 408.038 544.021 405.341 542.006 401.795C540.006 398.235 539.006 393.879 539.006 388.727C539.006 383.545 540.006 379.182 542.006 375.636C544.021 372.076 546.733 369.386 550.142 367.568C553.566 365.735 557.4 364.818 561.642 364.818C565.854 364.818 569.672 365.735 573.097 367.568C576.521 369.386 579.241 372.076 581.256 375.636C583.271 379.182 584.278 383.545 584.278 388.727ZM571.278 388.727C571.278 385.939 570.907 383.591 570.165 381.682C569.438 379.758 568.354 378.303 566.915 377.318C565.491 376.318 563.733 375.818 561.642 375.818C559.551 375.818 557.786 376.318 556.347 377.318C554.922 378.303 553.839 379.758 553.097 381.682C552.369 383.591 552.006 385.939 552.006 388.727C552.006 391.515 552.369 393.871 553.097 395.795C553.839 397.705 554.922 399.159 556.347 400.159C557.786 401.144 559.551 401.636 561.642 401.636C563.733 401.636 565.491 401.144 566.915 400.159C568.354 399.159 569.438 397.705 570.165 395.795C570.907 393.871 571.278 391.515 571.278 388.727ZM590.125 365.455H602.761V389.818H603.125L619.67 365.455H630.398V412H617.761V387.545H617.489L600.67 412H590.125V365.455ZM654.648 412.636C650.981 412.636 647.723 412.008 644.875 410.75C642.042 409.477 639.814 407.727 638.193 405.5C636.572 403.273 635.754 400.712 635.739 397.818H648.466C648.481 398.712 648.754 399.515 649.284 400.227C649.83 400.924 650.572 401.47 651.511 401.864C652.451 402.258 653.527 402.455 654.739 402.455C655.905 402.455 656.936 402.25 657.83 401.841C658.723 401.417 659.42 400.833 659.92 400.091C660.42 399.348 660.663 398.5 660.648 397.545C660.663 396.606 660.375 395.773 659.784 395.045C659.208 394.318 658.398 393.75 657.352 393.341C656.307 392.932 655.102 392.727 653.739 392.727H649.011V384H653.739C654.996 384 656.102 383.795 657.057 383.386C658.027 382.977 658.777 382.409 659.307 381.682C659.852 380.955 660.117 380.121 660.102 379.182C660.117 378.273 659.898 377.47 659.443 376.773C658.989 376.076 658.352 375.53 657.534 375.136C656.731 374.742 655.799 374.545 654.739 374.545C653.587 374.545 652.557 374.75 651.648 375.159C650.754 375.568 650.049 376.136 649.534 376.864C649.019 377.591 648.754 378.424 648.739 379.364H636.648C636.663 376.515 637.443 374 638.989 371.818C640.549 369.636 642.686 367.924 645.398 366.682C648.11 365.439 651.223 364.818 654.739 364.818C658.178 364.818 661.216 365.402 663.852 366.568C666.504 367.735 668.572 369.341 670.057 371.386C671.557 373.417 672.299 375.742 672.284 378.364C672.314 380.97 671.42 383.106 669.602 384.773C667.799 386.439 665.511 387.424 662.739 387.727V388.091C666.496 388.5 669.322 389.652 671.216 391.545C673.11 393.424 674.042 395.788 674.011 398.636C674.027 401.364 673.208 403.78 671.557 405.886C669.92 407.992 667.64 409.644 664.716 410.841C661.807 412.038 658.451 412.636 654.648 412.636ZM724.653 388.727C724.653 393.909 723.646 398.28 721.631 401.841C719.616 405.386 716.896 408.076 713.472 409.909C710.047 411.727 706.229 412.636 702.017 412.636C697.775 412.636 693.941 411.72 690.517 409.886C687.108 408.038 684.396 405.341 682.381 401.795C680.381 398.235 679.381 393.879 679.381 388.727C679.381 383.545 680.381 379.182 682.381 375.636C684.396 372.076 687.108 369.386 690.517 367.568C693.941 365.735 697.775 364.818 702.017 364.818C706.229 364.818 710.047 365.735 713.472 367.568C716.896 369.386 719.616 372.076 721.631 375.636C723.646 379.182 724.653 383.545 724.653 388.727ZM711.653 388.727C711.653 385.939 711.282 383.591 710.54 381.682C709.812 379.758 708.729 378.303 707.29 377.318C705.866 376.318 704.108 375.818 702.017 375.818C699.926 375.818 698.161 376.318 696.722 377.318C695.297 378.303 694.214 379.758 693.472 381.682C692.744 383.591 692.381 385.939 692.381 388.727C692.381 391.515 692.744 393.871 693.472 395.795C694.214 397.705 695.297 399.159 696.722 400.159C698.161 401.144 699.926 401.636 702.017 401.636C704.108 401.636 705.866 401.144 707.29 400.159C708.729 399.159 709.812 397.705 710.54 395.795C711.282 393.871 711.653 391.515 711.653 388.727ZM728.955 412V402.273L730.227 402.091C731.773 401.848 733.053 401.182 734.068 400.091C735.098 398.985 735.886 397.235 736.432 394.841C736.992 392.432 737.348 389.152 737.5 385L738.227 365.455H771.955V412H759.773V375.273H749.864L749.136 389.909C748.864 395.333 748.136 399.659 746.955 402.886C745.773 406.114 743.977 408.439 741.568 409.864C739.159 411.288 735.985 412 732.045 412H728.955ZM816.392 412H803.756V375.545H799.301C797.831 375.545 796.566 375.75 795.506 376.159C794.445 376.553 793.627 377.174 793.051 378.023C792.491 378.856 792.21 379.939 792.21 381.273C792.21 382.591 792.491 383.659 793.051 384.477C793.627 385.295 794.445 385.894 795.506 386.273C796.566 386.636 797.831 386.818 799.301 386.818H808.756V396.636H796.756C793.225 396.636 790.127 396.053 787.46 394.886C784.794 393.72 782.718 391.992 781.233 389.705C779.763 387.417 779.028 384.606 779.028 381.273C779.028 377.97 779.748 375.136 781.188 372.773C782.627 370.409 784.642 368.598 787.233 367.341C789.839 366.083 792.862 365.455 796.301 365.455H816.392V412ZM789.119 390.636H802.574L791.21 412H777.483L789.119 390.636ZM870.739 402.455L870.193 423H858.466V412H855.193V402.455H870.739ZM822.375 412V365.455H834.557V402.273H850.83V365.455H863.193V412H822.375ZM875 365.455H887.636V389.818H888L904.545 365.455H915.273V412H902.636V387.545H902.364L885.545 412H875V365.455ZM959.705 412H947.068V375.545H942.614C941.144 375.545 939.879 375.75 938.818 376.159C937.758 376.553 936.939 377.174 936.364 378.023C935.803 378.856 935.523 379.939 935.523 381.273C935.523 382.591 935.803 383.659 936.364 384.477C936.939 385.295 937.758 385.894 938.818 386.273C939.879 386.636 941.144 386.818 942.614 386.818H952.068V396.636H940.068C936.538 396.636 933.439 396.053 930.773 394.886C928.106 393.72 926.03 391.992 924.545 389.705C923.076 387.417 922.341 384.606 922.341 381.273C922.341 377.97 923.061 375.136 924.5 372.773C925.939 370.409 927.955 368.598 930.545 367.341C933.152 366.083 936.174 365.455 939.614 365.455H959.705V412ZM932.432 390.636H945.886L934.523 412H920.795L932.432 390.636Z" fill="white"/>
<path d="M1026.89 201.317C1041.85 180.719 1071.12 175.897 1088.33 194.656C1102.4 209.982 1114.37 227.195 1123.88 245.855C1140.39 278.266 1149 314.125 1149 350.5C1149 386.876 1140.39 422.734 1123.88 455.145C1114.37 473.806 1102.4 491.018 1088.33 506.345C1071.12 525.104 1041.85 520.281 1026.89 499.683C1011.92 479.085 1017.36 450.511 1031.93 429.63C1035.55 424.429 1038.83 418.97 1041.73 413.287C1051.63 393.841 1056.8 372.325 1056.8 350.5C1056.8 328.675 1051.63 307.16 1041.73 287.713C1038.83 282.03 1035.55 276.571 1031.93 271.37C1017.36 250.489 1011.92 221.915 1026.89 201.317Z" fill="white"/>
<path d="M1102.02 63.6012C1117.28 40.9655 1148.26 34.7765 1168.81 52.7475C1203.17 82.7847 1232.17 118.627 1254.41 158.758C1284.67 213.346 1301.58 274.321 1303.76 336.697C1305.94 399.073 1293.32 461.079 1266.94 517.646C1247.55 559.231 1221.13 597.008 1188.95 629.369C1169.7 648.73 1138.37 644.717 1121.56 623.201C1104.75 601.685 1108.94 570.855 1127.37 550.708C1147.67 528.516 1164.54 503.292 1177.33 475.859C1197.12 433.434 1206.58 386.93 1204.94 340.148C1203.31 293.366 1190.63 247.635 1167.93 206.693C1153.26 180.22 1134.67 156.235 1112.87 135.512C1093.08 116.7 1086.75 86.2369 1102.02 63.6012Z" fill="white"/>
<path d="M298.112 201.317C283.147 180.719 253.882 175.897 236.668 194.656C222.604 209.982 210.631 227.195 201.123 245.855C184.609 278.266 176 314.125 176 350.5C176 386.876 184.609 422.734 201.123 455.145C210.631 473.806 222.604 491.018 236.669 506.345C253.883 525.104 283.147 520.281 298.113 499.683C313.078 479.085 307.642 450.511 293.075 429.63C289.446 424.429 286.17 418.97 283.274 413.287C273.365 393.841 268.2 372.325 268.2 350.5C268.2 328.675 273.365 307.16 283.274 287.713C286.169 282.03 289.446 276.571 293.075 271.37C307.642 250.489 313.078 221.915 298.112 201.317Z" fill="white"/>
<path d="M222.984 63.6012C207.716 40.9655 176.741 34.7765 156.185 52.7475C121.828 82.7847 92.833 118.627 70.5879 158.758C40.329 213.346 23.4191 274.321 21.2409 336.697C19.0627 399.073 31.678 461.079 58.0553 517.646C77.4468 559.231 103.871 597.008 136.049 629.369C155.301 648.73 186.633 644.717 203.443 623.201C220.253 601.685 216.061 570.855 197.632 550.708C177.332 528.516 160.459 503.292 147.667 475.859C127.883 433.434 118.422 386.93 120.056 340.148C121.689 293.366 134.372 247.635 157.066 206.693C171.741 180.22 190.332 156.235 212.131 135.512C231.92 116.7 238.252 86.2369 222.984 63.6012Z" fill="white"/>
<path d="M906.442 247.544C901.394 245.874 897.667 242.648 895.262 237.864C892.857 233.08 892.489 228.165 894.159 223.117C895.829 218.069 899.055 214.343 903.839 211.938C908.623 209.532 913.538 209.164 918.586 210.834C920.345 211.416 921.875 212.177 923.176 213.116C925.027 214.288 927.811 213.725 928.499 211.646L938.39 181.749C940.905 174.146 949.107 170.022 956.71 172.537L961.299 174.055C966.367 175.732 969.117 181.2 967.44 186.268C965.763 191.337 960.295 194.087 955.227 192.41C950.158 190.733 944.69 193.483 943.013 198.551L930.869 235.261C929.199 240.309 925.972 244.036 921.189 246.441C916.405 248.846 911.489 249.214 906.442 247.544Z" fill="white"/>
<path d="M815.777 581.684C822.174 584.085 828.505 583.863 834.77 581.018C841.035 578.173 845.369 573.551 847.77 567.155C850.171 560.758 849.949 554.426 847.104 548.161C844.259 541.896 839.637 537.562 833.24 535.161C831.011 534.324 828.867 533.851 826.807 533.741C824.01 533.421 821.679 530.612 822.668 527.976L836.891 490.088C840.507 480.453 835.629 469.71 825.993 466.093L820.178 463.91C813.755 461.499 806.593 464.751 804.181 471.175C801.77 477.598 805.023 484.76 811.446 487.171C817.87 489.582 821.122 496.744 818.711 503.168L801.247 549.691C798.846 556.088 799.068 562.419 801.913 568.684C804.759 574.949 809.38 579.283 815.777 581.684Z" fill="white"/>
<path d="M502.199 538.174C507.358 536.889 511.317 533.952 514.075 529.363C516.834 524.773 517.57 519.899 516.285 514.74C514.999 509.581 512.062 505.623 507.473 502.864C502.884 500.106 498.009 499.37 492.851 500.655C491.053 501.103 489.47 501.746 488.101 502.585C486.168 503.615 483.434 502.844 482.904 500.718L475.291 470.162C473.355 462.392 465.486 457.662 457.715 459.598L453.025 460.767C447.845 462.058 444.692 467.304 445.982 472.484C447.273 477.664 452.519 480.817 457.699 479.527C462.88 478.236 468.126 481.389 469.417 486.569L478.765 524.089C480.05 529.248 482.988 533.207 487.577 535.965C492.166 538.723 497.04 539.46 502.199 538.174Z" fill="white"/>
<path d="M503.902 213C495.971 216.173 488.052 216.066 480.144 212.678C472.236 209.29 466.695 203.63 463.522 195.699C460.348 187.768 460.456 179.849 463.844 171.941C467.232 164.033 472.891 158.492 480.822 155.319C483.586 154.213 486.254 153.564 488.826 153.371C492.313 152.895 495.152 149.321 493.844 146.054L475.048 99.0778C470.268 87.1316 476.077 73.5724 488.023 68.7924L495.234 65.9074C503.198 62.7208 512.237 66.5937 515.424 74.5578C518.61 82.5219 514.738 91.5614 506.773 94.748C498.809 97.9347 494.936 106.974 498.123 114.938L521.203 172.619C524.376 180.551 524.269 188.47 520.881 196.378C517.493 204.286 511.833 209.826 503.902 213Z" fill="white"/>
</g>
<defs>
<clipPath id="clip0_157_64">
<rect width="1324" height="700" fill="white"/>
</clipPath>
</defs>
</svg>
