<svg width="1324" height="700" viewBox="0 0 1324 700" fill="none" xmlns="http://www.w3.org/2000/svg">
<g clip-path="url(#clip0_174_241)">
<rect width="1324" height="700" fill="black"/>
<path d="M378.612 327V257.182H407.453C412.68 257.182 417.192 258.205 420.987 260.25C424.805 262.273 427.749 265.102 429.817 268.739C431.885 272.352 432.919 276.557 432.919 281.352C432.919 286.17 431.862 290.386 429.749 294C427.658 297.591 424.669 300.375 420.783 302.352C416.896 304.33 412.283 305.318 406.942 305.318H389.146V292.023H403.805C406.351 292.023 408.476 291.58 410.18 290.693C411.908 289.807 413.214 288.568 414.101 286.977C414.987 285.364 415.43 283.489 415.43 281.352C415.43 279.193 414.987 277.33 414.101 275.761C413.214 274.17 411.908 272.943 410.18 272.08C408.453 271.216 406.328 270.784 403.805 270.784H395.487V327H378.612ZM441.237 327V257.182H489.919V270.886H458.112V285.205H487.43V298.943H458.112V313.295H489.919V327H441.237ZM526.908 327.955C521.589 327.955 516.874 327.045 512.76 325.227C508.669 323.386 505.442 320.852 503.078 317.625C500.714 314.398 499.51 310.682 499.464 306.477H516.442C516.51 308 516.999 309.352 517.908 310.534C518.817 311.693 520.055 312.602 521.624 313.261C523.192 313.92 524.976 314.25 526.976 314.25C528.976 314.25 530.737 313.898 532.26 313.193C533.805 312.466 535.01 311.477 535.874 310.227C536.737 308.955 537.158 307.5 537.135 305.864C537.158 304.227 536.692 302.773 535.737 301.5C534.783 300.227 533.43 299.239 531.68 298.534C529.953 297.83 527.908 297.477 525.544 297.477H518.76V285.477H525.544C527.612 285.477 529.43 285.136 530.999 284.455C532.589 283.773 533.828 282.818 534.714 281.591C535.601 280.341 536.033 278.909 536.01 277.295C536.033 275.727 535.658 274.352 534.885 273.17C534.135 271.966 533.078 271.034 531.714 270.375C530.374 269.716 528.817 269.386 527.044 269.386C525.18 269.386 523.487 269.716 521.964 270.375C520.464 271.034 519.271 271.966 518.385 273.17C517.499 274.375 517.033 275.773 516.987 277.364H500.862C500.908 273.205 502.067 269.545 504.339 266.386C506.612 263.205 509.703 260.716 513.612 258.92C517.544 257.125 522.021 256.227 527.044 256.227C532.044 256.227 536.442 257.102 540.237 258.852C544.033 260.602 546.987 262.989 549.101 266.011C551.214 269.011 552.271 272.409 552.271 276.205C552.294 280.136 551.01 283.375 548.419 285.92C545.851 288.466 542.544 290.034 538.499 290.625V291.17C543.908 291.807 547.987 293.557 550.737 296.42C553.51 299.284 554.885 302.864 554.862 307.159C554.862 311.205 553.669 314.795 551.283 317.932C548.919 321.045 545.624 323.5 541.396 325.295C537.192 327.068 532.362 327.955 526.908 327.955ZM564.518 327V257.182H613.2V270.886H581.393V285.205H610.712V298.943H581.393V313.295H613.2V327H564.518ZM623.768 327V257.182H652.609C657.837 257.182 662.348 258.205 666.143 260.25C669.962 262.273 672.905 265.102 674.973 268.739C677.041 272.352 678.075 276.557 678.075 281.352C678.075 286.17 677.018 290.386 674.905 294C672.814 297.591 669.825 300.375 665.939 302.352C662.053 304.33 657.439 305.318 652.098 305.318H634.303V292.023H648.962C651.507 292.023 653.632 291.58 655.337 290.693C657.064 289.807 658.371 288.568 659.257 286.977C660.143 285.364 660.587 283.489 660.587 281.352C660.587 279.193 660.143 277.33 659.257 275.761C658.371 274.17 657.064 272.943 655.337 272.08C653.609 271.216 651.484 270.784 648.962 270.784H640.643V327H623.768ZM686.393 327V257.182H715.507C720.734 257.182 725.109 257.92 728.632 259.398C732.178 260.875 734.837 262.943 736.609 265.602C738.405 268.261 739.303 271.341 739.303 274.841C739.303 277.5 738.746 279.875 737.632 281.966C736.518 284.034 734.984 285.75 733.03 287.114C731.075 288.477 728.814 289.432 726.246 289.977V290.659C729.064 290.795 731.666 291.557 734.053 292.943C736.462 294.33 738.393 296.261 739.848 298.739C741.303 301.193 742.03 304.102 742.03 307.466C742.03 311.216 741.075 314.568 739.166 317.523C737.257 320.455 734.496 322.773 730.882 324.477C727.268 326.159 722.882 327 717.723 327H686.393ZM703.268 313.398H713.7C717.359 313.398 720.053 312.705 721.78 311.318C723.53 309.932 724.405 308 724.405 305.523C724.405 303.727 723.984 302.182 723.143 300.886C722.303 299.568 721.109 298.557 719.564 297.852C718.018 297.125 716.166 296.761 714.007 296.761H703.268V313.398ZM703.268 285.886H712.609C714.45 285.886 716.087 285.58 717.518 284.966C718.95 284.352 720.064 283.466 720.859 282.307C721.678 281.148 722.087 279.75 722.087 278.114C722.087 275.773 721.257 273.932 719.598 272.591C717.939 271.25 715.7 270.58 712.882 270.58H703.268V285.886ZM750.143 327V257.182H767.018V285.205H794.53V257.182H811.371V327H794.53V298.943H767.018V327H750.143ZM887.854 292.091C887.854 299.773 886.376 306.284 883.422 311.625C880.467 316.966 876.467 321.023 871.422 323.795C866.399 326.568 860.763 327.955 854.513 327.955C848.24 327.955 842.592 326.557 837.57 323.761C832.547 320.966 828.558 316.909 825.604 311.591C822.672 306.25 821.206 299.75 821.206 292.091C821.206 284.409 822.672 277.898 825.604 272.557C828.558 267.216 832.547 263.159 837.57 260.386C842.592 257.614 848.24 256.227 854.513 256.227C860.763 256.227 866.399 257.614 871.422 260.386C876.467 263.159 880.467 267.216 883.422 272.557C886.376 277.898 887.854 284.409 887.854 292.091ZM870.604 292.091C870.604 287.545 869.956 283.705 868.661 280.568C867.388 277.432 865.547 275.057 863.138 273.443C860.751 271.83 857.876 271.023 854.513 271.023C851.172 271.023 848.297 271.83 845.888 273.443C843.479 275.057 841.626 277.432 840.331 280.568C839.058 283.705 838.422 287.545 838.422 292.091C838.422 296.636 839.058 300.477 840.331 303.614C841.626 306.75 843.479 309.125 845.888 310.739C848.297 312.352 851.172 313.159 854.513 313.159C857.876 313.159 860.751 312.352 863.138 310.739C865.547 309.125 867.388 306.75 868.661 303.614C869.956 300.477 870.604 296.636 870.604 292.091ZM897.706 327V257.182H946.388V270.886H914.581V285.205H943.899V298.943H914.581V313.295H946.388V327H897.706ZM491.398 373.182V443H474.761V386.682H448.852V443H432.216V373.182H491.398ZM504.472 373.182H521.312V413.409H521.892L549.369 373.182H563.892V443H547.017V402.705H546.574L518.756 443H504.472V373.182ZM572.219 386.886V373.182H631.23V386.886H610.06V443H593.423V386.886H572.219ZM645.855 443H627.719L651.276 373.182H673.741L697.298 443H679.162L662.764 390.773H662.219L645.855 443ZM643.435 415.523H681.344V428.341H643.435V415.523ZM704.815 443V373.182H721.69V401.205H749.202V373.182H766.043V443H749.202V414.943H721.69V443H704.815ZM776.628 373.182H793.469V413.409H794.048L821.526 373.182H836.048V443H819.173V402.705H818.73L790.912 443H776.628V373.182ZM846.659 443V373.182H895.341V386.886H863.534V401.205H892.852V414.943H863.534V429.295H895.341V443H846.659Z" fill="white"/>
<path d="M1065 766C1035.4 625.2 968.5 595 926 578C864.172 553.268 831.5 481 874.5 435" stroke="white" stroke-width="15"/>
<path d="M287.001 -67.5C287.001 -67.5 249.001 4.5 318.001 106.5C387.001 208.5 530.5 151 527.001 257.5" stroke="white" stroke-width="15"/>
<path d="M261.988 583.507L249.696 524.929C249.294 523.015 250.335 521.092 252.156 520.381L373.186 473.141C377.249 471.555 380.556 476.692 377.43 479.733L268.692 585.552C266.433 587.752 262.635 586.593 261.988 583.507Z" fill="white"/>
<path d="M328.346 425.33L368.36 442.366C371.889 443.869 371.484 448.997 367.762 449.927L344.102 455.838C342.506 456.236 340.829 455.618 339.875 454.278L323.521 431.332C321.177 428.043 324.63 423.748 328.346 425.33Z" fill="white"/>
<path d="M1092.76 99.6092L1039.3 70.0375C1037.3 68.9294 1034.78 69.7255 1033.77 71.7826L976.015 190.069C974.144 193.902 978.769 197.611 982.104 194.951L1093.32 106.236C1095.55 104.459 1095.26 100.989 1092.76 99.6092Z" fill="white"/>
<path d="M1021.35 200.945L1000.85 215.668C997.429 218.127 999.647 223.526 1003.81 222.868L1054.42 214.866C1058.78 214.177 1058.98 207.973 1054.67 207.011L1024.56 200.29C1023.45 200.041 1022.28 200.28 1021.35 200.945Z" fill="white"/>
<path d="M937.297 197.181L933.258 153.893C933.179 153.049 933.371 152.201 933.805 151.473L954.263 117.16C956.494 113.417 962.253 115.434 961.662 119.751L956.29 158.986C956.264 159.176 956.224 159.365 956.171 159.55L945.123 197.917C943.9 202.164 937.707 201.582 937.297 197.181Z" fill="white"/>
<path d="M394.267 560.765C395.892 557.518 406.365 542.455 427.894 491.755C429.546 487.863 435.387 488.791 435.689 493.009L440.728 563.463C440.9 565.869 438.926 567.88 436.52 567.721C419.426 566.594 392.638 564.021 394.267 560.765Z" fill="white"/>
</g>
<defs>
<clipPath id="clip0_174_241">
<rect width="1324" height="700" fill="white"/>
</clipPath>
</defs>
</svg>
