<svg width="60" height="60" viewBox="0 0 60 60" fill="none" xmlns="http://www.w3.org/2000/svg">
<circle cx="29.6687" cy="29.6687" r="29.1687" stroke="white"/>
<g clip-path="url(#clip0_223_322)">
<path d="M44.0744 16.5057C41.3208 15.2451 38.4137 14.3507 35.4277 13.8455C35.019 14.5759 34.6493 15.3275 34.32 16.097C31.1393 15.6177 27.9046 15.6177 24.7239 16.097C24.3944 15.3276 24.0247 14.576 23.6162 13.8455C20.6282 14.3549 17.7193 15.2514 14.9629 16.5123C9.49064 24.6086 8.0072 32.5038 8.74892 40.2868C11.9536 42.6546 15.5405 44.4553 19.3538 45.6107C20.2125 44.4559 20.9722 43.2307 21.6251 41.9483C20.3851 41.4851 19.1882 40.9137 18.0484 40.2407C18.3484 40.0231 18.6418 39.799 18.9253 39.5814C22.2419 41.1411 25.8618 41.9498 29.5269 41.9498C33.1919 41.9498 36.8119 41.1411 40.1285 39.5814C40.4153 39.8154 40.7087 40.0396 41.0054 40.2407C39.8633 40.9148 38.6643 41.4873 37.422 41.9516C38.0741 43.2334 38.834 44.4576 39.6933 45.6107C43.5099 44.4599 47.0996 42.6601 50.3048 40.2901C51.1751 31.2643 48.8181 23.4416 44.0744 16.5057ZM22.5646 35.5003C20.4977 35.5003 18.7901 33.6246 18.7901 31.317C18.7901 29.0094 20.4384 27.1172 22.558 27.1172C24.6777 27.1172 26.3721 29.0094 26.3358 31.317C26.2996 33.6246 24.6711 35.5003 22.5646 35.5003ZM36.4891 35.5003C34.4189 35.5003 32.7179 33.6246 32.7179 31.317C32.7179 29.0094 34.3662 27.1172 36.4891 27.1172C38.6121 27.1172 40.2933 29.0094 40.2571 31.317C40.2208 33.6246 38.5956 35.5003 36.4891 35.5003Z" fill="white"/>
</g>
<defs>
<clipPath id="clip0_223_322">
<rect width="41.9119" height="31.7653" fill="white" transform="translate(8.57094 13.8455)"/>
</clipPath>
</defs>
</svg>
