<svg width="125" height="125" viewBox="0 0 125 125" fill="none" xmlns="http://www.w3.org/2000/svg">
<circle cx="62.5" cy="62.5" r="62" stroke="white"/>
<g clip-path="url(#clip0_878_259)">
<path d="M92.8473 34.7708C87.0464 32.115 80.9225 30.2309 74.632 29.1666C73.7712 30.7054 72.9923 32.2887 72.2987 33.9097C65.5981 32.9 58.784 32.9 52.0834 33.9097C51.3893 32.2888 50.6105 30.7056 49.75 29.1666C43.4555 30.2399 37.3276 32.1285 31.5209 34.7847C19.9931 51.8402 16.8681 68.4722 18.4306 84.868C25.1816 89.8559 32.7378 93.6493 40.7709 96.0833C42.5797 93.6505 44.1803 91.0696 45.5556 88.368C42.9433 87.3924 40.422 86.1886 38.0209 84.7708C38.6528 84.3125 39.2709 83.8402 39.8681 83.3819C46.8549 86.6676 54.4806 88.3712 62.2014 88.3712C69.9223 88.3712 77.548 86.6676 84.5348 83.3819C85.1389 83.875 85.757 84.3472 86.382 84.7708C83.9762 86.1909 81.4503 87.397 78.8334 88.375C80.207 91.0753 81.8077 93.654 83.6181 96.0833C91.658 93.6591 99.2201 89.8675 105.972 84.875C107.806 65.8611 102.84 49.3819 92.8473 34.7708ZM47.5348 74.7847C43.1806 74.7847 39.5834 70.8333 39.5834 65.9722C39.5834 61.1111 43.0556 57.125 47.5209 57.125C51.9862 57.125 55.5556 61.1111 55.4792 65.9722C55.4028 70.8333 51.9723 74.7847 47.5348 74.7847ZM76.8681 74.7847C72.507 74.7847 68.9237 70.8333 68.9237 65.9722C68.9237 61.1111 72.3959 57.125 76.8681 57.125C81.3403 57.125 84.882 61.1111 84.8056 65.9722C84.7292 70.8333 81.3056 74.7847 76.8681 74.7847Z" fill="white"/>
</g>
<defs>
<clipPath id="clip0_878_259">
<rect width="88.2917" height="66.9167" fill="white" transform="translate(18.0557 29.1666)"/>
</clipPath>
</defs>
</svg>
