<svg width="125" height="105" viewBox="0 0 125 105" fill="none" xmlns="http://www.w3.org/2000/svg">
<path d="M41.6667 78.5417L62.5 99.375M62.5 99.375L83.3333 78.5417M62.5 99.375V52.5M108.75 84.2188C113.278 81.0346 116.674 76.4904 118.444 71.2456C120.215 66.0008 120.268 60.3282 118.596 55.0512C116.924 49.7741 113.614 45.1672 109.146 41.8988C104.678 38.6304 99.2856 36.8707 93.75 36.875H87.1875C85.621 30.7702 82.69 25.1003 78.6152 20.2921C74.5404 15.4839 69.4278 11.6628 63.6625 9.11644C57.8972 6.57005 51.6294 5.36474 45.3309 5.59125C39.0323 5.81776 32.8672 7.47018 27.2997 10.4241C21.7322 13.378 16.9074 17.5565 13.1885 22.645C9.46952 27.7334 6.95338 33.5992 5.82947 39.8008C4.70556 46.0024 5.00316 52.3781 6.69988 58.448C8.3966 64.518 11.4482 70.1239 15.625 74.8438" stroke="white" stroke-width="10" stroke-linecap="round" stroke-linejoin="round"/>
</svg>
