<svg width="1378" height="853" viewBox="0 0 1378 853" fill="none" xmlns="http://www.w3.org/2000/svg">
<path d="M568.453 43.1478C540.878 229.138 651.319 408.948 829.678 468.453C643.687 440.878 463.877 551.319 404.372 729.678C431.947 543.687 321.507 363.877 143.148 304.372C329.138 331.947 508.948 221.507 568.453 43.1478Z" fill="white" stroke="#0051FF" stroke-width="3"/>
<path d="M432.008 356.368C467.62 290.497 520.652 250.162 550.459 266.277C580.265 282.391 575.558 348.852 539.948 414.723C504.336 480.594 451.304 520.929 421.498 504.816C391.691 488.702 396.396 422.239 432.008 356.368ZM537.854 413.591C572.084 350.276 576.605 286.394 547.956 270.905C519.306 255.416 468.332 294.185 434.102 357.5C399.873 420.815 395.349 484.7 423.998 500.189C452.65 515.678 503.625 476.906 537.854 413.591Z" fill="white"/>
<mask id="mask0_477_239" style="mask-type:luminance" maskUnits="userSpaceOnUse" x="363" y="231" width="246" height="307">
<path d="M608.537 231.522H363.273V537.105H608.537V231.522Z" fill="white"/>
<path d="M432.008 356.368C467.62 290.497 520.652 250.162 550.459 266.277C580.266 282.391 575.558 348.852 539.948 414.723C504.336 480.594 451.304 520.929 421.498 504.816C391.691 488.702 396.396 422.239 432.008 356.368ZM537.854 413.591C572.084 350.276 576.605 286.393 547.956 270.904C519.306 255.416 468.332 294.185 434.102 357.5C399.873 420.815 395.349 484.7 423.999 500.189C452.65 515.678 503.625 476.906 537.854 413.591Z" fill="black"/>
</mask>
<g mask="url(#mask0_477_239)">
<path d="M432.008 356.368C467.62 290.497 520.652 250.162 550.459 266.277C580.266 282.391 575.558 348.852 539.948 414.723C504.336 480.594 451.304 520.929 421.498 504.816C391.691 488.702 396.396 422.239 432.008 356.368ZM537.854 413.591C572.084 350.276 576.605 286.393 547.956 270.904C519.306 255.416 468.332 294.185 434.102 357.5C399.873 420.815 395.349 484.7 423.999 500.189C452.65 515.678 503.625 476.906 537.854 413.591Z" stroke="black" stroke-width="2"/>
</g>
<path d="M655.701 284.334C656.204 283.987 656.348 283.307 656.027 282.786C655.708 282.267 655.035 282.088 654.5 282.382L488.781 372.895L343.216 149.522C342.876 149 342.183 148.844 341.652 149.17C341.122 149.499 340.949 150.187 341.261 150.725L475.033 381.352L319.537 488.477C319.033 488.824 318.89 489.504 319.21 490.025C319.53 490.546 320.202 490.723 320.739 490.432L486.457 399.918L632.023 623.289C632.363 623.811 633.056 623.967 633.584 623.641C634.115 623.315 634.289 622.626 633.977 622.086L500.203 391.459L655.701 284.334Z" fill="white" stroke="black" stroke-linejoin="round"/>
<path d="M375.026 325.064C422.387 237.461 509.604 192.84 569.831 225.4C630.06 257.96 640.49 355.374 593.13 442.977C545.77 530.579 458.552 575.202 398.323 542.639C338.096 510.079 327.665 412.668 375.026 325.064ZM588.898 440.688C634.421 356.485 624.395 262.851 566.504 231.554C508.612 200.257 424.779 243.149 379.257 327.351C333.734 411.556 343.761 505.188 401.653 536.485C459.542 567.782 543.377 524.893 588.898 440.688Z" fill="white"/>
<mask id="mask1_477_239" style="mask-type:luminance" maskUnits="userSpaceOnUse" x="286" y="161" width="398" height="444">
<path d="M683.038 161.371H286.099V604.707H683.038V161.371Z" fill="white"/>
<path d="M375.026 325.064C422.387 237.46 509.604 192.84 569.831 225.4C630.06 257.96 640.49 355.374 593.13 442.977C545.77 530.579 458.552 575.201 398.323 542.639C338.096 510.079 327.665 412.668 375.026 325.064ZM588.898 440.688C634.421 356.485 624.395 262.851 566.504 231.554C508.612 200.257 424.779 243.148 379.257 327.351C333.734 411.556 343.761 505.188 401.653 536.485C459.542 567.782 543.377 524.893 588.898 440.688Z" fill="black"/>
</mask>
<g mask="url(#mask1_477_239)">
<path d="M375.026 325.064C422.387 237.46 509.604 192.84 569.831 225.4C630.06 257.96 640.49 355.374 593.13 442.977C545.77 530.579 458.552 575.201 398.323 542.639C338.096 510.079 327.665 412.668 375.026 325.064ZM588.898 440.688C634.421 356.485 624.395 262.851 566.504 231.554C508.612 200.257 424.779 243.148 379.257 327.351C333.734 411.556 343.761 505.188 401.653 536.485C459.542 567.782 543.377 524.893 588.898 440.688Z" stroke="black" stroke-width="2"/>
</g>
<path d="M307.919 372.241C308.232 368.796 307.397 366.1 305.414 364.15C303.431 362.166 300.091 361.177 295.394 361.177C292.401 361.177 289.896 361.523 287.878 362.219C285.895 362.915 284.347 363.873 283.233 365.09C282.155 366.307 281.476 367.717 281.198 369.317C280.885 370.569 280.902 371.717 281.25 372.762C281.633 373.77 282.346 374.693 283.39 375.529C284.469 376.362 285.878 377.111 287.617 377.772C289.392 378.434 291.497 379.024 293.932 379.548L302.283 381.426C307.989 382.677 312.773 384.331 316.635 386.384C320.532 388.402 323.594 390.802 325.82 393.585C328.047 396.368 329.508 399.482 330.204 402.927C330.935 406.371 330.952 410.13 330.257 414.2C329.073 421.229 326.342 427.179 322.063 432.049C317.783 436.92 312.199 440.626 305.31 443.166C298.421 445.705 290.453 446.975 281.407 446.975C272.152 446.975 264.288 445.602 257.817 442.853C251.38 440.07 246.718 435.824 243.83 430.118C240.977 424.377 240.281 417.054 241.742 408.146H269.299C268.881 411.416 269.229 414.165 270.343 416.393C271.456 418.62 273.248 420.308 275.718 421.456C278.188 422.604 281.268 423.178 284.956 423.178C288.087 423.178 290.766 422.795 292.993 422.03C295.22 421.263 296.977 420.202 298.264 418.845C299.551 417.488 300.334 415.94 300.613 414.2C300.891 412.601 300.613 411.173 299.778 409.921C298.942 408.668 297.429 407.538 295.237 406.53C293.045 405.519 290.035 404.598 286.208 403.763L275.979 401.466C266.898 399.379 260.044 395.934 255.416 391.133C250.789 386.331 249.153 379.754 250.51 371.405C251.624 364.584 254.425 358.637 258.913 353.555C263.436 348.441 269.177 344.475 276.136 341.658C283.129 338.803 290.871 337.377 299.36 337.377C307.989 337.377 315.208 338.822 321.019 341.708C326.864 344.597 331.057 348.65 333.597 353.87C336.171 359.087 336.867 365.211 335.684 372.241H307.919ZM346.931 362.219L350.898 338.838H443.795L439.83 362.219H407.681L393.902 445.724H365.302L379.08 362.219H346.931ZM451.245 445.724H419.932L472.957 338.838H512.622L530.157 445.724H498.844L488.404 368.272H487.571L451.245 445.724ZM452.499 403.554H511.368L507.611 425.266H448.739L452.499 403.554ZM540.451 445.724L558.195 338.838H604.331C612.265 338.838 618.961 340.282 624.424 343.171C629.887 346.057 633.819 350.216 636.221 355.642C638.62 361.071 639.195 367.577 637.943 375.161C636.689 382.818 633.924 389.27 629.644 394.524C625.398 399.744 619.988 403.71 613.413 406.424C606.871 409.104 599.53 410.443 591.389 410.443H563.833L567.59 387.897H589.302C592.712 387.897 595.704 387.479 598.278 386.643C600.852 385.775 602.94 384.418 604.54 382.574C606.141 380.696 607.186 378.225 607.672 375.161C608.159 372.1 607.916 369.613 606.942 367.698C605.966 365.751 604.35 364.325 602.088 363.42C599.826 362.481 597.024 362.01 593.685 362.01H583.455L569.468 445.724H540.451ZM611.22 396.665L629.8 445.724H598.278L580.325 396.665H611.22ZM640.056 445.724L657.8 338.838H704.145C712.288 338.838 718.949 339.935 724.134 342.126C729.352 344.319 733.04 347.415 735.198 351.417C737.389 355.417 738.034 360.132 737.13 365.56C736.434 369.457 734.936 373.024 732.64 376.259C730.378 379.46 727.508 382.175 724.029 384.4C720.584 386.593 716.74 388.106 712.494 388.94L712.288 389.984C716.88 390.125 720.88 391.273 724.291 393.429C727.701 395.551 730.206 398.509 731.807 402.302C733.405 406.059 733.788 410.443 732.955 415.453C731.979 421.298 729.595 426.501 725.804 431.057C722.01 435.615 717.087 439.2 711.034 441.809C704.981 444.42 698.091 445.724 690.367 445.724H640.056ZM673.041 422.551H686.61C691.411 422.551 695.187 421.628 697.935 419.784C700.719 417.94 702.37 415.244 702.893 411.696C703.309 409.191 703.102 407.067 702.266 405.329C701.43 403.588 700.023 402.268 698.039 401.363C696.055 400.458 693.568 400.006 690.576 400.006H676.588L673.041 422.551ZM679.721 382.051H691.62C694.123 382.051 696.42 381.651 698.509 380.852C700.597 380.05 702.319 378.886 703.676 377.354C705.031 375.823 705.885 373.979 706.232 371.823C706.753 368.481 705.954 365.942 703.832 364.203C701.745 362.463 698.925 361.592 695.377 361.592H683.06L679.721 382.051ZM819.224 338.838H848.241L836.865 407.31C835.542 415.453 832.444 422.499 827.574 428.448C822.738 434.364 816.579 438.938 809.1 442.174C801.618 445.375 793.303 446.975 784.152 446.975C774.932 446.975 767.138 445.375 760.771 442.174C754.403 438.938 749.776 434.364 746.889 428.448C744.035 422.499 743.27 415.453 744.593 407.31L755.969 338.838H784.988L774.027 404.807C773.506 408.112 773.766 411.051 774.81 413.625C775.853 416.202 777.541 418.237 779.872 419.734C782.202 421.194 785.022 421.924 788.327 421.924C791.668 421.924 794.747 421.194 797.565 419.734C800.417 418.237 802.785 416.202 804.663 413.625C806.541 411.051 807.742 408.112 808.264 404.807L819.224 338.838ZM891.05 338.838L873.306 445.724H844.287L862.033 338.838H891.05ZM887.056 445.724L904.802 338.838H933.819L920.041 422.342H963.254L959.288 445.724H887.056ZM1012.77 445.724H971.018L988.762 338.838H1028.84C1039.84 338.838 1049.03 341.047 1056.4 345.467C1063.78 349.885 1069.01 356.2 1072.11 364.412C1075.21 372.622 1075.81 382.4 1073.94 393.741C1072.13 404.667 1068.46 414.009 1062.92 421.768C1057.43 429.528 1050.4 435.459 1041.84 439.565C1033.32 443.671 1023.63 445.724 1012.77 445.724ZM1004.11 421.089H1014.65C1019.94 421.089 1024.65 420.168 1028.79 418.324C1032.97 416.445 1036.45 413.313 1039.23 408.929C1042.05 404.511 1044.08 398.474 1045.34 390.82C1046.52 383.582 1046.49 377.997 1045.23 374.066C1043.98 370.1 1041.6 367.352 1038.08 365.82C1034.57 364.254 1030.03 363.473 1024.46 363.473H1013.71L1004.11 421.089Z" fill="black"/>
<path d="M537.567 178.754C537.817 177.537 537.057 176.343 535.849 176.056C534.644 175.769 533.427 176.492 533.101 177.691L487.603 345.734C483.162 362.134 466.725 372.247 450.083 368.819L279.572 333.682C278.357 333.432 277.162 334.192 276.875 335.4C276.587 336.606 277.311 337.823 278.509 338.149L446.551 383.646C462.954 388.088 473.067 404.525 469.636 421.167L434.502 591.678C434.252 592.893 435.012 594.087 436.217 594.376C437.425 594.663 438.642 593.94 438.966 592.741L484.466 424.698C488.905 408.298 505.342 398.182 521.986 401.613L692.498 436.75C693.712 437 694.906 436.238 695.193 435.032C695.481 433.824 694.757 432.607 693.561 432.283L525.516 386.786C509.115 382.344 499.002 365.907 502.431 349.265L537.567 178.754Z" fill="black" stroke="white" stroke-width="2" stroke-linejoin="round"/>
<path d="M721 149V149C721.025 181.023 746.98 206.976 779.004 206.997L784 207L779.004 207.003C746.98 207.024 721.025 232.977 721 265V265V265C720.975 232.977 695.02 207.024 662.996 207.003L658 207L662.996 206.997C695.02 206.976 720.975 181.023 721 149V149Z" fill="#0051FF"/>
<mask id="path-14-outside-1_477_239" maskUnits="userSpaceOnUse" x="709" y="197" width="202" height="52" fill="black">
<rect fill="white" x="709" y="197" width="202" height="52"/>
<path d="M735 199C735 199 736.324 211.36 741.482 216.518C746.64 221.676 909 223 909 223C909 223 746.64 224.324 741.482 229.482C736.324 234.64 735 247 735 247C735 247 733.676 234.64 728.518 229.482C723.36 224.324 711 223 711 223C711 223 723.36 221.676 728.518 216.518C733.676 211.36 735 199 735 199Z"/>
</mask>
<path d="M735 199C735 199 736.324 211.36 741.482 216.518C746.64 221.676 909 223 909 223C909 223 746.64 224.324 741.482 229.482C736.324 234.64 735 247 735 247C735 247 733.676 234.64 728.518 229.482C723.36 224.324 711 223 711 223C711 223 723.36 221.676 728.518 216.518C733.676 211.36 735 199 735 199Z" fill="#0051FF"/>
<path d="M735 199C735 199 736.324 211.36 741.482 216.518C746.64 221.676 909 223 909 223C909 223 746.64 224.324 741.482 229.482C736.324 234.64 735 247 735 247C735 247 733.676 234.64 728.518 229.482C723.36 224.324 711 223 711 223C711 223 723.36 221.676 728.518 216.518C733.676 211.36 735 199 735 199Z" stroke="white" stroke-width="4" stroke-linejoin="round" mask="url(#path-14-outside-1_477_239)"/>
<mask id="path-15-outside-2_477_239" maskUnits="userSpaceOnUse" x="681" y="159" width="142" height="52" fill="black">
<rect fill="white" x="681" y="159" width="142" height="52"/>
<path d="M707 161C707 161 708.324 173.36 713.482 178.518C718.64 183.676 821 185 821 185C821 185 718.64 186.324 713.482 191.482C708.324 196.64 707 209 707 209C707 209 705.676 196.64 700.518 191.482C695.36 186.324 683 185 683 185C683 185 695.36 183.676 700.518 178.518C705.676 173.36 707 161 707 161Z"/>
</mask>
<path d="M707 161C707 161 708.324 173.36 713.482 178.518C718.64 183.676 821 185 821 185C821 185 718.64 186.324 713.482 191.482C708.324 196.64 707 209 707 209C707 209 705.676 196.64 700.518 191.482C695.36 186.324 683 185 683 185C683 185 695.36 183.676 700.518 178.518C705.676 173.36 707 161 707 161Z" fill="#0051FF"/>
<path d="M707 161C707 161 708.324 173.36 713.482 178.518C718.64 183.676 821 185 821 185C821 185 718.64 186.324 713.482 191.482C708.324 196.64 707 209 707 209C707 209 705.676 196.64 700.518 191.482C695.36 186.324 683 185 683 185C683 185 695.36 183.676 700.518 178.518C705.676 173.36 707 161 707 161Z" stroke="white" stroke-width="4" stroke-linejoin="round" mask="url(#path-15-outside-2_477_239)"/>
<path d="M188 97C188 97 190.924 142.577 202.315 161.597C213.705 180.617 241 185.5 241 185.5C241 185.5 213.705 190.383 202.315 209.403C190.924 228.423 188 274 188 274C188 274 185.076 228.423 173.685 209.403C162.295 190.383 135 185.5 135 185.5C135 185.5 162.295 180.617 173.685 161.597C185.076 142.577 188 97 188 97Z" fill="#0051FF"/>
<mask id="path-17-outside-3_477_239" maskUnits="userSpaceOnUse" x="94" y="164" width="160" height="131" fill="black">
<rect fill="white" x="94" y="164" width="160" height="131"/>
<path d="M154 166C154 166 156.097 198.702 164.263 212.349C172.43 225.996 252 229.5 252 229.5C252 229.5 172.43 233.004 164.263 246.651C156.097 260.298 154 293 154 293C154 293 151.903 260.298 143.737 246.651C135.57 233.004 96 229.5 96 229.5C96 229.5 135.57 225.996 143.737 212.349C151.903 198.702 154 166 154 166Z"/>
</mask>
<path d="M154 166C154 166 156.097 198.702 164.263 212.349C172.43 225.996 252 229.5 252 229.5C252 229.5 172.43 233.004 164.263 246.651C156.097 260.298 154 293 154 293C154 293 151.903 260.298 143.737 246.651C135.57 233.004 96 229.5 96 229.5C96 229.5 135.57 225.996 143.737 212.349C151.903 198.702 154 166 154 166Z" fill="#0051FF"/>
<path d="M154 166C154 166 156.097 198.702 164.263 212.349C172.43 225.996 252 229.5 252 229.5C252 229.5 172.43 233.004 164.263 246.651C156.097 260.298 154 293 154 293C154 293 151.903 260.298 143.737 246.651C135.57 233.004 96 229.5 96 229.5C96 229.5 135.57 225.996 143.737 212.349C151.903 198.702 154 166 154 166Z" stroke="white" stroke-width="4" stroke-linejoin="round" mask="url(#path-17-outside-3_477_239)"/>
<mask id="path-18-outside-4_477_239" maskUnits="userSpaceOnUse" x="161" y="113" width="161" height="99" fill="black">
<rect fill="white" x="161" y="113" width="161" height="99"/>
<path d="M211.5 115C211.5 115 213.072 139.462 219.198 149.671C225.323 159.879 320 162.5 320 162.5C320 162.5 225.323 165.121 219.198 175.329C213.072 185.538 211.5 210 211.5 210C211.5 210 209.928 185.538 203.802 175.329C197.677 165.121 163 162.5 163 162.5C163 162.5 197.677 159.879 203.802 149.671C209.928 139.462 211.5 115 211.5 115Z"/>
</mask>
<path d="M211.5 115C211.5 115 213.072 139.462 219.198 149.671C225.323 159.879 320 162.5 320 162.5C320 162.5 225.323 165.121 219.198 175.329C213.072 185.538 211.5 210 211.5 210C211.5 210 209.928 185.538 203.802 175.329C197.677 165.121 163 162.5 163 162.5C163 162.5 197.677 159.879 203.802 149.671C209.928 139.462 211.5 115 211.5 115Z" fill="#0051FF"/>
<path d="M211.5 115C211.5 115 213.072 139.462 219.198 149.671C225.323 159.879 320 162.5 320 162.5C320 162.5 225.323 165.121 219.198 175.329C213.072 185.538 211.5 210 211.5 210C211.5 210 209.928 185.538 203.802 175.329C197.677 165.121 163 162.5 163 162.5C163 162.5 197.677 159.879 203.802 149.671C209.928 139.462 211.5 115 211.5 115Z" stroke="white" stroke-width="4" stroke-linejoin="round" mask="url(#path-18-outside-4_477_239)"/>
<path d="M1143.5 154V154C1133.12 211.817 1177.54 264.957 1236.28 264.995L1244 265L1236.31 265.005C1171.03 265.048 1115.13 311.769 1103.5 376V376V376C1113.88 318.184 1069.46 265.043 1010.72 265.005L1003 265L1010.69 264.995C1075.97 264.952 1131.87 218.231 1143.5 154V154Z" fill="#0051FF"/>
<mask id="path-20-outside-5_477_239" maskUnits="userSpaceOnUse" x="1119" y="258" width="206" height="76" fill="black">
<rect fill="white" x="1119" y="258" width="206" height="76"/>
<path d="M1157 260C1157 260 1158.99 278.54 1166.72 286.277C1174.46 294.014 1323 296 1323 296C1323 296 1174.46 297.986 1166.72 305.723C1158.99 313.46 1157 332 1157 332C1157 332 1155.01 313.46 1147.28 305.723C1139.54 297.986 1121 296 1121 296C1121 296 1139.54 294.014 1147.28 286.277C1155.01 278.54 1157 260 1157 260Z"/>
</mask>
<path d="M1157 260C1157 260 1158.99 278.54 1166.72 286.277C1174.46 294.014 1323 296 1323 296C1323 296 1174.46 297.986 1166.72 305.723C1158.99 313.46 1157 332 1157 332C1157 332 1155.01 313.46 1147.28 305.723C1139.54 297.986 1121 296 1121 296C1121 296 1139.54 294.014 1147.28 286.277C1155.01 278.54 1157 260 1157 260Z" fill="#0051FF"/>
<path d="M1157 260C1157 260 1158.99 278.54 1166.72 286.277C1174.46 294.014 1323 296 1323 296C1323 296 1174.46 297.986 1166.72 305.723C1158.99 313.46 1157 332 1157 332C1157 332 1155.01 313.46 1147.28 305.723C1139.54 297.986 1121 296 1121 296C1121 296 1139.54 294.014 1147.28 286.277C1155.01 278.54 1157 260 1157 260Z" stroke="white" stroke-width="4" stroke-linejoin="round" mask="url(#path-20-outside-5_477_239)"/>
<path d="M1046.52 183C1046.52 183 1047.84 195.36 1053 200.518C1058.16 205.676 1110.52 207 1110.52 207C1110.52 207 1058.16 208.324 1053 213.482C1047.84 218.64 1046.52 231 1046.52 231C1046.52 231 1045.19 218.64 1040.04 213.482C1034.88 208.324 1022.52 207 1022.52 207C1022.52 207 1034.88 205.676 1040.04 200.518C1045.19 195.36 1046.52 183 1046.52 183Z" fill="#0051FF"/>
<path d="M794 563V563C832.649 562.972 863.972 531.648 863.999 492.999L864 492V492C864.027 531.2 895.8 562.97 934.999 562.994L944 563L934.999 563.006C895.8 563.03 864.027 594.8 864 634V634L863.999 633.001C863.972 594.352 832.649 563.028 794 563V563Z" fill="#0051FF"/>
<mask id="path-23-outside-6_477_239" maskUnits="userSpaceOnUse" x="815" y="515" width="138" height="58" fill="black">
<rect fill="white" x="815" y="515" width="138" height="58"/>
<path d="M844 517C844 517 845.49 530.905 851.292 536.708C857.095 542.511 951 544 951 544C951 544 857.095 545.49 851.292 551.293C845.49 557.095 844 571 844 571C844 571 842.51 557.095 836.707 551.293C830.905 545.49 817 544 817 544C817 544 830.905 542.511 836.707 536.708C842.51 530.905 844 517 844 517Z"/>
</mask>
<path d="M844 517C844 517 845.49 530.905 851.292 536.708C857.095 542.511 951 544 951 544C951 544 857.095 545.49 851.292 551.293C845.49 557.095 844 571 844 571C844 571 842.51 557.095 836.707 551.293C830.905 545.49 817 544 817 544C817 544 830.905 542.511 836.707 536.708C842.51 530.905 844 517 844 517Z" fill="#0051FF"/>
<path d="M844 517C844 517 845.49 530.905 851.292 536.708C857.095 542.511 951 544 951 544C951 544 857.095 545.49 851.292 551.293C845.49 557.095 844 571 844 571C844 571 842.51 557.095 836.707 551.293C830.905 545.49 817 544 817 544C817 544 830.905 542.511 836.707 536.708C842.51 530.905 844 517 844 517Z" stroke="white" stroke-width="4" stroke-linejoin="round" mask="url(#path-23-outside-6_477_239)"/>
<mask id="path-24-outside-7_477_239" maskUnits="userSpaceOnUse" x="857" y="563" width="101" height="21" fill="black">
<rect fill="white" x="857" y="563" width="101" height="21"/>
<path d="M867.5 565C867.5 565 867.969 569.377 869.796 571.204C871.622 573.031 956 573.5 956 573.5C956 573.5 871.622 573.969 869.796 575.796C867.969 577.623 867.5 582 867.5 582C867.5 582 867.031 577.623 865.204 575.796C863.377 573.969 859 573.5 859 573.5C859 573.5 863.377 573.031 865.204 571.204C867.031 569.377 867.5 565 867.5 565Z"/>
</mask>
<path d="M867.5 565C867.5 565 867.969 569.377 869.796 571.204C871.622 573.031 956 573.5 956 573.5C956 573.5 871.622 573.969 869.796 575.796C867.969 577.623 867.5 582 867.5 582C867.5 582 867.031 577.623 865.204 575.796C863.377 573.969 859 573.5 859 573.5C859 573.5 863.377 573.031 865.204 571.204C867.031 569.377 867.5 565 867.5 565Z" fill="#0051FF"/>
<path d="M867.5 565C867.5 565 867.969 569.377 869.796 571.204C871.622 573.031 956 573.5 956 573.5C956 573.5 871.622 573.969 869.796 575.796C867.969 577.623 867.5 582 867.5 582C867.5 582 867.031 577.623 865.204 575.796C863.377 573.969 859 573.5 859 573.5C859 573.5 863.377 573.031 865.204 571.204C867.031 569.377 867.5 565 867.5 565Z" stroke="white" stroke-width="4" stroke-linejoin="round" mask="url(#path-24-outside-7_477_239)"/>
<path d="M1057.6 506.069C1057.6 506.069 1128.96 508.635 1138.95 518.63C1148.95 528.625 1151.51 573.671 1151.51 573.671C1151.51 573.671 1154.08 528.625 1164.07 518.63C1174.07 508.635 1352.54 506.069 1352.54 506.069C1352.54 506.069 1174.07 503.502 1164.07 493.507C1154.08 483.512 1151.51 438.466 1151.51 438.466C1151.51 438.466 1148.95 483.512 1138.95 493.507C1128.96 503.502 1057.6 506.069 1057.6 506.069Z" fill="#0051FF"/>
<mask id="path-26-outside-8_477_239" maskUnits="userSpaceOnUse" x="1109" y="503" width="167" height="63" fill="black">
<rect fill="white" x="1109" y="503" width="167" height="63"/>
<path d="M1140.48 505C1140.48 505 1142.11 520.192 1148.44 526.532C1154.78 532.872 1274 534.5 1274 534.5C1274 534.5 1154.78 536.128 1148.44 542.468C1142.11 548.808 1140.48 564 1140.48 564C1140.48 564 1138.85 548.808 1132.52 542.468C1126.18 536.128 1111 534.5 1111 534.5C1111 534.5 1126.18 532.872 1132.52 526.532C1138.85 520.192 1140.48 505 1140.48 505Z"/>
</mask>
<path d="M1140.48 505C1140.48 505 1142.11 520.192 1148.44 526.532C1154.78 532.872 1274 534.5 1274 534.5C1274 534.5 1154.78 536.128 1148.44 542.468C1142.11 548.808 1140.48 564 1140.48 564C1140.48 564 1138.85 548.808 1132.52 542.468C1126.18 536.128 1111 534.5 1111 534.5C1111 534.5 1126.18 532.872 1132.52 526.532C1138.85 520.192 1140.48 505 1140.48 505Z" fill="#0051FF"/>
<path d="M1140.48 505C1140.48 505 1142.11 520.192 1148.44 526.532C1154.78 532.872 1274 534.5 1274 534.5C1274 534.5 1154.78 536.128 1148.44 542.468C1142.11 548.808 1140.48 564 1140.48 564C1140.48 564 1138.85 548.808 1132.52 542.468C1126.18 536.128 1111 534.5 1111 534.5C1111 534.5 1126.18 532.872 1132.52 526.532C1138.85 520.192 1140.48 505 1140.48 505Z" stroke="white" stroke-width="4" stroke-linejoin="round" mask="url(#path-26-outside-8_477_239)"/>
<mask id="path-27-outside-9_477_239" maskUnits="userSpaceOnUse" x="1148" y="454" width="148" height="56" fill="black">
<rect fill="white" x="1148" y="454" width="148" height="56"/>
<path d="M1176.04 456C1176.04 456 1177.48 469.39 1183.08 474.978C1188.67 480.565 1294 482 1294 482C1294 482 1188.67 483.435 1183.08 489.022C1177.48 494.61 1176.04 508 1176.04 508C1176.04 508 1174.61 494.61 1169.01 489.022C1163.41 483.435 1150 482 1150 482C1150 482 1163.41 480.565 1169.01 474.978C1174.61 469.39 1176.04 456 1176.04 456Z"/>
</mask>
<path d="M1176.04 456C1176.04 456 1177.48 469.39 1183.08 474.978C1188.67 480.565 1294 482 1294 482C1294 482 1188.67 483.435 1183.08 489.022C1177.48 494.61 1176.04 508 1176.04 508C1176.04 508 1174.61 494.61 1169.01 489.022C1163.41 483.435 1150 482 1150 482C1150 482 1163.41 480.565 1169.01 474.978C1174.61 469.39 1176.04 456 1176.04 456Z" fill="#0051FF"/>
<path d="M1176.04 456C1176.04 456 1177.48 469.39 1183.08 474.978C1188.67 480.565 1294 482 1294 482C1294 482 1188.67 483.435 1183.08 489.022C1177.48 494.61 1176.04 508 1176.04 508C1176.04 508 1174.61 494.61 1169.01 489.022C1163.41 483.435 1150 482 1150 482C1150 482 1163.41 480.565 1169.01 474.978C1174.61 469.39 1176.04 456 1176.04 456Z" stroke="white" stroke-width="4" stroke-linejoin="round" mask="url(#path-27-outside-9_477_239)"/>
<path d="M145.533 522.713C145.533 522.713 146.598 532.655 150.747 536.804C154.896 540.953 224.24 542.018 224.24 542.018C224.24 542.018 154.896 543.083 150.747 547.232C146.598 551.381 145.533 561.323 145.533 561.323C145.533 561.323 144.468 551.381 140.319 547.232C136.17 543.083 126.228 542.018 126.228 542.018C126.228 542.018 136.17 540.953 140.319 536.804C144.468 532.655 145.533 522.713 145.533 522.713Z" fill="#0051FF"/>
<mask id="path-29-inside-10_477_239" fill="white">
<path d="M119.545 395V395C111.772 445.742 151.019 491.489 202.353 491.522L209.389 491.527L202.375 491.532C146.2 491.568 98.4336 532.54 89.8443 588.054V588.054V588.054C97.6173 537.312 58.3703 491.565 7.03669 491.532L0 491.527L7.01417 491.522C63.1889 491.486 110.956 450.514 119.545 395V395Z"/>
</mask>
<path d="M119.545 395V395C111.772 445.742 151.019 491.489 202.353 491.522L209.389 491.527L202.375 491.532C146.2 491.568 98.4336 532.54 89.8443 588.054V588.054V588.054C97.6173 537.312 58.3703 491.565 7.03669 491.532L0 491.527L7.01417 491.522C63.1889 491.486 110.956 450.514 119.545 395V395Z" fill="#0051FF" stroke="#0051FF" stroke-width="2" mask="url(#path-29-inside-10_477_239)"/>
<mask id="path-30-outside-11_477_239" maskUnits="userSpaceOnUse" x="29.1856" y="415.276" width="221" height="103" fill="black">
<rect fill="white" x="29.1856" y="415.276" width="221" height="103"/>
<path d="M80.1916 417.276C80.1916 417.276 81.2568 456.918 85.4058 461.067C89.5549 465.216 248 466.282 248 466.282C248 466.282 89.5549 467.347 85.4058 471.496C81.2568 475.645 80.1916 515.288 80.1916 515.288C80.1916 515.288 79.1264 475.645 74.9774 471.496C70.8284 467.347 31.1856 466.282 31.1856 466.282C31.1856 466.282 70.8284 465.216 74.9774 461.067C79.1264 456.918 80.1916 417.276 80.1916 417.276Z"/>
</mask>
<path d="M80.1916 417.276C80.1916 417.276 81.2568 456.918 85.4058 461.067C89.5549 465.216 248 466.282 248 466.282C248 466.282 89.5549 467.347 85.4058 471.496C81.2568 475.645 80.1916 515.288 80.1916 515.288C80.1916 515.288 79.1264 475.645 74.9774 471.496C70.8284 467.347 31.1856 466.282 31.1856 466.282C31.1856 466.282 70.8284 465.216 74.9774 461.067C79.1264 456.918 80.1916 417.276 80.1916 417.276Z" fill="#0051FF"/>
<path d="M80.1916 417.276C80.1916 417.276 81.2568 456.918 85.4058 461.067C89.5549 465.216 248 466.282 248 466.282C248 466.282 89.5549 467.347 85.4058 471.496C81.2568 475.645 80.1916 515.288 80.1916 515.288C80.1916 515.288 79.1264 475.645 74.9774 471.496C70.8284 467.347 31.1856 466.282 31.1856 466.282C31.1856 466.282 70.8284 465.216 74.9774 461.067C79.1264 456.918 80.1916 417.276 80.1916 417.276Z" stroke="white" stroke-width="4" stroke-linejoin="round" mask="url(#path-30-outside-11_477_239)"/>
</svg>
