<svg width="834" height="477" viewBox="0 0 834 477" fill="none" xmlns="http://www.w3.org/2000/svg">
<path d="M191.008 208.368C226.62 142.497 279.652 102.162 309.459 118.277C339.265 134.391 334.558 200.852 298.948 266.723C263.336 332.594 210.304 372.929 180.498 356.816C150.691 340.702 155.396 274.239 191.008 208.368ZM296.854 265.591C331.084 202.276 335.605 138.394 306.956 122.905C278.306 107.416 227.332 146.185 193.102 209.5C158.873 272.815 154.349 336.7 182.998 352.189C211.65 367.678 262.625 328.906 296.854 265.591Z" fill="white"/>
<mask id="mask0_52_59" style="mask-type:luminance" maskUnits="userSpaceOnUse" x="122" y="83" width="246" height="307">
<path d="M367.537 83.522H122.273V389.105H367.537V83.522Z" fill="white"/>
<path d="M191.008 208.368C226.62 142.497 279.652 102.162 309.459 118.277C339.266 134.391 334.558 200.852 298.948 266.723C263.336 332.594 210.304 372.929 180.498 356.816C150.691 340.702 155.396 274.239 191.008 208.368ZM296.854 265.591C331.084 202.276 335.605 138.393 306.956 122.904C278.306 107.416 227.332 146.185 193.102 209.5C158.873 272.815 154.349 336.7 182.999 352.189C211.65 367.678 262.625 328.906 296.854 265.591Z" fill="black"/>
</mask>
<g mask="url(#mask0_52_59)">
<path d="M191.008 208.368C226.62 142.497 279.652 102.162 309.459 118.277C339.266 134.391 334.558 200.852 298.948 266.723C263.336 332.594 210.304 372.929 180.498 356.816C150.691 340.702 155.396 274.239 191.008 208.368ZM296.854 265.591C331.084 202.276 335.605 138.393 306.956 122.904C278.306 107.416 227.332 146.185 193.102 209.5C158.873 272.815 154.349 336.7 182.999 352.189C211.65 367.678 262.625 328.906 296.854 265.591Z" stroke="black" stroke-width="2"/>
</g>
<path d="M414.701 136.334C415.204 135.987 415.348 135.307 415.027 134.786C414.708 134.267 414.035 134.088 413.5 134.382L247.781 224.895L102.216 1.52154C101.876 1.00027 101.183 0.844118 100.652 1.1702C100.122 1.49858 99.9485 2.18749 100.261 2.72484L234.033 233.352L78.5366 340.477C78.0335 340.824 77.89 341.504 78.2101 342.025C78.5304 342.546 79.2021 342.723 79.7385 342.432L245.457 251.918L391.023 475.289C391.363 475.811 392.056 475.967 392.584 475.641C393.115 475.315 393.289 474.626 392.977 474.086L259.203 243.459L414.701 136.334Z" fill="white" stroke="black" stroke-linejoin="round"/>
<path d="M134.026 177.064C181.387 89.4605 268.604 44.8401 328.831 77.4001C389.06 109.96 399.49 207.374 352.13 294.977C304.77 382.579 217.552 427.202 157.323 394.639C97.0963 362.079 86.6651 264.668 134.026 177.064ZM347.898 292.688C393.421 208.485 383.395 114.851 325.504 83.5543C267.612 52.2573 183.779 95.1486 138.257 179.351C92.7344 263.556 102.761 357.188 160.653 388.485C218.542 419.782 302.377 376.893 347.898 292.688Z" fill="white"/>
<mask id="mask1_52_59" style="mask-type:luminance" maskUnits="userSpaceOnUse" x="45" y="13" width="398" height="444">
<path d="M442.038 13.3707H45.099V456.707H442.038V13.3707Z" fill="white"/>
<path d="M134.026 177.064C181.387 89.4604 268.604 44.8399 328.831 77.3999C389.06 109.96 399.49 207.374 352.13 294.977C304.77 382.579 217.552 427.201 157.323 394.639C97.0963 362.079 86.6651 264.668 134.026 177.064ZM347.898 292.688C393.421 208.485 383.395 114.851 325.504 83.5541C267.612 52.2571 183.779 95.1485 138.257 179.351C92.7344 263.556 102.761 357.188 160.653 388.485C218.542 419.782 302.377 376.893 347.898 292.688Z" fill="black"/>
</mask>
<g mask="url(#mask1_52_59)">
<path d="M134.026 177.064C181.387 89.4604 268.604 44.8399 328.831 77.3999C389.06 109.96 399.49 207.374 352.13 294.977C304.77 382.579 217.552 427.201 157.323 394.639C97.0963 362.079 86.6651 264.668 134.026 177.064ZM347.898 292.688C393.421 208.485 383.395 114.851 325.504 83.5541C267.612 52.2571 183.779 95.1485 138.257 179.351C92.7344 263.556 102.761 357.188 160.653 388.485C218.542 419.782 302.377 376.893 347.898 292.688Z" stroke="black" stroke-width="2"/>
</g>
<path d="M66.9192 224.241C67.2324 220.796 66.3972 218.1 64.4141 216.15C62.431 214.166 59.0907 213.177 54.3937 213.177C51.4013 213.177 48.8962 213.523 46.8782 214.219C44.8951 214.915 43.3469 215.873 42.2334 217.09C41.1548 218.307 40.4764 219.717 40.1981 221.317C39.8849 222.569 39.9023 223.717 40.2502 224.762C40.633 225.77 41.3463 226.693 42.39 227.529C43.4686 228.362 44.8776 229.111 46.6173 229.772C48.3917 230.434 50.4968 231.024 52.9323 231.548L61.2828 233.426C66.9888 234.677 71.773 236.331 75.635 238.384C79.5317 240.402 82.5936 242.802 84.8204 245.585C87.0472 248.368 88.5084 251.482 89.2044 254.927C89.9349 258.371 89.9523 262.13 89.2565 266.2C88.0734 273.229 85.3421 279.179 81.0627 284.049C76.7832 288.92 71.1989 292.626 64.3098 295.166C57.4208 297.705 49.4531 298.975 40.4068 298.975C31.1518 298.975 23.2884 297.602 16.8168 294.853C10.3802 292.07 5.71787 287.824 2.82998 282.118C-0.0230158 276.377 -0.71881 269.054 0.74236 260.146H28.2986C27.8811 263.416 28.229 266.165 29.3425 268.393C30.4558 270.62 32.2477 272.308 34.7181 273.456C37.1885 274.604 40.2677 275.178 43.9556 275.178C47.0872 275.178 49.7661 274.795 51.9929 274.03C54.2196 273.263 55.9768 272.202 57.2641 270.845C58.5515 269.488 59.3343 267.94 59.6126 266.2C59.891 264.601 59.6126 263.173 58.7777 261.921C57.9425 260.668 56.429 259.538 54.2371 258.53C52.045 257.519 49.0354 256.598 45.2083 255.763L34.9789 253.466C25.898 251.379 19.0436 247.934 14.4162 243.133C9.78862 238.331 8.15338 231.754 9.5103 223.405C10.6238 216.584 13.4247 210.637 17.9129 205.555C22.436 200.441 28.1769 196.475 35.1356 193.658C42.1291 190.803 49.8706 189.377 58.36 189.377C66.9888 189.377 74.2085 190.822 80.019 193.708C85.8641 196.597 90.0568 200.65 92.5965 205.87C95.1715 211.087 95.8673 217.211 94.6842 224.241H66.9192ZM105.931 214.219L109.898 190.838H202.795L198.83 214.219H166.681L152.902 297.724H124.302L138.08 214.219H105.931ZM210.245 297.724H178.932L231.957 190.838H271.622L289.157 297.724H257.844L247.404 220.272H246.571L210.245 297.724ZM211.499 255.554H270.368L266.611 277.266H207.739L211.499 255.554ZM299.451 297.724L317.195 190.838H363.331C371.265 190.838 377.961 192.282 383.424 195.171C388.887 198.057 392.819 202.216 395.221 207.642C397.62 213.071 398.195 219.577 396.943 227.161C395.689 234.818 392.924 241.27 388.644 246.524C384.398 251.744 378.988 255.71 372.413 258.424C365.871 261.104 358.53 262.443 350.389 262.443H322.833L326.59 239.897H348.302C351.712 239.897 354.704 239.479 357.278 238.643C359.852 237.775 361.94 236.418 363.54 234.574C365.141 232.696 366.186 230.225 366.672 227.161C367.159 224.1 366.916 221.613 365.942 219.698C364.966 217.751 363.35 216.325 361.088 215.42C358.826 214.481 356.024 214.01 352.685 214.01H342.455L328.468 297.724H299.451ZM370.22 248.665L388.8 297.724H357.278L339.325 248.665H370.22ZM399.056 297.724L416.8 190.838H463.145C471.288 190.838 477.949 191.935 483.134 194.126C488.352 196.319 492.04 199.415 494.198 203.417C496.389 207.417 497.034 212.132 496.13 217.56C495.434 221.457 493.936 225.024 491.64 228.259C489.378 231.46 486.508 234.175 483.029 236.4C479.584 238.593 475.74 240.106 471.494 240.94L471.288 241.984C475.88 242.125 479.88 243.273 483.291 245.429C486.701 247.551 489.206 250.509 490.807 254.302C492.405 258.059 492.788 262.443 491.955 267.453C490.979 273.298 488.595 278.501 484.804 283.057C481.01 287.615 476.087 291.2 470.034 293.809C463.981 296.42 457.091 297.724 449.367 297.724H399.056ZM432.041 274.551H445.61C450.411 274.551 454.187 273.628 456.935 271.784C459.719 269.94 461.37 267.244 461.893 263.696C462.309 261.191 462.102 259.067 461.266 257.329C460.43 255.588 459.023 254.268 457.039 253.363C455.055 252.458 452.568 252.006 449.576 252.006H435.588L432.041 274.551ZM438.721 234.051H450.62C453.123 234.051 455.42 233.651 457.509 232.852C459.597 232.05 461.319 230.886 462.676 229.354C464.031 227.823 464.885 225.979 465.232 223.823C465.753 220.481 464.954 217.942 462.832 216.203C460.745 214.463 457.925 213.592 454.377 213.592H442.06L438.721 234.051ZM578.224 190.838H607.241L595.865 259.31C594.542 267.453 591.444 274.499 586.574 280.448C581.738 286.364 575.579 290.938 568.1 294.174C560.618 297.375 552.303 298.975 543.152 298.975C533.932 298.975 526.138 297.375 519.771 294.174C513.403 290.938 508.776 286.364 505.889 280.448C503.035 274.499 502.27 267.453 503.593 259.31L514.969 190.838H543.988L533.027 256.807C532.506 260.112 532.766 263.051 533.81 265.625C534.853 268.202 536.541 270.237 538.872 271.734C541.202 273.194 544.022 273.924 547.327 273.924C550.668 273.924 553.747 273.194 556.565 271.734C559.417 270.237 561.785 268.202 563.663 265.625C565.541 263.051 566.742 260.112 567.264 256.807L578.224 190.838ZM650.05 190.838L632.306 297.724H603.287L621.033 190.838H650.05ZM646.056 297.724L663.802 190.838H692.819L679.041 274.342H722.254L718.288 297.724H646.056ZM771.77 297.724H730.018L747.762 190.838H787.845C798.84 190.838 808.025 193.047 815.401 197.467C822.777 201.885 828.013 208.2 831.11 216.412C834.206 224.622 834.814 234.4 832.936 245.741C831.126 256.667 827.457 266.009 821.925 273.768C816.427 281.528 809.398 287.459 800.84 291.565C792.316 295.671 782.625 297.724 771.77 297.724ZM763.106 273.089H773.649C778.937 273.089 783.652 272.168 787.792 270.324C791.967 268.445 795.446 265.313 798.231 260.929C801.049 256.511 803.083 250.474 804.337 242.82C805.52 235.582 805.485 229.997 804.232 226.066C802.98 222.1 800.596 219.352 797.083 217.82C793.567 216.254 789.027 215.473 783.461 215.473H772.709L763.106 273.089Z" fill="black"/>
<path d="M296.567 30.7542C296.817 29.5371 296.057 28.343 294.849 28.056C293.644 27.7689 292.427 28.4923 292.101 29.691L246.603 197.734C242.162 214.134 225.725 224.247 209.083 220.819L38.5723 185.682C37.3568 185.432 36.1625 186.192 35.875 187.4C35.5875 188.606 36.3108 189.823 37.5086 190.149L205.551 235.646C221.954 240.088 232.067 256.525 228.636 273.167L193.502 443.678C193.252 444.893 194.012 446.087 195.217 446.376C196.425 446.663 197.642 445.94 197.966 444.741L243.466 276.698C247.905 260.298 264.342 250.182 280.986 253.613L451.498 288.75C452.712 289 453.906 288.238 454.193 287.032C454.481 285.824 453.757 284.607 452.561 284.283L284.516 238.786C268.115 234.344 258.002 217.907 261.431 201.265L296.567 30.7542Z" fill="black" stroke="white" stroke-width="2" stroke-linejoin="round"/>
</svg>
