<svg width="125" height="125" viewBox="0 0 125 125" fill="none" xmlns="http://www.w3.org/2000/svg">
<circle cx="62.5" cy="62.5" r="62" stroke="white"/>
<path d="M37.3334 87.6667C35.6376 87.6667 34.1858 87.0629 32.9782 85.8553C31.7706 84.6476 31.1667 83.1959 31.1667 81.5V44.5C31.1667 42.8042 31.7706 41.3525 32.9782 40.1448C34.1858 38.9372 35.6376 38.3334 37.3334 38.3334H86.6668C88.3626 38.3334 89.8143 38.9372 91.022 40.1448C92.2296 41.3525 92.8334 42.8042 92.8334 44.5V81.5C92.8334 83.1959 92.2296 84.6476 91.022 85.8553C89.8143 87.0629 88.3626 87.6667 86.6668 87.6667H37.3334ZM62.0001 66.0834L37.3334 50.6667V81.5H86.6668V50.6667L62.0001 66.0834ZM62.0001 59.9167L86.6668 44.5H37.3334L62.0001 59.9167ZM37.3334 50.6667V44.5V81.5V50.6667Z" fill="white"/>
</svg>
