<svg width="1282" height="505" viewBox="0 0 1282 505" fill="none" xmlns="http://www.w3.org/2000/svg">
<path d="M1229 -191L1234.66 -0.332748L1282.64 -185.734L1245.74 1.86703L1333.94 -170.164L1256.09 6.17046L1380.65 -144.973L1265.25 12.3894L1420.73 -111.26L1272.83 20.2522L1452.43 -70.5L1278.5 29.4151L1474.37 -24.4731L1282 39.4776L1485.59 24.8086L1283.18 50L1485.59 75.1913L1282 60.5224L1474.37 124.473L1278.5 70.5849L1452.43 170.5L1272.83 79.7478L1420.73 211.26L1265.25 87.6106L1380.65 244.973L1256.09 93.8295L1333.94 270.164L1245.74 98.133L1282.64 285.734L1234.66 100.333L1229 291L1223.34 100.333L1175.36 285.734L1212.26 98.133L1124.06 270.164L1201.91 93.8295L1077.35 244.973L1192.75 87.6106L1037.27 211.26L1185.17 79.7478L1005.57 170.5L1179.5 70.5849L983.627 124.473L1176 60.5224L972.413 75.1913L1174.82 50L972.413 24.8086L1176 39.4776L983.627 -24.4731L1179.5 29.4151L1005.57 -70.5L1185.17 20.2522L1037.27 -111.26L1192.75 12.3894L1077.35 -144.973L1201.91 6.17046L1124.06 -170.164L1212.26 1.86703L1175.36 -185.734L1223.34 -0.332748L1229 -191Z" fill="white" fill-opacity="0.05"/>
<path d="M752 37L752.001 37.9993C752.008 48.4896 760.51 56.9922 771 57C760.51 57.0078 752.008 65.5104 752.001 76.0007L752 77L751.999 76.0007C751.992 65.5104 743.49 57.0078 733 57C743.49 56.9922 751.992 48.4896 751.999 37.9993L752 37Z" fill="white"/>
<path d="M1254 362L1254 362.999C1254.01 373.49 1262.51 381.992 1273 382C1262.51 382.008 1254.01 390.51 1254 401.001L1254 402L1254 401.001C1253.99 390.51 1245.49 382.008 1235 382C1245.49 381.992 1253.99 373.49 1254 362.999L1254 362Z" fill="white"/>
<path d="M1186 41L1186 41.9993C1186.01 52.4896 1194.51 60.9922 1205 61C1194.51 61.0078 1186.01 69.5104 1186 80.0007L1186 81L1186 80.0007C1185.99 69.5104 1177.49 61.0078 1167 61C1177.49 60.9922 1185.99 52.4896 1186 41.9993L1186 41Z" fill="white"/>
<path d="M124.161 457.5C124.681 457.134 125.134 456.681 125.5 456.161C125.866 456.681 126.319 457.134 126.839 457.5C126.319 457.866 125.866 458.319 125.5 458.839C125.134 458.319 124.681 457.866 124.161 457.5Z" stroke="white" stroke-width="2"/>
<path d="M299.161 411.5C299.681 411.134 300.134 410.681 300.5 410.161C300.866 410.681 301.319 411.134 301.839 411.5C301.319 411.866 300.866 412.319 300.5 412.839C300.134 412.319 299.681 411.866 299.161 411.5Z" stroke="white" stroke-width="2"/>
<path d="M369.161 364.5C369.681 364.134 370.134 363.681 370.5 363.161C370.866 363.681 371.319 364.134 371.839 364.5C371.319 364.866 370.866 365.319 370.5 365.839C370.134 365.319 369.681 364.866 369.161 364.5Z" stroke="white" stroke-width="2"/>
<path d="M68.1609 90.5C68.6806 90.1342 69.1342 89.6806 69.5 89.1609C69.8658 89.6806 70.3194 90.1342 70.8391 90.5C70.3194 90.8658 69.8658 91.3194 69.5 91.8391C69.1342 91.3194 68.6806 90.8658 68.1609 90.5Z" stroke="white" stroke-width="2"/>
<path d="M320.839 60.5C320.319 60.8658 319.866 61.3194 319.5 61.8391C319.134 61.3194 318.681 60.8658 318.161 60.5C318.681 60.1342 319.134 59.6806 319.5 59.1609C319.866 59.6806 320.319 60.1342 320.839 60.5Z" stroke="white" stroke-width="2"/>
<path d="M145.839 106.5C145.319 106.866 144.866 107.319 144.5 107.839C144.134 107.319 143.681 106.866 143.161 106.5C143.681 106.134 144.134 105.681 144.5 105.161C144.866 105.681 145.319 106.134 145.839 106.5Z" stroke="white" stroke-width="2"/>
<path d="M80.8391 166.5C80.3194 166.866 79.8658 167.319 79.5 167.839C79.1342 167.319 78.6806 166.866 78.1609 166.5C78.6806 166.134 79.1342 165.681 79.5 165.161C79.8658 165.681 80.3194 166.134 80.8391 166.5Z" stroke="white" stroke-width="2"/>
<path d="M376.839 427.5C376.319 427.866 375.866 428.319 375.5 428.839C375.134 428.319 374.681 427.866 374.161 427.5C374.681 427.134 375.134 426.681 375.5 426.161C375.866 426.681 376.319 427.134 376.839 427.5Z" stroke="white" stroke-width="2"/>
<path d="M328.161 36.5C328.681 36.1342 329.134 35.6806 329.5 35.1609C329.866 35.6806 330.319 36.1342 330.839 36.5C330.319 36.8658 329.866 37.3194 329.5 37.8391C329.134 37.3194 328.681 36.8658 328.161 36.5Z" stroke="white" stroke-width="2"/>
<path d="M193.161 122.5C193.681 122.134 194.134 121.681 194.5 121.161C194.866 121.681 195.319 122.134 195.839 122.5C195.319 122.866 194.866 123.319 194.5 123.839C194.134 123.319 193.681 122.866 193.161 122.5Z" stroke="white" stroke-width="2"/>
<path d="M41.1609 397.5C41.6806 397.134 42.1342 396.681 42.5 396.161C42.8658 396.681 43.3194 397.134 43.8391 397.5C43.3194 397.866 42.8658 398.319 42.5 398.839C42.1342 398.319 41.6806 397.866 41.1609 397.5Z" stroke="white" stroke-width="2"/>
<path d="M59.1609 377.5C59.6806 377.134 60.1342 376.681 60.5 376.161C60.8658 376.681 61.3194 377.134 61.8391 377.5C61.3194 377.866 60.8658 378.319 60.5 378.839C60.1342 378.319 59.6806 377.866 59.1609 377.5Z" stroke="white" stroke-width="2"/>
<path d="M3.1609 381.5C3.68062 381.134 4.13416 380.681 4.5 380.161C4.86584 380.681 5.31938 381.134 5.8391 381.5C5.31938 381.866 4.86584 382.319 4.5 382.839C4.13416 382.319 3.68062 381.866 3.1609 381.5Z" stroke="white" stroke-width="2"/>
<path d="M273.161 485.5C273.681 485.134 274.134 484.681 274.5 484.161C274.866 484.681 275.319 485.134 275.839 485.5C275.319 485.866 274.866 486.319 274.5 486.839C274.134 486.319 273.681 485.866 273.161 485.5Z" stroke="white" stroke-width="2"/>
<path d="M407.161 427.5C407.681 427.134 408.134 426.681 408.5 426.161C408.866 426.681 409.319 427.134 409.839 427.5C409.319 427.866 408.866 428.319 408.5 428.839C408.134 428.319 407.681 427.866 407.161 427.5Z" stroke="white" stroke-width="2"/>
<path d="M420.161 385.5C420.681 385.134 421.134 384.681 421.5 384.161C421.866 384.681 422.319 385.134 422.839 385.5C422.319 385.866 421.866 386.319 421.5 386.839C421.134 386.319 420.681 385.866 420.161 385.5Z" stroke="white" stroke-width="2"/>
<path d="M212.161 464.5C212.681 464.134 213.134 463.681 213.5 463.161C213.866 463.681 214.319 464.134 214.839 464.5C214.319 464.866 213.866 465.319 213.5 465.839C213.134 465.319 212.681 464.866 212.161 464.5Z" stroke="white" stroke-width="2"/>
<path d="M295.161 372.5C295.681 372.134 296.134 371.681 296.5 371.161C296.866 371.681 297.319 372.134 297.839 372.5C297.319 372.866 296.866 373.319 296.5 373.839C296.134 373.319 295.681 372.866 295.161 372.5Z" stroke="white" stroke-width="2"/>
<path d="M369.161 500.5C369.681 500.134 370.134 499.681 370.5 499.161C370.866 499.681 371.319 500.134 371.839 500.5C371.319 500.866 370.866 501.319 370.5 501.839C370.134 501.319 369.681 500.866 369.161 500.5Z" stroke="white" stroke-width="2"/>
<path d="M41.1609 479.5C41.6806 479.134 42.1342 478.681 42.5 478.161C42.8658 478.681 43.3194 479.134 43.8391 479.5C43.3194 479.866 42.8658 480.319 42.5 480.839C42.1342 480.319 41.6806 479.866 41.1609 479.5Z" stroke="white" stroke-width="2"/>
<path d="M317.161 177.5C317.681 177.134 318.134 176.681 318.5 176.161C318.866 176.681 319.319 177.134 319.839 177.5C319.319 177.866 318.866 178.319 318.5 178.839C318.134 178.319 317.681 177.866 317.161 177.5Z" stroke="white" stroke-width="2"/>
<path d="M661.161 75.5C661.681 75.1342 662.134 74.6806 662.5 74.1609C662.866 74.6806 663.319 75.1342 663.839 75.5C663.319 75.8658 662.866 76.3194 662.5 76.8391C662.134 76.3194 661.681 75.8658 661.161 75.5Z" stroke="white" stroke-width="2"/>
<path d="M591.161 45.5C591.681 45.1342 592.134 44.6806 592.5 44.1609C592.866 44.6806 593.319 45.1342 593.839 45.5C593.319 45.8658 592.866 46.3194 592.5 46.8391C592.134 46.3194 591.681 45.8658 591.161 45.5Z" stroke="white" stroke-width="2"/>
<path d="M740.161 129.5C740.681 129.134 741.134 128.681 741.5 128.161C741.866 128.681 742.319 129.134 742.839 129.5C742.319 129.866 741.866 130.319 741.5 130.839C741.134 130.319 740.681 129.866 740.161 129.5Z" stroke="white" stroke-width="2"/>
<path d="M1058.16 134.5C1058.68 134.134 1059.13 133.681 1059.5 133.161C1059.87 133.681 1060.32 134.134 1060.84 134.5C1060.32 134.866 1059.87 135.319 1059.5 135.839C1059.13 135.319 1058.68 134.866 1058.16 134.5Z" stroke="white" stroke-width="2"/>
<path d="M1018.16 56.5C1018.68 56.1342 1019.13 55.6806 1019.5 55.1609C1019.87 55.6806 1020.32 56.1342 1020.84 56.5C1020.32 56.8658 1019.87 57.3194 1019.5 57.8391C1019.13 57.3194 1018.68 56.8658 1018.16 56.5Z" stroke="white" stroke-width="2"/>
<path d="M835.161 38.5C835.681 38.1342 836.134 37.6806 836.5 37.1609C836.866 37.6806 837.319 38.1342 837.839 38.5C837.319 38.8658 836.866 39.3194 836.5 39.8391C836.134 39.3194 835.681 38.8658 835.161 38.5Z" stroke="white" stroke-width="2"/>
<path d="M1184.16 137.5C1184.68 137.134 1185.13 136.681 1185.5 136.161C1185.87 136.681 1186.32 137.134 1186.84 137.5C1186.32 137.866 1185.87 138.319 1185.5 138.839C1185.13 138.319 1184.68 137.866 1184.16 137.5Z" stroke="white" stroke-width="2"/>
<path d="M1218.16 206.5C1218.68 206.134 1219.13 205.681 1219.5 205.161C1219.87 205.681 1220.32 206.134 1220.84 206.5C1220.32 206.866 1219.87 207.319 1219.5 207.839C1219.13 207.319 1218.68 206.866 1218.16 206.5Z" stroke="white" stroke-width="2"/>
<path d="M1099.16 73.5C1099.68 73.1342 1100.13 72.6806 1100.5 72.1609C1100.87 72.6806 1101.32 73.1342 1101.84 73.5C1101.32 73.8658 1100.87 74.3194 1100.5 74.8391C1100.13 74.3194 1099.68 73.8658 1099.16 73.5Z" stroke="white" stroke-width="2"/>
<path d="M1128.16 122.5C1128.68 122.134 1129.13 121.681 1129.5 121.161C1129.87 121.681 1130.32 122.134 1130.84 122.5C1130.32 122.866 1129.87 123.319 1129.5 123.839C1129.13 123.319 1128.68 122.866 1128.16 122.5Z" stroke="white" stroke-width="2"/>
<path d="M1227.16 91.5C1227.68 91.1342 1228.13 90.6806 1228.5 90.1609C1228.87 90.6806 1229.32 91.1342 1229.84 91.5C1229.32 91.8658 1228.87 92.3194 1228.5 92.8391C1228.13 92.3194 1227.68 91.8658 1227.16 91.5Z" stroke="white" stroke-width="2"/>
<path d="M1193.16 352.5C1193.68 352.134 1194.13 351.681 1194.5 351.161C1194.87 351.681 1195.32 352.134 1195.84 352.5C1195.32 352.866 1194.87 353.319 1194.5 353.839C1194.13 353.319 1193.68 352.866 1193.16 352.5Z" stroke="white" stroke-width="2"/>
<path d="M1243.16 304.5C1243.68 304.134 1244.13 303.681 1244.5 303.161C1244.87 303.681 1245.32 304.134 1245.84 304.5C1245.32 304.866 1244.87 305.319 1244.5 305.839C1244.13 305.319 1243.68 304.866 1243.16 304.5Z" stroke="white" stroke-width="2"/>
<path d="M1257.16 248.5C1257.68 248.134 1258.13 247.681 1258.5 247.161C1258.87 247.681 1259.32 248.134 1259.84 248.5C1259.32 248.866 1258.87 249.319 1258.5 249.839C1258.13 249.319 1257.68 248.866 1257.16 248.5Z" stroke="white" stroke-width="2"/>
<path d="M1238.16 471.5C1238.68 471.134 1239.13 470.681 1239.5 470.161C1239.87 470.681 1240.32 471.134 1240.84 471.5C1240.32 471.866 1239.87 472.319 1239.5 472.839C1239.13 472.319 1238.68 471.866 1238.16 471.5Z" stroke="white" stroke-width="2"/>
<path d="M485.161 64.5C485.681 64.1342 486.134 63.6806 486.5 63.1609C486.866 63.6806 487.319 64.1342 487.839 64.5C487.319 64.8658 486.866 65.3194 486.5 65.8391C486.134 65.3194 485.681 64.8658 485.161 64.5Z" stroke="white" stroke-width="2"/>
<path d="M836.161 393.5C836.681 393.134 837.134 392.681 837.5 392.161C837.866 392.681 838.319 393.134 838.839 393.5C838.319 393.866 837.866 394.319 837.5 394.839C837.134 394.319 836.681 393.866 836.161 393.5Z" stroke="white" stroke-width="2"/>
<path d="M607.161 496.5C607.681 496.134 608.134 495.681 608.5 495.161C608.866 495.681 609.319 496.134 609.839 496.5C609.319 496.866 608.866 497.319 608.5 497.839C608.134 497.319 607.681 496.866 607.161 496.5Z" stroke="white" stroke-width="2"/>
<path d="M816.161 446.5C816.681 446.134 817.134 445.681 817.5 445.161C817.866 445.681 818.319 446.134 818.839 446.5C818.319 446.866 817.866 447.319 817.5 447.839C817.134 447.319 816.681 446.866 816.161 446.5Z" stroke="white" stroke-width="2"/>
<path d="M1133.16 484.5C1133.68 484.134 1134.13 483.681 1134.5 483.161C1134.87 483.681 1135.32 484.134 1135.84 484.5C1135.32 484.866 1134.87 485.319 1134.5 485.839C1134.13 485.319 1133.68 484.866 1133.16 484.5Z" stroke="white" stroke-width="2"/>
<path d="M157.161 387.5C157.681 387.134 158.134 386.681 158.5 386.161C158.866 386.681 159.319 387.134 159.839 387.5C159.319 387.866 158.866 388.319 158.5 388.839C158.134 388.319 157.681 387.866 157.161 387.5Z" stroke="white" stroke-width="2"/>
<path d="M167.161 377.5C167.681 377.134 168.134 376.681 168.5 376.161C168.866 376.681 169.319 377.134 169.839 377.5C169.319 377.866 168.866 378.319 168.5 378.839C168.134 378.319 167.681 377.866 167.161 377.5Z" stroke="white" stroke-width="2"/>
<path d="M466.522 459.5C459.865 461.605 454.608 466.86 452.5 473.516C450.392 466.86 445.135 461.605 438.478 459.5C445.135 457.395 450.392 452.14 452.5 445.484C454.608 452.14 459.865 457.395 466.522 459.5Z" stroke="white" stroke-width="2"/>
<path d="M397 109C397.008 117.834 404.169 124.993 413.003 124.998L417 125L413.003 125.002C404.169 125.007 397.008 132.166 397 141C396.992 132.166 389.831 125.007 380.997 125.002L377 125L380.997 124.998C389.831 124.993 396.992 117.834 397 109Z" fill="white"/>
<path d="M234 154C234.006 161.178 239.824 166.994 247.002 166.998L250 167L247.002 167.002C239.824 167.006 234.006 172.822 234 180C233.994 172.822 228.176 167.006 220.998 167.002L218 167L220.998 166.998C228.176 166.994 233.994 161.178 234 154Z" fill="white"/>
<path d="M136.522 59.5C129.865 61.6048 124.608 66.8598 122.5 73.5159C120.392 66.8598 115.135 61.6048 108.478 59.5C115.135 57.3952 120.392 52.1402 122.5 45.4841C124.608 52.1402 129.865 57.3952 136.522 59.5Z" stroke="white" stroke-width="2"/>
<path d="M1020.1 190.449C1019.59 181.337 1013.71 173.321 1005.17 170.103C1014.28 169.593 1022.3 163.711 1025.52 155.172C1026.03 164.283 1031.91 172.299 1040.45 175.518C1031.34 176.027 1023.32 181.91 1020.1 190.449Z" stroke="white"/>
<path d="M591.001 124.938C598.933 123.176 605.176 116.933 606.938 109.001C608.7 116.933 614.944 123.176 622.875 124.938C614.944 126.7 608.7 132.944 606.938 140.875C605.176 132.944 598.933 126.7 591.001 124.938Z" stroke="white"/>
<path d="M547.294 185.5C551.042 184.028 554.028 181.042 555.5 177.294C556.972 181.042 559.958 184.028 563.706 185.5C559.958 186.972 556.972 189.958 555.5 193.706C554.028 189.958 551.042 186.972 547.294 185.5Z" stroke="white" stroke-width="2"/>
<path d="M840.161 149.5C840.681 149.134 841.134 148.681 841.5 148.161C841.866 148.681 842.319 149.134 842.839 149.5C842.319 149.866 841.866 150.319 841.5 150.839C841.134 150.319 840.681 149.866 840.161 149.5Z" stroke="white" stroke-width="2"/>
<path d="M878.161 86.5C878.681 86.1342 879.134 85.6806 879.5 85.1609C879.866 85.6806 880.32 86.1342 880.839 86.5C880.32 86.8658 879.866 87.3194 879.5 87.8391C879.134 87.3194 878.681 86.8658 878.161 86.5Z" stroke="white" stroke-width="2"/>
<path d="M934.161 180.5C934.681 180.134 935.134 179.681 935.5 179.161C935.866 179.681 936.32 180.134 936.839 180.5C936.32 180.866 935.866 181.319 935.5 181.839C935.134 181.319 934.681 180.866 934.161 180.5Z" stroke="white" stroke-width="2"/>
<path d="M1067.16 218.5C1067.68 218.134 1068.13 217.681 1068.5 217.161C1068.87 217.681 1069.32 218.134 1069.84 218.5C1069.32 218.866 1068.87 219.319 1068.5 219.839C1068.13 219.319 1067.68 218.866 1067.16 218.5Z" stroke="white" stroke-width="2"/>
<path d="M1043.16 427.5C1043.68 427.134 1044.13 426.681 1044.5 426.161C1044.87 426.681 1045.32 427.134 1045.84 427.5C1045.32 427.866 1044.87 428.319 1044.5 428.839C1044.13 428.319 1043.68 427.866 1043.16 427.5Z" stroke="white" stroke-width="2"/>
<path d="M921.161 351.5C921.681 351.134 922.134 350.681 922.5 350.161C922.866 350.681 923.319 351.134 923.839 351.5C923.319 351.866 922.866 352.319 922.5 352.839C922.134 352.319 921.681 351.866 921.161 351.5Z" stroke="white" stroke-width="2"/>
<path d="M542.161 140.5C542.681 140.134 543.134 139.681 543.5 139.161C543.866 139.681 544.319 140.134 544.839 140.5C544.319 140.866 543.866 141.319 543.5 141.839C543.134 141.319 542.681 140.866 542.161 140.5Z" stroke="white" stroke-width="2"/>
<path d="M675.161 397.5C675.681 397.134 676.134 396.681 676.5 396.161C676.866 396.681 677.319 397.134 677.839 397.5C677.319 397.866 676.866 398.319 676.5 398.839C676.134 398.319 675.681 397.866 675.161 397.5Z" stroke="white" stroke-width="2"/>
<path d="M642.161 337.5C642.681 337.134 643.134 336.681 643.5 336.161C643.866 336.681 644.319 337.134 644.839 337.5C644.319 337.866 643.866 338.319 643.5 338.839C643.134 338.319 642.681 337.866 642.161 337.5Z" stroke="white" stroke-width="2"/>
<path d="M731.161 175.5C731.681 175.134 732.134 174.681 732.5 174.161C732.866 174.681 733.319 175.134 733.839 175.5C733.319 175.866 732.866 176.319 732.5 176.839C732.134 176.319 731.681 175.866 731.161 175.5Z" stroke="white" stroke-width="2"/>
<path d="M836.161 296.5C836.681 296.134 837.134 295.681 837.5 295.161C837.866 295.681 838.319 296.134 838.839 296.5C838.319 296.866 837.866 297.319 837.5 297.839C837.134 297.319 836.681 296.866 836.161 296.5Z" stroke="white" stroke-width="2"/>
<path d="M559.161 418.5C559.681 418.134 560.134 417.681 560.5 417.161C560.866 417.681 561.319 418.134 561.839 418.5C561.319 418.866 560.866 419.319 560.5 419.839C560.134 419.319 559.681 418.866 559.161 418.5Z" stroke="white" stroke-width="2"/>
<path d="M158.5 387.5L168.5 377.5L300.5 411.5L375.5 427.5L370.5 364L421.5 385.5L409 427.5L274.5 486" stroke="white" stroke-opacity="0.5"/>
<path d="M128.5 64.5L144.5 106.5L194.5 122.5L233.5 167M1068.5 219L1059.5 134.5L1019.5 56.5" stroke="white" stroke-opacity="0.5"/>
<circle cx="14.2876" cy="14.2876" r="13.7876" transform="matrix(1 0 -0.5547 0.83205 489.851 370)" stroke="white"/>
<circle cx="22.8803" cy="22.8803" r="22.3803" transform="matrix(1 0 -0.5547 0.83205 486.383 363)" stroke="white" stroke-opacity="0.42"/>
<circle cx="495.5" cy="381.5" r="11.5" fill="white"/>
<path d="M113 384L115.056 402.036L122.948 397.052L117.964 404.944L136 407L117.964 409.056L122.948 416.948L115.056 411.964L113 430L110.944 411.964L103.052 416.948L108.036 409.056L90 407L108.036 404.944L103.052 397.052L110.944 402.036L113 384Z" fill="white"/>
</svg>
