<svg width="1324" height="700" viewBox="0 0 1324 700" fill="none" xmlns="http://www.w3.org/2000/svg">
<g clip-path="url(#clip0_156_3458)">
<rect width="1324" height="700" fill="black"/>
<path d="M82.2347 150.044L85.4515 163.366L55.4943 170.599L68.6655 225.145L52.262 229.106L35.8739 161.239L82.2347 150.044Z" fill="white"/>
<path d="M88.7319 149.247L104.938 144.668L115.875 183.38L116.433 183.223L131.938 137.04L145.914 133.092L164.896 200.28L148.657 204.868L137.701 166.09L137.275 166.211L121.46 212.552L107.714 216.435L88.7319 149.247Z" fill="white"/>
<path d="M177.322 196.015L159.669 128.465L205.813 116.407L209.278 129.666L179.461 137.458L182.219 148.013L191.125 145.685C196.622 144.249 201.637 143.889 206.171 144.608C210.726 145.32 214.536 147.002 217.602 149.654C220.69 152.3 222.805 155.811 223.949 160.187C225.092 164.563 224.976 168.704 223.601 172.61C222.248 176.511 219.771 179.93 216.169 182.868C212.59 185.8 208.051 187.985 202.554 189.421L177.322 196.015ZM190.27 178.819L199.175 176.492C201.55 175.871 203.445 174.941 204.859 173.703C206.29 172.436 207.239 170.99 207.707 169.364C208.191 167.711 208.206 166.016 207.752 164.279C207.097 161.772 205.606 159.93 203.278 158.753C200.945 157.554 197.997 157.42 194.435 158.351L185.529 160.678L190.27 178.819Z" fill="white"/>
<path d="M277.465 170.363L250.28 146.224L246.535 146.969L252.187 175.39L235.636 178.681L222.018 110.204L238.568 106.913L243.855 133.494L246.496 132.969L262.408 102.171L283.105 98.0553L263.154 135.635L298.095 166.26L277.465 170.363Z" fill="white"/>
<path d="M291.655 93.6046L308.392 91.7316L312.866 131.709L313.442 131.645L336.275 88.6112L350.707 86.9961L358.472 156.381L341.702 158.258L337.22 118.212L336.78 118.262L313.616 161.401L299.42 162.99L291.655 93.6046Z" fill="white"/>
<path d="M369.066 152.894L367.314 83.0977L415.98 81.8759L416.324 95.5761L384.527 96.3744L384.887 110.688L414.196 109.952L414.541 123.687L385.232 124.422L385.592 138.77L417.389 137.972L417.733 151.672L369.066 152.894Z" fill="white"/>
<path d="M516.394 85.4846L507.962 154.792L491.447 152.783L498.249 96.8767L472.529 93.7477L465.728 149.654L449.213 147.644L457.645 78.3373L516.394 85.4846Z" fill="white"/>
<path d="M521.483 153.916L536.26 85.6795L564.447 91.7834C569.556 92.8897 573.749 94.8441 577.026 97.6465C580.329 100.431 582.607 103.82 583.859 107.811C585.115 111.781 585.236 116.109 584.221 120.796C583.201 125.505 581.276 129.402 578.446 132.486C575.642 135.553 572.132 137.642 567.915 138.752C563.698 139.862 558.98 139.851 553.76 138.721L536.368 134.955L539.182 121.961L553.509 125.063C555.996 125.602 558.167 125.618 560.021 125.113C561.896 124.612 563.436 123.678 564.639 122.311C565.846 120.921 566.676 119.183 567.129 117.095C567.586 114.984 567.547 113.069 567.012 111.349C566.483 109.607 565.465 108.13 563.96 106.921C562.455 105.711 560.469 104.839 558.004 104.306L549.874 102.545L537.976 157.488L521.483 153.916Z" fill="white"/>
<path d="M656.402 151.564C654.132 158.903 650.797 164.687 646.396 168.917C641.996 173.146 636.975 175.84 631.336 176.998C625.718 178.163 619.924 177.822 613.953 175.975C607.96 174.122 602.978 171.118 599.005 166.963C595.033 162.808 592.421 157.754 591.17 151.8C589.947 145.831 590.467 139.188 592.73 131.871C595 124.533 598.325 118.745 602.704 114.509C607.104 110.279 612.114 107.582 617.731 106.418C623.349 105.253 629.154 105.597 635.147 107.451C641.118 109.297 646.093 112.287 650.072 116.42C654.073 120.56 656.696 125.618 657.94 131.593C659.185 137.568 658.672 144.226 656.402 151.564ZM639.922 146.467C641.265 142.125 641.782 138.264 641.471 134.885C641.182 131.513 640.125 128.7 638.3 126.446C636.497 124.2 633.989 122.579 630.775 121.585C627.583 120.598 624.598 120.519 621.82 121.349C619.042 122.179 616.57 123.901 614.406 126.514C612.263 129.134 610.521 132.616 609.178 136.958C607.834 141.301 607.307 145.158 607.597 148.531C607.908 151.91 608.975 154.726 610.8 156.979C612.625 159.233 615.133 160.853 618.325 161.84C621.538 162.834 624.523 162.913 627.28 162.076C630.058 161.247 632.519 159.522 634.661 156.901C636.826 154.288 638.579 150.81 639.922 146.467Z" fill="white"/>
<path d="M730.629 163.509L714.139 159.193C714.362 157.442 714.312 155.796 713.987 154.254C713.662 152.713 713.066 151.312 712.198 150.051C711.33 148.79 710.192 147.705 708.786 146.796C707.407 145.871 705.794 145.167 703.947 144.684C700.671 143.826 697.636 143.889 694.841 144.872C692.068 145.862 689.647 147.706 687.578 150.407C685.53 153.113 683.942 156.62 682.814 160.93C681.64 165.415 681.293 169.341 681.774 172.709C682.283 176.061 683.501 178.812 685.429 180.961C687.384 183.094 689.967 184.58 693.177 185.421C694.98 185.893 696.678 186.091 698.272 186.014C699.888 185.944 701.372 185.616 702.723 185.03C704.103 184.428 705.322 183.584 706.381 182.499C707.469 181.398 708.368 180.071 709.08 178.519L725.544 182.934C724.475 185.85 722.835 188.568 720.624 191.091C718.436 193.619 715.774 195.753 712.64 197.493C709.512 199.212 705.961 200.303 701.987 200.766C698.035 201.235 693.739 200.862 689.1 199.647C682.988 198.047 677.864 195.273 673.73 191.324C669.623 187.36 666.849 182.428 665.41 176.53C663.97 170.633 664.22 163.979 666.16 156.57C668.105 149.138 671.172 143.21 675.361 138.786C679.55 134.362 684.414 131.442 689.953 130.026C695.492 128.61 701.263 128.687 707.265 130.258C711.355 131.329 714.987 132.891 718.161 134.943C721.342 136.974 723.966 139.423 726.035 142.29C728.109 145.136 729.559 148.346 730.385 151.922C731.211 155.498 731.292 159.36 730.629 163.509Z" fill="white"/>
<path d="M738.679 156.332L741.078 142.839L799.178 153.171L796.779 166.664L775.935 162.957L766.111 218.204L749.732 215.292L759.556 160.045L738.679 156.332Z" fill="white"/>
<path d="M797.783 226.024L804.179 156.5L832.898 159.142C838.104 159.621 842.502 161.052 846.094 163.437C849.711 165.801 852.383 168.888 854.109 172.699C855.838 176.487 856.482 180.768 856.043 185.543C855.602 190.341 854.163 194.443 851.727 197.848C849.316 201.232 846.085 203.73 842.034 205.343C837.983 206.956 833.298 207.518 827.979 207.029L810.259 205.399L811.477 192.159L826.074 193.502C828.609 193.735 830.766 193.489 832.544 192.762C834.345 192.038 835.76 190.924 836.789 189.421C837.819 187.895 838.432 186.069 838.628 183.941C838.826 181.791 838.555 179.895 837.816 178.252C837.079 176.587 835.89 175.245 834.249 174.227C832.608 173.208 830.532 172.584 828.02 172.353L819.737 171.591L814.587 227.57L797.783 226.024Z" fill="white"/>
<path d="M880.174 234.919L862.037 234.896L885.682 165.108L908.148 165.136L931.617 234.984L913.48 234.961L897.149 182.713L896.603 182.713L880.174 234.919ZM877.788 207.439L915.697 207.487L915.681 220.305L877.772 220.257L877.788 207.439Z" fill="white"/>
<path d="M941.637 237.079L936.837 167.427L953.672 166.266L955.599 194.223L983.045 192.331L981.118 164.375L997.919 163.217L1002.72 232.87L985.919 234.028L983.99 206.037L956.543 207.929L958.472 235.919L941.637 237.079Z" fill="white"/>
<path d="M1075.33 181.296L1058.42 183.461C1057.97 181.754 1057.31 180.246 1056.43 178.938C1055.55 177.63 1054.48 176.554 1053.2 175.709C1051.92 174.864 1050.46 174.284 1048.82 173.967C1047.19 173.625 1045.43 173.576 1043.54 173.818C1040.18 174.248 1037.39 175.442 1035.17 177.4C1032.97 179.354 1031.41 181.971 1030.5 185.249C1029.61 188.525 1029.45 192.372 1030.02 196.79C1030.61 201.389 1031.76 205.16 1033.46 208.104C1035.19 211.022 1037.35 213.117 1039.94 214.389C1042.55 215.635 1045.5 216.048 1048.79 215.626C1050.64 215.39 1052.29 214.938 1053.74 214.271C1055.21 213.601 1056.46 212.742 1057.5 211.693C1058.55 210.619 1059.37 209.38 1059.94 207.977C1060.54 206.549 1060.88 204.982 1060.96 203.276L1077.88 201.213C1077.98 204.316 1077.47 207.451 1076.37 210.617C1075.28 213.78 1073.61 216.755 1071.36 219.542C1069.1 222.305 1066.21 224.645 1062.7 226.562C1059.21 228.475 1055.09 229.736 1050.33 230.345C1044.07 231.148 1038.28 230.491 1032.96 228.376C1027.67 226.236 1023.26 222.7 1019.71 217.769C1016.17 212.838 1013.92 206.574 1012.94 198.977C1011.97 191.357 1012.59 184.712 1014.82 179.042C1017.05 173.372 1020.47 168.845 1025.08 165.459C1029.69 162.074 1035.07 159.987 1041.22 159.199C1045.41 158.662 1049.37 158.752 1053.08 159.468C1056.79 160.161 1060.14 161.451 1063.13 163.336C1066.12 165.199 1068.66 167.634 1070.77 170.641C1072.87 173.648 1074.39 177.2 1075.33 181.296Z" fill="white"/>
<path d="M1079.36 170.367L1077.07 156.855L1135.26 146.994L1137.55 160.506L1116.67 164.044L1126.05 219.368L1109.65 222.148L1100.27 166.823L1079.36 170.367Z" fill="white"/>
<path d="M1158.53 214.746L1144.53 146.347L1173.05 140.507C1178.17 139.458 1182.61 139.304 1186.35 140.044C1190.12 140.781 1193.14 142.273 1195.41 144.523C1197.71 146.768 1199.2 149.604 1199.9 153.033C1200.44 155.638 1200.37 158.077 1199.7 160.349C1199.02 162.598 1197.86 164.587 1196.22 166.315C1194.58 168.043 1192.56 169.432 1190.15 170.481L1190.29 171.149C1193.07 170.717 1195.78 170.941 1198.39 171.821C1201.03 172.696 1203.31 174.201 1205.23 176.336C1207.15 178.449 1208.45 181.153 1209.12 184.448C1209.87 188.122 1209.61 191.597 1208.33 194.875C1207.05 198.13 1204.81 200.955 1201.61 203.35C1198.41 205.722 1194.28 207.426 1189.23 208.461L1158.53 214.746ZM1172.34 198.035L1182.56 195.942C1186.14 195.208 1188.64 193.989 1190.06 192.284C1191.49 190.575 1191.96 188.507 1191.46 186.08C1191.1 184.321 1190.38 182.891 1189.3 181.791C1188.21 180.668 1186.84 179.917 1185.18 179.536C1183.52 179.134 1181.64 179.149 1179.52 179.582L1169 181.737L1172.34 198.035ZM1166.82 171.083L1175.97 169.209C1177.77 168.84 1179.31 168.211 1180.59 167.322C1181.87 166.434 1182.79 165.342 1183.33 164.047C1183.9 162.747 1184.02 161.296 1183.7 159.693C1183.23 157.4 1182.04 155.763 1180.15 154.782C1178.25 153.801 1175.93 153.593 1173.17 154.158L1163.75 156.087L1166.82 171.083Z" fill="white"/>
<path d="M1235.97 199.464L1218.33 203.674L1225.04 130.295L1246.89 125.08L1286.01 187.525L1268.37 191.734L1240.3 144.739L1239.77 144.865L1235.97 199.464ZM1227.24 173.299L1264.12 164.501L1267.09 176.969L1230.22 185.767L1227.24 173.299Z" fill="white"/>
<path d="M82.2347 315.153L85.4515 328.475L55.4943 335.709L68.6655 390.255L52.262 394.216L35.8739 326.348L82.2347 315.153Z" fill="white"/>
<path d="M88.7319 314.356L104.938 309.778L115.875 348.49L116.433 348.332L131.938 302.15L145.914 298.201L164.896 365.39L148.657 369.977L137.701 331.2L137.275 331.32L121.46 377.661L107.714 381.544L88.7319 314.356Z" fill="white"/>
<path d="M177.322 361.124L159.669 293.575L205.813 281.516L209.278 294.775L179.461 302.567L182.219 313.122L191.125 310.795C196.622 309.358 201.637 308.999 206.171 309.717C210.726 310.429 214.536 312.111 217.602 314.763C220.69 317.41 222.805 320.921 223.949 325.296C225.092 329.672 224.976 333.813 223.601 337.72C222.248 341.62 219.771 345.04 216.169 347.977C212.59 350.91 208.051 353.094 202.554 354.53L177.322 361.124ZM190.27 343.928L199.175 341.601C201.55 340.98 203.445 340.051 204.859 338.812C206.29 337.545 207.239 336.099 207.707 334.474C208.191 332.82 208.206 331.125 207.752 329.388C207.097 326.881 205.606 325.039 203.278 323.862C200.945 322.663 197.997 322.529 194.435 323.46L185.529 325.788L190.27 343.928Z" fill="white"/>
<path d="M277.465 335.472L250.28 311.334L246.535 312.079L252.187 340.499L235.636 343.791L222.018 275.314L238.568 272.022L243.855 298.604L246.496 298.078L262.408 267.281L283.105 263.165L263.154 300.744L298.095 331.369L277.465 335.472Z" fill="white"/>
<path d="M291.655 258.714L308.392 256.841L312.866 296.819L313.442 296.754L336.275 253.721L350.707 252.105L358.472 321.49L341.702 323.367L337.22 283.322L336.78 283.371L313.616 326.51L299.42 328.099L291.655 258.714Z" fill="white"/>
<path d="M369.066 318.003L367.314 248.207L415.98 246.985L416.324 260.685L384.527 261.484L384.887 275.797L414.196 275.062L414.541 288.796L385.232 289.532L385.592 303.879L417.389 303.081L417.733 316.781L369.066 318.003Z" fill="white"/>
<path d="M516.394 250.594L507.962 319.901L491.447 317.892L498.249 261.986L472.529 258.857L465.728 314.763L449.213 312.754L457.645 243.447L516.394 250.594Z" fill="white"/>
<path d="M521.483 319.025L536.26 250.789L564.447 256.893C569.556 257.999 573.749 259.953 577.026 262.756C580.329 265.541 582.607 268.929 583.859 272.921C585.115 276.89 585.236 281.219 584.221 285.905C583.201 290.614 581.276 294.511 578.446 297.596C575.642 300.663 572.132 302.751 567.915 303.861C563.698 304.971 558.98 304.961 553.76 303.831L536.368 300.064L539.182 287.07L553.509 290.172C555.996 290.711 558.167 290.728 560.021 290.222C561.896 289.722 563.436 288.788 564.639 287.42C565.846 286.031 566.676 284.292 567.129 282.204C567.586 280.094 567.547 278.179 567.012 276.458C566.483 274.716 565.465 273.24 563.96 272.03C562.455 270.821 560.469 269.949 558.004 269.415L549.874 267.654L537.976 322.597L521.483 319.025Z" fill="white"/>
<path d="M656.402 316.674C654.132 324.013 650.797 329.797 646.396 334.026C641.996 338.256 636.975 340.949 631.336 342.107C625.718 343.272 619.924 342.931 613.953 341.084C607.96 339.231 602.978 336.227 599.005 332.072C595.033 327.917 592.421 322.863 591.17 316.909C589.947 310.941 590.467 304.298 592.73 296.981C595 289.642 598.325 283.854 602.704 279.618C607.104 275.389 612.114 272.692 617.731 271.527C623.349 270.362 629.154 270.706 635.147 272.56C641.118 274.407 646.093 277.397 650.072 281.53C654.073 285.669 656.696 290.727 657.94 296.702C659.185 302.678 658.672 309.335 656.402 316.674ZM639.922 311.577C641.265 307.234 641.782 303.373 641.471 299.994C641.182 296.622 640.125 293.809 638.3 291.556C636.497 289.309 633.989 287.689 630.775 286.695C627.583 285.708 624.598 285.629 621.82 286.459C619.042 287.288 616.57 289.01 614.406 291.624C612.263 294.244 610.521 297.725 609.178 302.068C607.834 306.41 607.307 310.268 607.597 313.64C607.908 317.019 608.975 319.835 610.8 322.089C612.625 324.342 615.133 325.962 618.325 326.95C621.538 327.944 624.523 328.022 627.28 327.186C630.058 326.356 632.519 324.631 634.661 322.011C636.826 319.397 638.579 315.919 639.922 311.577Z" fill="white"/>
<path d="M730.629 328.619L714.139 324.302C714.362 322.551 714.312 320.905 713.987 319.364C713.662 317.822 713.066 316.421 712.198 315.16C711.33 313.899 710.192 312.814 708.786 311.906C707.407 310.981 705.794 310.277 703.947 309.793C700.671 308.936 697.636 308.998 694.841 309.982C692.068 310.971 689.647 312.816 687.578 315.516C685.53 318.222 683.942 321.73 682.814 326.039C681.64 330.524 681.293 334.451 681.774 337.819C682.283 341.171 683.501 343.921 685.429 346.07C687.384 348.203 689.967 349.69 693.177 350.53C694.98 351.002 696.678 351.2 698.272 351.124C699.888 351.054 701.372 350.725 702.723 350.14C704.103 349.537 705.322 348.694 706.381 347.608C707.469 346.507 708.368 345.18 709.08 343.628L725.544 348.044C724.475 350.959 722.835 353.678 720.624 356.2C718.436 358.728 715.774 360.862 712.64 362.603C709.512 364.321 705.961 365.412 701.987 365.875C698.035 366.344 693.739 365.971 689.1 364.757C682.988 363.157 677.864 360.382 673.73 356.434C669.623 352.469 666.849 347.538 665.41 341.64C663.97 335.742 664.22 329.088 666.16 321.679C668.105 314.248 671.172 308.32 675.361 303.896C679.55 299.471 684.414 296.551 689.953 295.135C695.492 293.719 701.263 293.797 707.265 295.368C711.355 296.438 714.987 298 718.161 300.053C721.342 302.083 723.966 304.532 726.035 307.4C728.109 310.245 729.559 313.456 730.385 317.031C731.211 320.607 731.292 324.47 730.629 328.619Z" fill="white"/>
<path d="M738.679 321.442L741.078 307.949L799.178 318.281L796.779 331.773L775.935 328.067L766.111 383.314L749.732 380.401L759.556 325.154L738.679 321.442Z" fill="white"/>
<path d="M797.783 391.134L804.179 321.609L832.898 324.251C838.104 324.73 842.502 326.162 846.094 328.546C849.711 330.91 852.383 333.997 854.109 337.808C855.838 341.596 856.482 345.878 856.043 350.653C855.602 355.451 854.163 359.552 851.727 362.957C849.316 366.341 846.085 368.84 842.034 370.453C837.983 372.066 833.298 372.627 827.979 372.138L810.259 370.508L811.477 357.268L826.074 358.611C828.609 358.845 830.766 358.598 832.544 357.871C834.345 357.147 835.76 356.033 836.789 354.53C837.819 353.005 838.432 351.178 838.628 349.051C838.826 346.901 838.555 345.004 837.816 343.362C837.079 341.696 835.89 340.354 834.249 339.336C832.608 338.318 830.532 337.693 828.02 337.462L819.737 336.7L814.587 392.68L797.783 391.134Z" fill="white"/>
<path d="M880.174 400.029L862.037 400.006L885.682 330.217L908.148 330.246L931.617 400.094L913.48 400.071L897.149 347.823L896.603 347.822L880.174 400.029ZM877.788 372.548L915.697 372.596L915.681 385.414L877.772 385.366L877.788 372.548Z" fill="white"/>
<path d="M941.637 402.189L936.837 332.536L953.672 331.376L955.599 359.332L983.045 357.441L981.118 329.484L997.919 328.326L1002.72 397.979L985.919 399.137L983.99 371.147L956.543 373.038L958.472 401.029L941.637 402.189Z" fill="white"/>
<path d="M1075.33 346.405L1058.42 348.57C1057.97 346.863 1057.31 345.356 1056.43 344.048C1055.55 342.739 1054.48 341.663 1053.2 340.818C1051.92 339.974 1050.46 339.393 1048.82 339.077C1047.19 338.735 1045.43 338.685 1043.54 338.928C1040.18 339.358 1037.39 340.552 1035.17 342.509C1032.97 344.464 1031.41 347.08 1030.5 350.358C1029.61 353.634 1029.45 357.481 1030.02 361.899C1030.61 366.498 1031.76 370.269 1033.46 373.213C1035.19 376.131 1037.35 378.226 1039.94 379.498C1042.55 380.745 1045.5 381.157 1048.79 380.736C1050.64 380.499 1052.29 380.047 1053.74 379.38C1055.21 378.711 1056.46 377.851 1057.5 376.802C1058.55 375.728 1059.37 374.489 1059.94 373.087C1060.54 371.658 1060.88 370.091 1060.96 368.386L1077.88 366.322C1077.98 369.425 1077.47 372.56 1076.37 375.726C1075.28 378.89 1073.61 381.865 1071.36 384.651C1069.1 387.415 1066.21 389.755 1062.7 391.671C1059.21 393.584 1055.09 394.845 1050.33 395.455C1044.07 396.257 1038.28 395.601 1032.96 393.486C1027.67 391.345 1023.26 387.809 1019.71 382.878C1016.17 377.947 1013.92 371.683 1012.94 364.086C1011.97 356.467 1012.59 349.822 1014.82 344.152C1017.05 338.482 1020.47 333.954 1025.08 330.569C1029.69 327.183 1035.07 325.096 1041.22 324.308C1045.41 323.771 1049.37 323.861 1053.08 324.577C1056.79 325.271 1060.14 326.56 1063.13 328.445C1066.12 330.308 1068.66 332.743 1070.77 335.75C1072.87 338.758 1074.39 342.309 1075.33 346.405Z" fill="white"/>
<path d="M1079.36 335.476L1077.07 321.964L1135.26 312.104L1137.55 325.615L1116.67 329.153L1126.05 384.478L1109.65 387.257L1100.27 331.933L1079.36 335.476Z" fill="white"/>
<path d="M1158.53 379.855L1144.53 311.456L1173.05 305.616C1178.17 304.567 1182.61 304.413 1186.35 305.154C1190.12 305.89 1193.14 307.383 1195.41 309.632C1197.71 311.877 1199.2 314.714 1199.9 318.143C1200.44 320.748 1200.37 323.186 1199.7 325.458C1199.02 327.707 1197.86 329.696 1196.22 331.424C1194.58 333.152 1192.56 334.541 1190.15 335.591L1190.29 336.258C1193.07 335.827 1195.78 336.051 1198.39 336.93C1201.03 337.805 1203.31 339.31 1205.23 341.445C1207.15 343.558 1208.45 346.262 1209.12 349.557C1209.87 353.231 1209.61 356.707 1208.33 359.984C1207.05 363.239 1204.81 366.064 1201.61 368.459C1198.41 370.832 1194.28 372.535 1189.23 373.57L1158.53 379.855ZM1172.34 363.144L1182.56 361.052C1186.14 360.318 1188.64 359.098 1190.06 357.393C1191.49 355.684 1191.96 353.616 1191.46 351.189C1191.1 349.43 1190.38 348.001 1189.3 346.9C1188.21 345.777 1186.84 345.026 1185.18 344.646C1183.52 344.243 1181.64 344.259 1179.52 344.692L1169 346.846L1172.34 363.144ZM1166.82 336.192L1175.97 334.318C1177.77 333.949 1179.31 333.32 1180.59 332.432C1181.87 331.543 1182.79 330.452 1183.33 329.156C1183.9 327.857 1184.02 326.405 1183.7 324.802C1183.23 322.509 1182.04 320.872 1180.15 319.891C1178.25 318.91 1175.93 318.703 1173.17 319.268L1163.75 321.196L1166.82 336.192Z" fill="white"/>
<path d="M1235.97 364.574L1218.33 368.783L1225.04 295.404L1246.89 290.19L1286.01 352.634L1268.37 356.843L1240.3 309.848L1239.77 309.975L1235.97 364.574ZM1227.24 338.409L1264.12 329.61L1267.09 342.078L1230.22 350.877L1227.24 338.409Z" fill="white"/>
<path d="M82.2347 490.265L85.4515 503.586L55.4943 510.82L68.6655 565.366L52.262 569.327L35.8739 501.459L82.2347 490.265Z" fill="white"/>
<path d="M88.7319 489.467L104.938 484.888L115.875 523.6L116.433 523.442L131.938 477.26L145.914 473.312L164.896 540.5L148.657 545.088L137.701 506.31L137.275 506.431L121.46 552.771L107.714 556.655L88.7319 489.467Z" fill="white"/>
<path d="M177.322 536.235L159.669 468.685L205.813 456.626L209.278 469.886L179.461 477.678L182.219 488.232L191.125 485.905C196.622 484.468 201.637 484.109 206.171 484.827C210.726 485.54 214.536 487.222 217.602 489.874C220.69 492.52 222.805 496.031 223.949 500.407C225.092 504.782 224.976 508.924 223.601 512.83C222.248 516.731 219.771 520.15 216.169 523.088C212.59 526.02 208.051 528.204 202.554 529.641L177.322 536.235ZM190.27 519.039L199.175 516.711C201.55 516.091 203.445 515.161 204.859 513.922C206.29 512.656 207.239 511.21 207.707 509.584C208.191 507.931 208.206 506.235 207.752 504.498C207.097 501.992 205.606 500.15 203.278 498.973C200.945 497.774 197.997 497.64 194.435 498.571L185.529 500.898L190.27 519.039Z" fill="white"/>
<path d="M277.465 510.582L250.28 486.444L246.535 487.189L252.187 515.61L235.636 518.901L222.018 450.424L238.568 447.132L243.855 473.714L246.496 473.189L262.408 442.391L283.105 438.275L263.154 475.854L298.095 506.479L277.465 510.582Z" fill="white"/>
<path d="M291.655 433.824L308.392 431.951L312.866 471.929L313.442 471.865L336.275 428.831L350.707 427.216L358.472 496.601L341.702 498.478L337.22 458.432L336.78 458.481L313.616 501.621L299.42 503.209L291.655 433.824Z" fill="white"/>
<path d="M369.066 493.114L367.314 423.317L415.98 422.096L416.324 435.796L384.527 436.594L384.887 450.908L414.196 450.172L414.541 463.906L385.232 464.642L385.592 478.99L417.389 478.192L417.733 491.892L369.066 493.114Z" fill="white"/>
<path d="M516.394 425.704L507.962 495.012L491.447 493.002L498.249 437.096L472.529 433.967L465.728 489.873L449.213 487.864L457.645 418.557L516.394 425.704Z" fill="white"/>
<path d="M521.483 494.136L536.26 425.899L564.447 432.003C569.556 433.109 573.749 435.064 577.026 437.866C580.329 440.651 582.607 444.04 583.859 448.031C585.115 452.001 585.236 456.329 584.221 461.016C583.201 465.725 581.276 469.621 578.446 472.706C575.642 475.773 572.132 477.861 567.915 478.971C563.698 480.081 558.98 480.071 553.76 478.941L536.368 475.175L539.182 462.18L553.509 465.283C555.996 465.822 558.167 465.838 560.021 465.333C561.896 464.832 563.436 463.898 564.639 462.531C565.846 461.141 566.676 459.402 567.129 457.314C567.586 455.204 567.547 453.289 567.012 451.569C566.483 449.826 565.465 448.35 563.96 447.141C562.455 445.931 560.469 445.059 558.004 444.525L549.874 442.765L537.976 497.707L521.483 494.136Z" fill="white"/>
<path d="M656.402 491.784C654.132 499.123 650.797 504.907 646.396 509.136C641.996 513.366 636.975 516.06 631.336 517.218C625.718 518.383 619.924 518.042 613.953 516.195C607.96 514.341 602.978 511.337 599.005 507.183C595.033 503.028 592.421 497.974 591.17 492.02C589.947 486.051 590.467 479.408 592.73 472.091C595 464.752 598.325 458.965 602.704 454.729C607.104 450.499 612.114 447.802 617.731 446.637C623.349 445.472 629.154 445.817 635.147 447.67C641.118 449.517 646.093 452.507 650.072 456.64C654.073 460.78 656.696 465.837 657.94 471.813C659.185 477.788 658.672 484.445 656.402 491.784ZM639.922 486.687C641.265 482.345 641.782 478.484 641.471 475.105C641.182 471.732 640.125 468.919 638.3 466.666C636.497 464.419 633.989 462.799 630.775 461.805C627.583 460.818 624.598 460.739 621.82 461.569C619.042 462.399 616.57 464.12 614.406 466.734C612.263 469.354 610.521 472.836 609.178 477.178C607.834 481.521 607.307 485.378 607.597 488.75C607.908 492.129 608.975 494.946 610.8 497.199C612.625 499.453 615.133 501.073 618.325 502.06C621.538 503.054 624.523 503.133 627.28 502.296C630.058 501.466 632.519 499.741 634.661 497.121C636.826 494.508 638.579 491.03 639.922 486.687Z" fill="white"/>
<path d="M730.629 503.729L714.139 499.412C714.362 497.662 714.312 496.016 713.987 494.474C713.662 492.933 713.066 491.531 712.198 490.27C711.33 489.009 710.192 487.925 708.786 487.016C707.407 486.091 705.794 485.387 703.947 484.904C700.671 484.046 697.636 484.109 694.841 485.092C692.068 486.081 689.647 487.926 687.578 490.626C685.53 493.332 683.942 496.84 682.814 501.149C681.64 505.635 681.293 509.561 681.774 512.929C682.283 516.281 683.501 519.031 685.429 521.18C687.384 523.313 689.967 524.8 693.177 525.64C694.98 526.112 696.678 526.31 698.272 526.234C699.888 526.164 701.372 525.836 702.723 525.25C704.103 524.648 705.322 523.804 706.381 522.719C707.469 521.617 708.368 520.29 709.08 518.738L725.544 523.154C724.475 526.069 722.835 528.788 720.624 531.31C718.436 533.839 715.774 535.973 712.64 537.713C709.512 539.431 705.961 540.522 701.987 540.985C698.035 541.454 693.739 541.082 689.1 539.867C682.988 538.267 677.864 535.493 673.73 531.544C669.623 527.579 666.849 522.648 665.41 516.75C663.97 510.852 664.22 504.199 666.16 496.789C668.105 489.358 671.172 483.43 675.361 479.006C679.55 474.582 684.414 471.661 689.953 470.245C695.492 468.829 701.263 468.907 707.265 470.478C711.355 471.549 714.987 473.11 718.161 475.163C721.342 477.194 723.966 479.643 726.035 482.51C728.109 485.356 729.559 488.566 730.385 492.142C731.211 495.718 731.292 499.58 730.629 503.729Z" fill="white"/>
<path d="M738.679 496.552L741.078 483.059L799.178 493.391L796.779 506.884L775.935 503.177L766.111 558.424L749.732 555.511L759.556 500.265L738.679 496.552Z" fill="white"/>
<path d="M797.783 566.244L804.179 496.719L832.898 499.361C838.104 499.84 842.502 501.272 846.094 503.657C849.711 506.021 852.383 509.108 854.109 512.918C855.838 516.706 856.482 520.988 856.043 525.763C855.602 530.561 854.163 534.662 851.727 538.067C849.316 541.452 846.085 543.95 842.034 545.563C837.983 547.176 833.298 547.738 827.979 547.249L810.259 545.618L811.477 532.379L826.074 533.722C828.609 533.955 830.766 533.708 832.544 532.982C834.345 532.257 835.76 531.144 836.789 529.641C837.819 528.115 838.432 526.288 838.628 524.161C838.826 522.011 838.555 520.115 837.816 518.472C837.079 516.806 835.89 515.465 834.249 514.446C832.608 513.428 830.532 512.803 828.02 512.572L819.737 511.81L814.587 567.79L797.783 566.244Z" fill="white"/>
<path d="M880.174 575.139L862.037 575.116L885.682 505.328L908.148 505.356L931.617 575.204L913.48 575.181L897.149 522.933L896.603 522.932L880.174 575.139ZM877.788 547.659L915.697 547.707L915.681 560.525L877.772 560.477L877.788 547.659Z" fill="white"/>
<path d="M941.637 577.299L936.837 507.646L953.672 506.486L955.599 534.442L983.045 532.551L981.118 504.594L997.919 503.437L1002.72 573.09L985.919 574.247L983.99 546.257L956.543 548.149L958.472 576.139L941.637 577.299Z" fill="white"/>
<path d="M1075.33 521.515L1058.42 523.681C1057.97 521.974 1057.31 520.466 1056.43 519.158C1055.55 517.85 1054.48 516.773 1053.2 515.929C1051.92 515.084 1050.46 514.503 1048.82 514.187C1047.19 513.845 1045.43 513.795 1043.54 514.038C1040.18 514.468 1037.39 515.662 1035.17 517.619C1032.97 519.574 1031.41 522.19 1030.5 525.469C1029.61 528.744 1029.45 532.591 1030.02 537.01C1030.61 541.609 1031.76 545.38 1033.46 548.323C1035.19 551.241 1037.35 553.336 1039.94 554.608C1042.55 555.855 1045.5 556.268 1048.79 555.846C1050.64 555.609 1052.29 555.158 1053.74 554.491C1055.21 553.821 1056.46 552.962 1057.5 551.913C1058.55 550.838 1059.37 549.6 1059.94 548.197C1060.54 546.769 1060.88 545.202 1060.96 543.496L1077.88 541.432C1077.98 544.536 1077.47 547.671 1076.37 550.837C1075.28 554 1073.61 556.975 1071.36 559.761C1069.1 562.525 1066.21 564.865 1062.7 566.781C1059.21 568.695 1055.09 569.956 1050.33 570.565C1044.07 571.368 1038.28 570.711 1032.96 568.596C1027.67 566.455 1023.26 562.92 1019.71 557.989C1016.17 553.058 1013.92 546.794 1012.94 539.197C1011.97 531.577 1012.59 524.932 1014.82 519.262C1017.05 513.592 1020.47 509.064 1025.08 505.679C1029.69 502.294 1035.07 500.207 1041.22 499.419C1045.41 498.882 1049.37 498.971 1053.08 499.687C1056.79 500.381 1060.14 501.67 1063.13 503.556C1066.12 505.419 1068.66 507.854 1070.77 510.861C1072.87 513.868 1074.39 517.419 1075.33 521.515Z" fill="white"/>
<path d="M1079.36 510.586L1077.07 497.074L1135.26 487.214L1137.55 500.726L1116.67 504.263L1126.05 559.588L1109.65 562.368L1100.27 507.043L1079.36 510.586Z" fill="white"/>
<path d="M1158.53 554.965L1144.53 486.566L1173.05 480.726C1178.17 479.678 1182.61 479.524 1186.35 480.264C1190.12 481 1193.14 482.493 1195.41 484.742C1197.71 486.987 1199.2 489.824 1199.9 493.253C1200.44 495.858 1200.37 498.296 1199.7 500.568C1199.02 502.818 1197.86 504.807 1196.22 506.535C1194.58 508.263 1192.56 509.651 1190.15 510.701L1190.29 511.369C1193.07 510.937 1195.78 511.161 1198.39 512.04C1201.03 512.915 1203.31 514.42 1205.23 516.556C1207.15 518.668 1208.45 521.372 1209.12 524.668C1209.87 528.341 1209.61 531.817 1208.33 535.095C1207.05 538.35 1204.81 541.175 1201.61 543.57C1198.41 545.942 1194.28 547.646 1189.23 548.681L1158.53 554.965ZM1172.34 538.255L1182.56 536.162C1186.14 535.428 1188.64 534.209 1190.06 532.504C1191.49 530.795 1191.96 528.727 1191.46 526.3C1191.1 524.541 1190.38 523.111 1189.3 522.011C1188.21 520.888 1186.84 520.136 1185.18 519.756C1183.52 519.354 1181.64 519.369 1179.52 519.802L1169 521.956L1172.34 538.255ZM1166.82 511.302L1175.97 509.429C1177.77 509.059 1179.31 508.43 1180.59 507.542C1181.87 506.654 1182.79 505.562 1183.33 504.267C1183.9 502.967 1184.02 501.516 1183.7 499.913C1183.23 497.619 1182.04 495.982 1180.15 495.001C1178.25 494.021 1175.93 493.813 1173.17 494.378L1163.75 496.307L1166.82 511.302Z" fill="white"/>
<path d="M1235.97 539.684L1218.33 543.893L1225.04 470.514L1246.89 465.3L1286.01 527.744L1268.37 531.954L1240.3 484.958L1239.77 485.085L1235.97 539.684ZM1227.24 513.519L1264.12 504.72L1267.09 517.188L1230.22 525.987L1227.24 513.519Z" fill="white"/>
<path d="M0.5 280.152C147.793 280.152 329.151 149.095 613.949 221.681C761.136 263.014 902.275 340.136 1364 215.632" stroke="white" stroke-width="18" stroke-linecap="round"/>
<path d="M0.5 450.152C147.793 450.152 329.151 319.095 613.949 391.681C761.136 433.014 902.275 510.136 1364 385.632" stroke="white" stroke-width="18" stroke-linecap="round"/>
<path d="M0.5 630.152C147.793 630.152 329.151 499.095 613.949 571.681C761.136 613.014 902.275 690.136 1364 565.632" stroke="white" stroke-width="18" stroke-linecap="round"/>
<path d="M0.5 120.152C147.793 120.152 329.151 -10.9049 613.949 61.6807C761.136 103.014 902.275 180.136 1364 55.6316" stroke="white" stroke-width="18" stroke-linecap="round"/>
</g>
<defs>
<clipPath id="clip0_156_3458">
<rect width="1324" height="700" fill="white"/>
</clipPath>
</defs>
</svg>
