<svg width="1440" height="807" viewBox="0 0 1440 807" fill="none" xmlns="http://www.w3.org/2000/svg">
<path d="M415.225 -230.355C415.225 -230.355 155.705 152.501 130.019 157.708C104.333 162.915 64.6922 142.344 64.6922 142.344C64.6922 142.344 99.0751 170.846 104.281 196.532C109.486 222.218 88.9135 261.861 88.9135 261.861C88.9135 261.861 117.417 227.476 143.103 222.269C168.788 217.062 208.429 237.633 208.429 237.633C208.429 237.633 174.046 209.131 168.841 183.445C163.635 157.759 415.225 -230.355 415.225 -230.355Z" fill="white" fill-opacity="0.2"/>
<path d="M435.124 -65.4402C435.124 -65.4402 199.753 332.719 174.438 339.502C149.123 346.286 108.287 328.203 108.287 328.203C108.287 328.203 144.365 354.527 151.148 379.842C157.931 405.158 109.767 498.094 109.767 498.094C109.767 498.094 166.171 409.915 191.486 403.132C216.801 396.348 257.637 414.431 257.637 414.431C257.637 414.431 221.559 388.107 214.776 362.792C207.994 337.476 435.124 -65.4402 435.124 -65.4402Z" fill="white" fill-opacity="0.2"/>
<path d="M88.8896 14.5204C88.8896 14.5204 42.3377 97.0868 43.7045 102.261C45.0713 107.436 52.4093 112.798 52.4093 112.798C52.4093 112.798 44.0962 109.125 38.9316 110.528C33.7669 111.932 22.214 130.006 22.214 130.006C22.214 130.006 32.0901 110.964 30.7233 105.789C29.3565 100.615 22.0184 95.2522 22.0184 95.2522C22.0184 95.2522 30.3315 98.9259 35.4962 97.5223C40.6608 96.1187 88.8896 14.5204 88.8896 14.5204Z" fill="white" fill-opacity="0.2"/>
<path d="M255.328 488.769C255.328 488.769 208.776 571.336 210.143 576.51C211.509 581.685 218.848 587.047 218.848 587.047C218.848 587.047 210.534 583.374 205.37 584.777C200.205 586.181 188.652 604.255 188.652 604.255C188.652 604.255 198.528 585.213 197.161 580.038C195.795 574.864 188.457 569.501 188.457 569.501C188.457 569.501 196.77 573.175 201.934 571.771C207.099 570.368 255.328 488.769 255.328 488.769Z" fill="white" fill-opacity="0.2"/>
<path d="M92.1301 282.225C92.1301 282.225 39.6167 375.339 41.114 381.149C42.6113 386.96 50.7814 392.946 50.7814 392.946C50.7814 392.946 41.5116 388.864 35.731 390.473C29.9504 392.081 16.9321 412.472 16.9321 412.472C16.9321 412.472 28.0819 391.003 26.5846 385.192C25.0873 379.382 16.9172 373.395 16.9172 373.395C16.9172 373.395 26.1869 377.477 31.9676 375.869C37.7482 374.26 92.1301 282.225 92.1301 282.225Z" fill="white" fill-opacity="0.2"/>
<path d="M429.921 63.6013C429.921 63.6013 346.454 218.585 349.178 228.144C351.902 237.703 365.72 247.396 365.72 247.396C365.72 247.396 350.152 240.874 340.613 243.666C331.074 246.458 310.273 280.433 310.273 280.433C310.273 280.433 327.925 244.72 325.201 235.161C322.477 225.603 308.659 215.91 308.659 215.91C308.659 215.91 324.227 222.432 333.766 219.64C343.306 216.848 429.921 63.6013 429.921 63.6013Z" fill="white" fill-opacity="0.2"/>
<path d="M398.427 -128.356C398.427 -128.356 305.656 36.146 308.31 46.4165C310.965 56.687 325.421 67.2765 325.421 67.2765C325.421 67.2765 309.022 60.0519 298.8 62.8882C288.579 65.7245 265.577 101.747 265.577 101.747C265.577 101.747 285.273 63.8159 282.618 53.5454C279.964 43.275 265.507 32.6854 265.507 32.6854C265.507 32.6854 281.906 39.9101 292.128 37.0738C302.35 34.2375 398.427 -128.356 398.427 -128.356Z" fill="white" fill-opacity="0.2"/>
<mask id="path-8-inside-1_934_271" fill="white">
<path d="M1350.75 140.396C1350.75 224.9 1291.05 329.227 1217.4 373.415C1143.76 417.604 1084.05 384.922 1084.05 300.417C1084.05 215.913 1143.76 111.586 1217.4 67.3977C1291.05 23.209 1350.75 55.8914 1350.75 140.396ZM1093.74 294.604C1093.74 372.969 1149.11 403.276 1217.4 362.298C1285.7 321.32 1341.07 224.574 1341.07 146.209C1341.07 67.8446 1285.7 37.5369 1217.4 78.5149C1149.11 119.493 1093.74 216.239 1093.74 294.604Z"/>
</mask>
<path d="M1350.75 140.396C1350.75 224.9 1291.05 329.227 1217.4 373.415C1143.76 417.604 1084.05 384.922 1084.05 300.417C1084.05 215.913 1143.76 111.586 1217.4 67.3977C1291.05 23.209 1350.75 55.8914 1350.75 140.396ZM1093.74 294.604C1093.74 372.969 1149.11 403.276 1217.4 362.298C1285.7 321.32 1341.07 224.574 1341.07 146.209C1341.07 67.8446 1285.7 37.5369 1217.4 78.5149C1149.11 119.493 1093.74 216.239 1093.74 294.604Z" stroke="white" stroke-opacity="0.1" stroke-width="2" mask="url(#path-8-inside-1_934_271)"/>
<mask id="path-9-inside-2_934_271" fill="white">
<path d="M1317.67 160.009C1317.67 223.229 1273 301.277 1217.91 334.336C1162.81 367.394 1118.14 342.944 1118.14 279.724C1118.14 216.505 1162.81 138.456 1217.91 105.398C1273 72.3393 1317.67 96.7897 1317.67 160.009ZM1125.39 275.375C1125.39 334.002 1166.81 356.675 1217.91 326.019C1269 295.362 1310.42 222.984 1310.42 164.358C1310.42 105.732 1269 83.0583 1217.91 113.715C1166.81 144.371 1125.39 216.749 1125.39 275.375Z"/>
</mask>
<path d="M1317.67 160.009C1317.67 223.229 1273 301.277 1217.91 334.336C1162.81 367.394 1118.14 342.944 1118.14 279.724C1118.14 216.505 1162.81 138.456 1217.91 105.398C1273 72.3393 1317.67 96.7897 1317.67 160.009ZM1125.39 275.375C1125.39 334.002 1166.81 356.675 1217.91 326.019C1269 295.362 1310.42 222.984 1310.42 164.358C1310.42 105.732 1269 83.0583 1217.91 113.715C1166.81 144.371 1125.39 216.749 1125.39 275.375Z" stroke="white" stroke-opacity="0.2" stroke-width="2" mask="url(#path-9-inside-2_934_271)"/>
<path d="M1217.51 -105.859C1217.51 -105.859 1225.04 153.092 1254.33 182.388C1283.63 211.685 1544.49 219.206 1544.49 219.206C1544.49 219.206 1283.63 226.728 1254.33 256.025C1225.04 285.321 1217.51 546.178 1217.51 546.178C1217.51 546.178 1209.99 285.321 1180.7 256.025C1151.4 226.728 890.543 219.206 890.543 219.206C890.543 219.206 1151.4 211.685 1180.7 182.388C1209.99 153.092 1217.51 -105.859 1217.51 -105.859Z" fill="white" fill-opacity="0.2"/>
<path d="M1164.86 312.466C1164.86 312.466 1125.72 369.703 1127.8 380.121C1129.88 390.539 1188.37 428.33 1188.37 428.33C1188.37 428.33 1130.88 389.033 1120.47 391.146C1110.06 393.259 1055.52 476.962 1055.52 476.962C1055.52 476.962 1111.58 394.266 1109.49 383.848C1107.41 373.43 1048.92 335.64 1048.92 335.64C1048.92 335.64 1106.41 374.937 1116.82 372.824C1127.23 370.711 1164.86 312.466 1164.86 312.466Z" fill="white" fill-opacity="0.2"/>
<path d="M994.192 349.508C994.192 349.508 993.948 368.106 995.96 370.124C997.972 372.142 1016.65 371.899 1016.65 371.899C1016.65 371.899 997.972 371.656 995.96 373.674C993.948 375.692 994.192 394.421 994.192 394.421C994.192 394.421 994.436 375.692 992.424 373.674C990.412 371.656 971.736 371.899 971.736 371.899C971.736 371.899 990.412 372.142 992.424 370.124C994.436 368.106 994.192 349.508 994.192 349.508Z" fill="white" fill-opacity="0.2"/>
<path d="M1128.34 403.413C1128.34 403.413 1123.29 421.314 1124.71 423.784C1126.14 426.254 1144.24 430.853 1144.24 430.853C1144.24 430.853 1126.26 425.785 1123.8 427.214C1121.33 428.642 1116.72 446.796 1116.72 446.796C1116.72 446.796 1121.8 428.768 1120.38 426.298C1118.96 423.828 1100.86 419.229 1100.86 419.229C1100.86 419.229 1118.83 424.297 1121.3 422.869C1123.76 421.44 1128.34 403.413 1128.34 403.413Z" fill="white" fill-opacity="0.2"/>
<path d="M1117.8 305.193C1117.8 305.193 1115.88 319.017 1117.19 320.708C1118.5 322.399 1132.43 323.963 1132.43 323.963C1132.43 323.963 1118.54 322.037 1116.86 323.352C1115.17 324.666 1113.6 338.634 1113.6 338.634C1113.6 338.634 1115.53 324.712 1114.22 323.021C1112.91 321.331 1098.98 319.766 1098.98 319.766C1098.98 319.766 1112.87 321.692 1114.55 320.378C1116.24 319.063 1117.8 305.193 1117.8 305.193Z" fill="white" fill-opacity="0.2"/>
<mask id="path-15-inside-3_934_271" fill="white">
<path d="M1166.57 806.279C1166.5 770.442 1173.51 734.944 1187.2 701.823C1200.89 668.702 1220.98 638.61 1246.32 613.272C1271.67 587.935 1301.76 567.851 1334.89 554.173C1368.01 540.495 1403.51 533.492 1439.35 533.567L1439.33 540.827C1404.45 540.755 1369.9 547.571 1337.66 560.884C1305.42 574.197 1276.12 593.745 1251.45 618.407C1226.79 643.068 1207.23 672.358 1193.91 704.596C1180.59 736.834 1173.76 771.384 1173.83 806.266L1166.57 806.279Z"/>
</mask>
<path d="M1166.57 806.279C1166.5 770.442 1173.51 734.944 1187.2 701.823C1200.89 668.702 1220.98 638.61 1246.32 613.272C1271.67 587.935 1301.76 567.851 1334.89 554.173C1368.01 540.495 1403.51 533.492 1439.35 533.567L1439.33 540.827C1404.45 540.755 1369.9 547.571 1337.66 560.884C1305.42 574.197 1276.12 593.745 1251.45 618.407C1226.79 643.068 1207.23 672.358 1193.91 704.596C1180.59 736.834 1173.76 771.384 1173.83 806.266L1166.57 806.279Z" stroke="white" stroke-opacity="0.2" stroke-width="2" mask="url(#path-15-inside-3_934_271)"/>
<mask id="path-16-inside-4_934_271" fill="white">
<path d="M1228.73 806.285C1228.73 778.634 1234.18 751.255 1244.76 725.709C1255.34 700.163 1270.85 676.952 1290.4 657.4C1309.95 637.848 1333.16 622.339 1358.71 611.758C1384.25 601.176 1411.63 595.73 1439.28 595.73L1439.28 601.346C1412.37 601.346 1385.72 606.647 1360.86 616.946C1335.99 627.245 1313.4 642.341 1294.37 661.371C1275.34 680.402 1260.24 702.994 1249.95 727.858C1239.65 752.722 1234.35 779.372 1234.35 806.285L1228.73 806.285Z"/>
</mask>
<path d="M1228.73 806.285C1228.73 778.634 1234.18 751.255 1244.76 725.709C1255.34 700.163 1270.85 676.952 1290.4 657.4C1309.95 637.848 1333.16 622.339 1358.71 611.758C1384.25 601.176 1411.63 595.73 1439.28 595.73L1439.28 601.346C1412.37 601.346 1385.72 606.647 1360.86 616.946C1335.99 627.245 1313.4 642.341 1294.37 661.371C1275.34 680.402 1260.24 702.994 1249.95 727.858C1239.65 752.722 1234.35 779.372 1234.35 806.285L1228.73 806.285Z" stroke="white" stroke-opacity="0.2" stroke-width="2" mask="url(#path-16-inside-4_934_271)"/>
<path d="M377.875 651.679C377.875 651.679 378.539 657.875 381.125 660.461C383.711 663.046 389.907 663.71 389.907 663.71C389.907 663.71 383.711 664.374 381.125 666.96C378.539 669.546 377.875 675.742 377.875 675.742C377.875 675.742 377.211 669.546 374.626 666.96C372.04 664.374 365.844 663.71 365.844 663.71C365.844 663.71 372.04 663.046 374.626 660.461C377.211 657.875 377.875 651.679 377.875 651.679Z" fill="white" fill-opacity="0.2"/>
<path d="M494.181 608.565C494.181 608.565 494.569 612.18 496.077 613.688C497.585 615.196 501.2 615.584 501.2 615.584C501.2 615.584 497.585 615.971 496.077 617.479C494.569 618.988 494.181 622.602 494.181 622.602C494.181 622.602 493.794 618.988 492.286 617.479C490.777 615.971 487.163 615.584 487.163 615.584C487.163 615.584 490.777 615.196 492.286 613.688C493.794 612.18 494.181 608.565 494.181 608.565Z" fill="white" fill-opacity="0.2"/>
<path d="M279.115 555.425C279.115 555.425 280.028 563.945 283.583 567.5C287.139 571.056 295.659 571.969 295.659 571.969C295.659 571.969 287.139 572.882 283.583 576.437C280.028 579.992 279.115 588.512 279.115 588.512C279.115 588.512 278.202 579.992 274.647 576.437C271.091 572.882 262.572 571.969 262.572 571.969C262.572 571.969 271.091 571.056 274.647 567.5C278.202 563.945 279.115 555.425 279.115 555.425Z" fill="white" fill-opacity="0.2"/>
<path d="M331.754 457.166C331.754 457.166 332.417 463.363 335.003 465.948C337.589 468.534 343.785 469.198 343.785 469.198C343.785 469.198 337.589 469.862 335.003 472.448C332.417 475.033 331.754 481.23 331.754 481.23C331.754 481.23 331.09 475.033 328.504 472.448C325.918 469.862 319.722 469.198 319.722 469.198C319.722 469.198 325.918 468.534 328.504 465.948C331.09 463.363 331.754 457.166 331.754 457.166Z" fill="white" fill-opacity="0.2"/>
<path d="M46.0012 418.063C46.0012 418.063 46.4991 422.711 48.4384 424.65C50.3778 426.589 55.0249 427.087 55.0249 427.087C55.0249 427.087 50.3778 427.585 48.4384 429.524C46.4991 431.464 46.0012 436.111 46.0012 436.111C46.0012 436.111 45.5033 431.464 43.5639 429.524C41.6246 427.585 36.9774 427.087 36.9774 427.087C36.9774 427.087 41.6246 426.589 43.5639 424.65C45.5033 422.711 46.0012 418.063 46.0012 418.063Z" fill="white" fill-opacity="0.2"/>
<path d="M133.231 651.679C133.231 651.679 133.895 657.875 136.481 660.461C139.066 663.046 145.263 663.71 145.263 663.71C145.263 663.71 139.066 664.374 136.481 666.96C133.895 669.546 133.231 675.742 133.231 675.742C133.231 675.742 132.567 669.546 129.981 666.96C127.395 664.374 121.199 663.71 121.199 663.71C121.199 663.71 127.395 663.046 129.981 660.461C132.567 657.875 133.231 651.679 133.231 651.679Z" fill="white" fill-opacity="0.2"/>
<path d="M670.646 726.877C670.646 726.877 671.199 732.04 673.354 734.195C675.509 736.35 680.673 736.903 680.673 736.903C680.673 736.903 675.509 737.456 673.354 739.611C671.199 741.766 670.646 746.929 670.646 746.929C670.646 746.929 670.093 741.766 667.938 739.611C665.783 737.456 660.62 736.903 660.62 736.903C660.62 736.903 665.783 736.35 667.938 734.195C670.093 732.04 670.646 726.877 670.646 726.877Z" fill="white" fill-opacity="0.2"/>
<path d="M641.57 552.417C641.57 552.417 642.233 558.613 644.819 561.199C647.405 563.785 653.601 564.449 653.601 564.449C653.601 564.449 647.405 565.113 644.819 567.699C642.233 570.284 641.57 576.481 641.57 576.481C641.57 576.481 640.906 570.284 638.32 567.699C635.734 565.113 629.538 564.449 629.538 564.449C629.538 564.449 635.734 563.785 638.32 561.199C640.906 558.613 641.57 552.417 641.57 552.417Z" fill="white" fill-opacity="0.2"/>
<path d="M928.826 391.995C928.826 391.995 929.85 401.547 933.836 405.534C937.822 409.52 947.375 410.544 947.375 410.544C947.375 410.544 937.822 411.567 933.836 415.553C929.85 419.54 928.826 429.092 928.826 429.092C928.826 429.092 927.803 419.54 923.816 415.553C919.83 411.567 910.277 410.544 910.277 410.544C910.277 410.544 919.83 409.52 923.816 405.534C927.803 401.547 928.826 391.995 928.826 391.995Z" fill="white" fill-opacity="0.2"/>
<path d="M537.991 300.875C537.991 300.875 537.774 307.103 539.968 310.028C542.163 312.953 548.203 314.485 548.203 314.485C548.203 314.485 541.975 314.267 539.05 316.462C536.125 318.657 534.593 324.697 534.593 324.697C534.593 324.697 534.811 318.469 532.616 315.544C530.422 312.619 524.381 311.087 524.381 311.087C524.381 311.087 530.609 311.305 533.534 309.11C536.459 306.915 537.991 300.875 537.991 300.875Z" fill="white" fill-opacity="0.2"/>
<path d="M589.745 104.357C589.745 104.357 591.274 110.398 594.198 112.594C597.122 114.79 603.35 114.576 603.35 114.576C603.35 114.576 597.308 116.105 595.112 119.029C592.916 121.953 593.13 128.181 593.13 128.181C593.13 128.181 591.601 122.139 588.677 119.943C585.753 117.747 579.525 117.961 579.525 117.961C579.525 117.961 585.567 116.432 587.763 113.508C589.959 110.585 589.745 104.357 589.745 104.357Z" fill="white" fill-opacity="0.2"/>
<path d="M535.17 18.6998C535.17 18.6998 536.699 24.741 539.623 26.9373C542.547 29.1337 548.775 28.9192 548.775 28.9192C548.775 28.9192 542.733 30.4482 540.537 33.372C538.341 36.2958 538.555 42.5238 538.555 42.5238C538.555 42.5238 537.026 36.4826 534.102 34.2863C531.179 32.09 524.951 32.3044 524.951 32.3044C524.951 32.3044 530.992 30.7755 533.188 27.8516C535.385 24.9278 535.17 18.6998 535.17 18.6998Z" fill="white" fill-opacity="0.2"/>
<path d="M891.227 68.1418C891.227 68.1418 891.891 74.3381 894.477 76.9239C897.062 79.5097 903.259 80.1735 903.259 80.1735C903.259 80.1735 897.062 80.8374 894.477 83.4232C891.891 86.009 891.227 92.2052 891.227 92.2052C891.227 92.2052 890.563 86.009 887.977 83.4232C885.392 80.8374 879.195 80.1735 879.195 80.1735C879.195 80.1735 885.392 79.5097 887.977 76.9239C890.563 74.3381 891.227 68.1418 891.227 68.1418Z" fill="white" fill-opacity="0.2"/>
<path d="M717.77 44.0785C717.77 44.0785 718.434 50.2747 721.02 52.8605C723.606 55.4463 729.802 56.1102 729.802 56.1102C729.802 56.1102 723.606 56.774 721.02 59.3598C718.434 61.9456 717.77 68.1419 717.77 68.1419C717.77 68.1419 717.106 61.9456 714.521 59.3598C711.935 56.774 705.739 56.1102 705.739 56.1102C705.739 56.1102 711.935 55.4463 714.521 52.8605C717.106 50.2747 717.77 44.0785 717.77 44.0785Z" fill="white" fill-opacity="0.2"/>
<path d="M780.937 146.348C780.937 146.348 781.6 152.544 784.186 155.13C786.772 157.716 792.968 158.379 792.968 158.379C792.968 158.379 786.772 159.043 784.186 161.629C781.6 164.215 780.937 170.411 780.937 170.411C780.937 170.411 780.273 164.215 777.687 161.629C775.101 159.043 768.905 158.379 768.905 158.379C768.905 158.379 775.101 157.716 777.687 155.13C780.273 152.544 780.937 146.348 780.937 146.348Z" fill="white" fill-opacity="0.2"/>
<path d="M842.098 253.63C842.098 253.63 842.761 259.827 845.347 262.412C847.933 264.998 854.129 265.662 854.129 265.662C854.129 265.662 847.933 266.326 845.347 268.912C842.761 271.497 842.098 277.694 842.098 277.694C842.098 277.694 841.434 271.497 838.848 268.912C836.262 266.326 830.066 265.662 830.066 265.662C830.066 265.662 836.262 264.998 838.848 262.412C841.434 259.827 842.098 253.63 842.098 253.63Z" fill="white" fill-opacity="0.2"/>
<path d="M815.026 367.931C815.026 367.931 815.69 374.128 818.276 376.713C820.862 379.299 827.058 379.963 827.058 379.963C827.058 379.963 820.862 380.627 818.276 383.213C815.69 385.798 815.026 391.995 815.026 391.995C815.026 391.995 814.362 385.798 811.777 383.213C809.191 380.627 802.995 379.963 802.995 379.963C802.995 379.963 809.191 379.299 811.777 376.713C814.362 374.128 815.026 367.931 815.026 367.931Z" fill="white" fill-opacity="0.2"/>
<path d="M984.473 687.774C984.473 687.774 985.136 693.97 987.722 696.556C990.308 699.141 996.504 699.805 996.504 699.805C996.504 699.805 990.308 700.469 987.722 703.055C985.136 705.641 984.473 711.837 984.473 711.837C984.473 711.837 983.809 705.641 981.223 703.055C978.637 700.469 972.441 699.805 972.441 699.805C972.441 699.805 978.637 699.141 981.223 696.556C983.809 693.97 984.473 687.774 984.473 687.774Z" fill="white" fill-opacity="0.2"/>
<path d="M499.195 746.929C499.195 746.929 499.859 753.126 502.444 755.711C505.03 758.297 511.226 758.961 511.226 758.961C511.226 758.961 505.03 759.625 502.444 762.211C499.859 764.797 499.195 770.993 499.195 770.993C499.195 770.993 498.531 764.797 495.945 762.211C493.359 759.625 487.163 758.961 487.163 758.961C487.163 758.961 493.359 758.297 495.945 755.711C498.531 753.126 499.195 746.929 499.195 746.929Z" fill="white" fill-opacity="0.2"/>
<path d="M30.9616 603.552C30.9616 603.552 31.6254 609.748 34.2112 612.334C36.797 614.92 42.9932 615.584 42.9932 615.584C42.9932 615.584 36.797 616.247 34.2112 618.833C31.6254 621.419 30.9616 627.615 30.9616 627.615C30.9616 627.615 30.2977 621.419 27.7119 618.833C25.1261 616.247 18.9299 615.584 18.9299 615.584C18.9299 615.584 25.1261 614.92 27.7119 612.334C30.2977 609.748 30.9616 603.552 30.9616 603.552Z" fill="white" fill-opacity="0.2"/>
<path d="M1400.57 56.1102C1400.57 56.1102 1401.23 62.3064 1403.82 64.8922C1406.4 67.478 1412.6 68.1419 1412.6 68.1419C1412.6 68.1419 1406.4 68.8057 1403.82 71.3915C1401.23 73.9773 1400.57 80.1735 1400.57 80.1735C1400.57 80.1735 1399.9 73.9773 1397.32 71.3915C1394.73 68.8057 1388.54 68.1419 1388.54 68.1419C1388.54 68.1419 1394.73 67.478 1397.32 64.8922C1399.9 62.3064 1400.57 56.1102 1400.57 56.1102Z" fill="white" fill-opacity="0.2"/>
<path d="M1296.29 469.198C1296.29 469.198 1296.96 475.394 1299.54 477.98C1302.13 480.566 1308.33 481.23 1308.33 481.23C1308.33 481.23 1302.13 481.894 1299.54 484.479C1296.96 487.065 1296.29 493.261 1296.29 493.261C1296.29 493.261 1295.63 487.065 1293.04 484.479C1290.46 481.894 1284.26 481.23 1284.26 481.23C1284.26 481.23 1290.46 480.566 1293.04 477.98C1295.63 475.394 1296.29 469.198 1296.29 469.198Z" fill="white" fill-opacity="0.2"/>
<path d="M1328.38 326.823C1328.38 326.823 1329.04 333.019 1331.63 335.605C1334.21 338.191 1340.41 338.855 1340.41 338.855C1340.41 338.855 1334.21 339.519 1331.63 342.104C1329.04 344.69 1328.38 350.886 1328.38 350.886C1328.38 350.886 1327.71 344.69 1325.13 342.104C1322.54 339.519 1316.35 338.855 1316.35 338.855C1316.35 338.855 1322.54 338.191 1325.13 335.605C1327.71 333.019 1328.38 326.823 1328.38 326.823Z" fill="white" fill-opacity="0.2"/>
<path d="M1059.67 663.71C1059.67 663.71 1060.33 669.907 1062.92 672.492C1065.51 675.078 1071.7 675.742 1071.7 675.742C1071.7 675.742 1065.51 676.406 1062.92 678.992C1060.33 681.577 1059.67 687.774 1059.67 687.774C1059.67 687.774 1059.01 681.577 1056.42 678.992C1053.84 676.406 1047.64 675.742 1047.64 675.742C1047.64 675.742 1053.84 675.078 1056.42 672.492C1059.01 669.907 1059.67 663.71 1059.67 663.71Z" fill="white" fill-opacity="0.2"/>
<path d="M830.066 588.512C830.066 588.512 830.73 594.708 833.316 597.294C835.901 599.88 842.098 600.544 842.098 600.544C842.098 600.544 835.901 601.208 833.316 603.794C830.73 606.379 830.066 612.576 830.066 612.576C830.066 612.576 829.402 606.379 826.816 603.794C824.231 601.208 818.034 600.544 818.034 600.544C818.034 600.544 824.231 599.88 826.816 597.294C829.402 594.708 830.066 588.512 830.066 588.512Z" fill="white" fill-opacity="0.2"/>
<path d="M1133.87 552.417C1133.87 552.417 1134.53 558.613 1137.12 561.199C1139.7 563.785 1145.9 564.449 1145.9 564.449C1145.9 564.449 1139.7 565.113 1137.12 567.699C1134.53 570.284 1133.87 576.481 1133.87 576.481C1133.87 576.481 1133.2 570.284 1130.62 567.699C1128.03 565.113 1121.83 564.449 1121.83 564.449C1121.83 564.449 1128.03 563.785 1130.62 561.199C1133.2 558.613 1133.87 552.417 1133.87 552.417Z" fill="white" fill-opacity="0.2"/>
<path d="M1376.51 406.032C1376.51 406.032 1377.17 412.228 1379.75 414.814C1382.34 417.4 1388.54 418.063 1388.54 418.063C1388.54 418.063 1382.34 418.727 1379.75 421.313C1377.17 423.899 1376.51 430.095 1376.51 430.095C1376.51 430.095 1375.84 423.899 1373.26 421.313C1370.67 418.727 1364.47 418.063 1364.47 418.063C1364.47 418.063 1370.67 417.4 1373.26 414.814C1375.84 412.228 1376.51 406.032 1376.51 406.032Z" fill="white" fill-opacity="0.2"/>
<path d="M1059.67 104.237C1059.67 104.237 1060.33 110.433 1062.92 113.019C1065.51 115.605 1071.7 116.269 1071.7 116.269C1071.7 116.269 1065.51 116.932 1062.92 119.518C1060.33 122.104 1059.67 128.3 1059.67 128.3C1059.67 128.3 1059.01 122.104 1056.42 119.518C1053.84 116.932 1047.64 116.269 1047.64 116.269C1047.64 116.269 1053.84 115.605 1056.42 113.019C1059.01 110.433 1059.67 104.237 1059.67 104.237Z" fill="white" fill-opacity="0.2"/>
<path d="M442.044 109.25C442.044 109.25 442.708 115.446 445.294 118.032C447.88 120.618 454.076 121.282 454.076 121.282C454.076 121.282 447.88 121.946 445.294 124.531C442.708 127.117 442.044 133.313 442.044 133.313C442.044 133.313 441.38 127.117 438.794 124.531C436.209 121.946 430.012 121.282 430.012 121.282C430.012 121.282 436.209 120.618 438.794 118.032C441.38 115.446 442.044 109.25 442.044 109.25Z" fill="white" fill-opacity="0.2"/>
<path d="M304.181 286.717C304.181 286.717 304.651 291.106 306.483 292.938C308.315 294.77 312.704 295.24 312.704 295.24C312.704 295.24 308.315 295.71 306.483 297.542C304.651 299.373 304.181 303.762 304.181 303.762C304.181 303.762 303.711 299.373 301.879 297.542C300.048 295.71 295.659 295.24 295.659 295.24C295.659 295.24 300.048 294.77 301.879 292.938C303.711 291.106 304.181 286.717 304.181 286.717Z" fill="white" fill-opacity="0.2"/>
<path d="M203.416 469.198C203.416 469.198 204.08 475.394 206.665 477.98C209.251 480.566 215.447 481.23 215.447 481.23C215.447 481.23 209.251 481.894 206.665 484.479C204.08 487.065 203.416 493.261 203.416 493.261C203.416 493.261 202.752 487.065 200.166 484.479C197.58 481.894 191.384 481.23 191.384 481.23C191.384 481.23 197.58 480.566 200.166 477.98C202.752 475.394 203.416 469.198 203.416 469.198Z" fill="white" fill-opacity="0.2"/>
<path d="M295.659 696.797C295.659 696.797 296.322 702.994 298.908 705.579C301.494 708.165 307.69 708.829 307.69 708.829C307.69 708.829 301.494 709.493 298.908 712.079C296.322 714.665 295.659 720.861 295.659 720.861C295.659 720.861 294.995 714.665 292.409 712.079C289.823 709.493 283.627 708.829 283.627 708.829C283.627 708.829 289.823 708.165 292.409 705.579C294.995 702.994 295.659 696.797 295.659 696.797Z" fill="white" fill-opacity="0.2"/>
</svg>
