<svg width="61" height="60" viewBox="0 0 61 60" fill="none" xmlns="http://www.w3.org/2000/svg">
<circle cx="30.5" cy="29.6687" r="29.1687" stroke="white"/>
<path d="M41.5376 18.2884C37.0354 20.1531 17.7305 28.1494 12.3966 30.3288C8.81939 31.7247 10.9135 33.0336 10.9135 33.0336C10.9135 33.0336 13.9671 34.0805 16.5848 34.8657C19.2022 35.651 20.5981 34.7786 20.5981 34.7786L32.9002 26.49C37.2626 23.5235 36.2157 25.9663 35.1685 27.0136C32.9002 29.2822 29.1485 32.8591 26.0074 35.7384C24.6115 36.9599 25.3093 38.0067 25.9204 38.5303C28.1887 40.4499 34.3836 44.3762 34.7323 44.6378C36.5754 45.9427 40.2009 47.8209 40.7523 43.8526L42.9335 30.1546C43.6317 25.5305 44.3295 21.2552 44.4166 20.0338C44.6786 17.067 41.5376 18.2884 41.5376 18.2884Z" fill="white"/>
</svg>
