<svg width="125" height="125" viewBox="0 0 125 125" fill="none" xmlns="http://www.w3.org/2000/svg">
<circle cx="62.5" cy="62.5" r="62" stroke="white"/>
<path d="M85.7517 38.5261C76.2673 42.4543 35.5997 59.2993 24.3633 63.8904C16.8276 66.8312 21.2391 69.5884 21.2391 69.5884C21.2391 69.5884 27.6717 71.7938 33.1862 73.448C38.7 75.1022 41.6407 73.2645 41.6407 73.2645L67.5561 55.8036C76.746 49.5545 74.5407 54.7005 72.3345 56.9067C67.5561 61.6858 59.6528 69.2207 53.036 75.2864C50.0952 77.8595 51.5652 80.0648 52.8525 81.1679C57.6309 85.2117 70.6811 93.4827 71.4157 94.0339C75.2984 96.7827 82.9358 100.739 84.0975 92.3797L88.6924 63.5235C90.1631 53.7825 91.6331 44.7761 91.8166 42.203C92.3685 35.9531 85.7517 38.5261 85.7517 38.5261Z" fill="white"/>
</svg>
