<svg width="125" height="125" viewBox="0 0 125 125" fill="none" xmlns="http://www.w3.org/2000/svg">
<circle cx="62.5" cy="62.5" r="62" stroke="white"/>
<mask id="mask0_878_269" style="mask-type:luminance" maskUnits="userSpaceOnUse" x="12" y="13" width="101" height="100">
<path d="M112.5 13H12.5V113H112.5V13Z" fill="white"/>
</mask>
<g mask="url(#mask0_878_269)">
<path d="M65.7084 85.0418C42.9167 85.0418 29.9168 69.4169 29.3752 43.4169H40.7918C41.1668 62.5002 49.5833 70.5835 56.2499 72.2501V43.4169H67.0003V59.8751C73.5836 59.1668 80.4995 51.6669 82.8328 43.4169H93.5831C91.7915 53.5835 84.2914 61.0835 78.9581 64.1668C84.2914 66.6668 92.8335 73.2085 96.0835 85.0418H84.2498C81.7082 77.1252 75.3753 71.0001 67.0003 70.1668V85.0418H65.7084Z" fill="white"/>
</g>
</svg>
