<svg width="22" height="22" viewBox="0 0 22 22" fill="none" xmlns="http://www.w3.org/2000/svg">
<path d="M0.93934 19.3241C0.353553 19.9099 0.353553 20.8596 0.93934 21.4454C1.52513 22.0312 2.47487 22.0312 3.06066 21.4454L0.93934 19.3241ZM21.8848 1.99999C21.8848 1.17156 21.2132 0.49999 20.3848 0.49999L6.88478 0.499989C6.05635 0.499989 5.38478 1.17156 5.38478 1.99999C5.38478 2.82842 6.05635 3.49999 6.88478 3.49999H18.8848V15.5C18.8848 16.3284 19.5563 17 20.3848 17C21.2132 17 21.8848 16.3284 21.8848 15.5L21.8848 1.99999ZM3.06066 21.4454L21.4454 3.06065L19.3241 0.939329L0.93934 19.3241L3.06066 21.4454Z" fill="#305AEF"/>
</svg>
