<svg width="220" height="71" viewBox="0 0 220 71" fill="none" xmlns="http://www.w3.org/2000/svg">
<rect x="12.5" y="11.5" width="190" height="36" rx="18" stroke="url(#paint0_linear_805_253)"/>
<path d="M199 3V3C199.005 10.1776 204.822 15.9949 212 16V16V16C204.822 16.0051 199.005 21.8224 199 29V29V29C198.995 21.8224 193.178 16.0051 186 16V16V16C193.178 15.9949 198.995 10.1776 199 3V3Z" fill="#51A7FD"/>
<path d="M18.5 36V36C18.5068 45.6622 26.3378 53.4932 36 53.5V53.5V53.5C26.3378 53.5068 18.5068 61.3378 18.5 71V71V71C18.4932 61.3378 10.6622 53.5068 1 53.5V53.5V53.5C10.6622 53.4932 18.4932 45.6622 18.5 36V36Z" fill="#3A5AE4"/>
<path d="M7.5 0V0C7.50293 4.14092 10.8591 7.49707 15 7.5V7.5V7.5C10.8591 7.50293 7.50293 10.8591 7.5 15V15V15C7.49707 10.8591 4.14092 7.50293 0 7.5V7.5V7.5C4.14092 7.49707 7.49707 4.14092 7.5 0V0Z" fill="#3952E3"/>
<path d="M213 24.6941C213.761 26.6679 215.332 28.239 217.306 29C215.332 29.761 213.761 31.3321 213 33.3059C212.239 31.3321 210.668 29.761 208.694 29C210.668 28.239 212.239 26.6679 213 24.6941Z" fill="black" stroke="#51A7FD"/>
<path d="M179.5 53.7857C180.31 55.9617 182.038 57.6905 184.214 58.5C182.038 59.3095 180.31 61.0383 179.5 63.2143C178.69 61.0383 176.962 59.3095 174.786 58.5C176.962 57.6905 178.69 55.9617 179.5 53.7857Z" fill="black" stroke="#51A7FD"/>
<defs>
<linearGradient id="paint0_linear_805_253" x1="33.5" y1="30" x2="203" y2="29.5" gradientUnits="userSpaceOnUse">
<stop stop-color="#3963F7"/>
<stop offset="1" stop-color="#51A7FD"/>
</linearGradient>
</defs>
</svg>
