<svg width="125" height="125" viewBox="0 0 125 125" fill="none" xmlns="http://www.w3.org/2000/svg">
<circle cx="62.5" cy="62.5" r="62" stroke="#0051FF"/>
<g clip-path="url(#clip0_215_158)">
<path d="M92.8471 34.7709C87.0463 32.1151 80.9224 30.231 74.6319 29.1667C73.7711 30.7056 72.9922 32.2888 72.2985 33.9098C65.5979 32.9001 58.7839 32.9001 52.0833 33.9098C51.3892 32.2889 50.6104 30.7057 49.7499 29.1667C43.4554 30.24 37.3274 32.1286 31.5208 34.7848C19.993 51.8404 16.868 68.4723 18.4305 84.8681C25.1814 89.856 32.7377 93.6494 40.7708 96.0834C42.5796 93.6506 44.1801 91.0697 45.5555 88.3681C42.9432 87.3925 40.4219 86.1888 38.0208 84.7709C38.6527 84.3126 39.2708 83.8404 39.868 83.382C46.8548 86.6677 54.4805 88.3713 62.2013 88.3713C69.9221 88.3713 77.5479 86.6677 84.5346 83.382C85.1388 83.8751 85.7569 84.3473 86.3819 84.7709C83.9761 86.1911 81.4502 87.3971 78.8333 88.3751C80.2069 91.0754 81.8076 93.6542 83.618 96.0834C91.6579 93.6592 99.22 89.8676 105.972 84.8751C107.805 65.8612 102.84 49.382 92.8471 34.7709ZM47.5346 74.7848C43.1805 74.7848 39.5833 70.8334 39.5833 65.9723C39.5833 61.1112 43.0555 57.1251 47.5208 57.1251C51.986 57.1251 55.5555 61.1112 55.4791 65.9723C55.4027 70.8334 51.9721 74.7848 47.5346 74.7848ZM76.868 74.7848C72.5069 74.7848 68.9235 70.8334 68.9235 65.9723C68.9235 61.1112 72.3958 57.1251 76.868 57.1251C81.3402 57.1251 84.8819 61.1112 84.8055 65.9723C84.7291 70.8334 81.3055 74.7848 76.868 74.7848Z" fill="#0051FF"/>
</g>
<defs>
<clipPath id="clip0_215_158">
<rect width="88.2917" height="66.9167" fill="white" transform="translate(18.0555 29.1667)"/>
</clipPath>
</defs>
</svg>
