<svg width="125" height="125" viewBox="0 0 125 125" fill="none" xmlns="http://www.w3.org/2000/svg">
<circle cx="62.5" cy="62.5" r="62" stroke="#0051FF"/>
<path d="M37.3333 87.6666C35.6375 87.6666 34.1858 87.0628 32.9781 85.8551C31.7705 84.6475 31.1667 83.1958 31.1667 81.4999V44.4999C31.1667 42.8041 31.7705 41.3523 32.9781 40.1447C34.1858 38.9371 35.6375 38.3333 37.3333 38.3333H86.6667C88.3625 38.3333 89.8142 38.9371 91.0219 40.1447C92.2295 41.3523 92.8333 42.8041 92.8333 44.4999V81.4999C92.8333 83.1958 92.2295 84.6475 91.0219 85.8551C89.8142 87.0628 88.3625 87.6666 86.6667 87.6666H37.3333ZM62 66.0833L37.3333 50.6666V81.4999H86.6667V50.6666L62 66.0833ZM62 59.9166L86.6667 44.4999H37.3333L62 59.9166ZM37.3333 50.6666V44.4999V81.4999V50.6666Z" fill="#0051FF"/>
</svg>
