<svg width="125" height="125" viewBox="0 0 125 125" fill="none" xmlns="http://www.w3.org/2000/svg">
<circle cx="62.5" cy="62.5" r="62" stroke="#0051FF"/>
<path d="M85.7518 38.5261C76.2674 42.4543 35.5998 59.2993 24.3634 63.8904C16.8277 66.8312 21.2392 69.5884 21.2392 69.5884C21.2392 69.5884 27.6718 71.7938 33.1863 73.448C38.7001 75.1022 41.6408 73.2645 41.6408 73.2645L67.5562 55.8036C76.7461 49.5545 74.5408 54.7005 72.3346 56.9067C67.5562 61.6858 59.6529 69.2207 53.036 75.2864C50.0953 77.8595 51.5653 80.0648 52.8526 81.1679C57.631 85.2117 70.6812 93.4827 71.4158 94.0339C75.2985 96.7827 82.9359 100.739 84.0975 92.3797L88.6925 63.5235C90.1632 53.7825 91.6332 44.7761 91.8167 42.203C92.3686 35.9531 85.7518 38.5261 85.7518 38.5261Z" fill="#0051FF"/>
</svg>
