<svg width="125" height="125" viewBox="0 0 125 125" fill="none" xmlns="http://www.w3.org/2000/svg">
<circle cx="62.5" cy="62.5" r="62" stroke="#0051FF"/>
<mask id="mask0_215_174" style="mask-type:luminance" maskUnits="userSpaceOnUse" x="12" y="13" width="101" height="100">
<path d="M112.5 13H12.5V113H112.5V13Z" fill="white"/>
</mask>
<g mask="url(#mask0_215_174)">
<path d="M65.7084 85.0419C42.9167 85.0419 29.9168 69.417 29.3752 43.417H40.7918C41.1668 62.5003 49.5833 70.5836 56.2499 72.2502V43.417H67.0003V59.8752C73.5836 59.1669 80.4995 51.667 82.8328 43.417H93.5831C91.7915 53.5836 84.2914 61.0836 78.9581 64.1669C84.2914 66.6669 92.8335 73.2086 96.0835 85.0419H84.2498C81.7082 77.1253 75.3753 71.0002 67.0003 70.1669V85.0419H65.7084Z" fill="#0051FF"/>
</g>
</svg>
