<svg width="272" height="268" viewBox="0 0 272 268" fill="none" xmlns="http://www.w3.org/2000/svg">
<path d="M135.73 100.5V145.167M135.73 189.833H135.843M116.402 43.1034L20.6629 201C18.689 204.377 17.6446 208.206 17.6335 212.106C17.6225 216.005 18.6452 219.84 20.5999 223.228C22.5547 226.616 25.3733 229.439 28.7754 231.416C32.1775 233.394 36.0444 234.457 39.9915 234.5H231.469C235.416 234.457 239.283 233.394 242.685 231.416C246.087 229.439 248.906 226.616 250.86 223.228C252.815 219.84 253.838 216.005 253.827 212.106C253.816 208.206 252.771 204.377 250.797 201L155.059 43.1034C153.044 39.8216 150.206 37.1083 146.821 35.2252C143.435 33.3421 139.615 32.3528 135.73 32.3528C131.845 32.3528 128.025 33.3421 124.639 35.2252C121.254 37.1083 118.417 39.8216 116.402 43.1034Z" stroke="#0051FF" stroke-width="30" stroke-linecap="round" stroke-linejoin="round"/>
</svg>
